<?xml version="1.0" encoding="utf-8"?>
<!-- Generator: Adobe Illustrator 26.1.0, SVG Export Plug-In . SVG Version: 6.00 Build 0)  -->
<svg version="1.1" id="Layer_1" xmlns="http://www.w3.org/2000/svg" xmlns:xlink="http://www.w3.org/1999/xlink" x="0px" y="0px"
	 viewBox="0 0 784.38 374.71" style="enable-background:new 0 0 784.38 374.71;" xml:space="preserve">
<style type="text/css">
	.st0{fill:#FFFFFF;}
	.st1{fill:none;stroke:#FFFFFF;stroke-miterlimit:10;}
	.st2{fill:url(#SVGID_1_);}
	.st3{clip-path:url(#SVGID_00000131340584089186419750000011736905999476406967_);}
	.st4{opacity:0.2;}
</style>
<g>
	<path class="st0" d="M42.85,21.68c0.32,0.48,0.47,1.04,0.47,1.67c0,0.75-0.21,1.4-0.64,1.96c-0.43,0.56-1.02,0.99-1.79,1.29
		s-1.66,0.46-2.67,0.46c-1.01,0-1.9-0.15-2.67-0.46s-1.36-0.74-1.78-1.29c-0.42-0.56-0.63-1.21-0.63-1.96
		c0-0.63,0.16-1.19,0.47-1.67c0.32-0.48,0.77-0.87,1.35-1.17c-0.45-0.28-0.79-0.62-1.04-1.04c-0.24-0.42-0.36-0.9-0.36-1.44
		c0-0.7,0.2-1.31,0.59-1.83s0.94-0.92,1.64-1.2c0.7-0.28,1.51-0.42,2.42-0.42c0.92,0,1.73,0.14,2.44,0.42
		c0.71,0.28,1.26,0.68,1.65,1.2s0.59,1.13,0.59,1.83c0,0.54-0.12,1.02-0.36,1.44c-0.24,0.42-0.59,0.77-1.05,1.04
		C42.08,20.81,42.53,21.2,42.85,21.68z M39.88,24.54c0.41-0.32,0.61-0.74,0.61-1.27c0-0.53-0.2-0.95-0.61-1.26s-0.96-0.47-1.66-0.47
		c-0.69,0-1.24,0.16-1.64,0.47c-0.4,0.31-0.6,0.73-0.6,1.26c0,0.54,0.2,0.97,0.6,1.28c0.4,0.31,0.95,0.47,1.64,0.47
		C38.92,25.01,39.47,24.85,39.88,24.54z M36.86,17.03c-0.34,0.27-0.51,0.64-0.51,1.11c0,0.46,0.17,0.82,0.5,1.09
		c0.33,0.26,0.79,0.4,1.36,0.4c0.57,0,1.04-0.13,1.38-0.4c0.35-0.26,0.52-0.63,0.52-1.09c0-0.47-0.17-0.84-0.52-1.11
		c-0.34-0.27-0.81-0.41-1.38-0.41C37.65,16.63,37.2,16.76,36.86,17.03z"/>
	<path class="st0" d="M52.52,19.75c0.63,0.31,1.13,0.75,1.5,1.32c0.37,0.57,0.55,1.23,0.55,1.98c0,0.81-0.2,1.51-0.6,2.12
		c-0.4,0.61-0.95,1.08-1.65,1.41c-0.7,0.33-1.47,0.49-2.32,0.49c-1.69,0-3.01-0.52-3.97-1.55S44.6,23,44.6,21.08
		c0-1.37,0.26-2.54,0.78-3.52s1.24-1.72,2.17-2.23c0.93-0.51,2-0.76,3.22-0.76c0.64,0,1.26,0.07,1.85,0.22
		c0.59,0.14,1.1,0.35,1.51,0.61l-1.04,2.05c-0.6-0.4-1.35-0.6-2.26-0.6c-1.02,0-1.83,0.3-2.43,0.9c-0.6,0.6-0.92,1.47-0.97,2.6
		c0.71-0.71,1.71-1.07,2.98-1.07C51.19,19.28,51.89,19.44,52.52,19.75z M51.3,24.49c0.37-0.32,0.56-0.76,0.56-1.31
		c0-0.55-0.19-0.99-0.56-1.32c-0.37-0.33-0.87-0.49-1.49-0.49c-0.61,0-1.11,0.17-1.5,0.51s-0.59,0.77-0.59,1.3
		c0,0.53,0.19,0.96,0.57,1.29c0.38,0.33,0.9,0.5,1.55,0.5C50.44,24.98,50.93,24.81,51.3,24.49z"/>
	<path class="st0" d="M56.16,26.51c-0.32-0.32-0.48-0.72-0.48-1.21c0-0.49,0.16-0.89,0.48-1.2c0.32-0.3,0.72-0.46,1.19-0.46
		s0.87,0.15,1.19,0.46s0.48,0.7,0.48,1.2c0,0.48-0.16,0.89-0.48,1.21c-0.32,0.32-0.72,0.48-1.19,0.48S56.48,26.83,56.16,26.51z"/>
	<path class="st0" d="M62.56,26.32c-0.78-0.49-1.39-1.21-1.84-2.15c-0.44-0.94-0.66-2.06-0.66-3.36c0-1.3,0.22-2.42,0.66-3.36
		c0.44-0.94,1.06-1.65,1.84-2.15c0.78-0.49,1.67-0.74,2.67-0.74s1.89,0.25,2.67,0.74c0.78,0.49,1.39,1.21,1.84,2.15
		c0.44,0.94,0.66,2.06,0.66,3.36c0,1.3-0.22,2.42-0.66,3.36c-0.44,0.94-1.06,1.65-1.84,2.15c-0.78,0.49-1.67,0.74-2.67,0.74
		S63.34,26.82,62.56,26.32z M66.97,23.75c0.42-0.63,0.63-1.61,0.63-2.93c0-1.32-0.21-2.3-0.63-2.93s-1-0.95-1.73-0.95
		c-0.72,0-1.3,0.32-1.72,0.95c-0.42,0.63-0.63,1.61-0.63,2.93c0,1.32,0.21,2.3,0.63,2.93c0.42,0.63,0.99,0.95,1.72,0.95
		C65.97,24.7,66.55,24.38,66.97,23.75z"/>
	<path class="st0" d="M74.27,26.32c-0.78-0.49-1.39-1.21-1.84-2.15c-0.44-0.94-0.66-2.06-0.66-3.36c0-1.3,0.22-2.42,0.66-3.36
		c0.44-0.94,1.06-1.65,1.84-2.15c0.78-0.49,1.67-0.74,2.67-0.74s1.89,0.25,2.67,0.74c0.78,0.49,1.39,1.21,1.84,2.15
		c0.44,0.94,0.66,2.06,0.66,3.36c0,1.3-0.22,2.42-0.66,3.36c-0.44,0.94-1.06,1.65-1.84,2.15c-0.78,0.49-1.67,0.74-2.67,0.74
		S75.06,26.82,74.27,26.32z M78.68,23.75c0.42-0.63,0.63-1.61,0.63-2.93c0-1.32-0.21-2.3-0.63-2.93s-1-0.95-1.73-0.95
		c-0.72,0-1.3,0.32-1.72,0.95c-0.42,0.63-0.63,1.61-0.63,2.93c0,1.32,0.21,2.3,0.63,2.93c0.42,0.63,0.99,0.95,1.72,0.95
		C77.68,24.7,78.26,24.38,78.68,23.75z"/>
	<path class="st0" d="M85.99,26.32c-0.78-0.49-1.39-1.21-1.84-2.15c-0.44-0.94-0.66-2.06-0.66-3.36c0-1.3,0.22-2.42,0.66-3.36
		c0.44-0.94,1.06-1.65,1.84-2.15c0.78-0.49,1.67-0.74,2.67-0.74s1.89,0.25,2.67,0.74c0.78,0.49,1.39,1.21,1.84,2.15
		c0.44,0.94,0.66,2.06,0.66,3.36c0,1.3-0.22,2.42-0.66,3.36c-0.44,0.94-1.06,1.65-1.84,2.15c-0.78,0.49-1.67,0.74-2.67,0.74
		S86.77,26.82,85.99,26.32z M90.39,23.75c0.42-0.63,0.63-1.61,0.63-2.93c0-1.32-0.21-2.3-0.63-2.93s-1-0.95-1.73-0.95
		c-0.72,0-1.3,0.32-1.72,0.95c-0.42,0.63-0.63,1.61-0.63,2.93c0,1.32,0.21,2.3,0.63,2.93c0.42,0.63,0.99,0.95,1.72,0.95
		C89.4,24.7,89.97,24.38,90.39,23.75z"/>
	<path class="st0" d="M95.37,26.51c-0.32-0.32-0.48-0.72-0.48-1.21c0-0.49,0.16-0.89,0.48-1.2c0.32-0.3,0.72-0.46,1.19-0.46
		s0.87,0.15,1.19,0.46s0.48,0.7,0.48,1.2c0,0.48-0.16,0.89-0.48,1.21c-0.32,0.32-0.72,0.48-1.19,0.48S95.69,26.83,95.37,26.51z"/>
	<path class="st0" d="M101.77,26.32c-0.78-0.49-1.39-1.21-1.84-2.15c-0.44-0.94-0.66-2.06-0.66-3.36c0-1.3,0.22-2.42,0.66-3.36
		c0.44-0.94,1.06-1.65,1.84-2.15c0.78-0.49,1.67-0.74,2.67-0.74s1.89,0.25,2.67,0.74c0.78,0.49,1.39,1.21,1.84,2.15
		c0.44,0.94,0.66,2.06,0.66,3.36c0,1.3-0.22,2.42-0.66,3.36c-0.44,0.94-1.06,1.65-1.84,2.15c-0.78,0.49-1.67,0.74-2.67,0.74
		S102.55,26.82,101.77,26.32z M106.18,23.75c0.42-0.63,0.63-1.61,0.63-2.93c0-1.32-0.21-2.3-0.63-2.93s-1-0.95-1.73-0.95
		c-0.72,0-1.3,0.32-1.72,0.95c-0.42,0.63-0.63,1.61-0.63,2.93c0,1.32,0.21,2.3,0.63,2.93c0.42,0.63,0.99,0.95,1.72,0.95
		C105.18,24.7,105.76,24.38,106.18,23.75z"/>
	<path class="st0" d="M113.49,26.32c-0.78-0.49-1.39-1.21-1.84-2.15c-0.44-0.94-0.66-2.06-0.66-3.36c0-1.3,0.22-2.42,0.66-3.36
		c0.44-0.94,1.06-1.65,1.84-2.15c0.78-0.49,1.67-0.74,2.67-0.74s1.89,0.25,2.67,0.74c0.78,0.49,1.39,1.21,1.84,2.15
		c0.44,0.94,0.66,2.06,0.66,3.36c0,1.3-0.22,2.42-0.66,3.36c-0.44,0.94-1.06,1.65-1.84,2.15c-0.78,0.49-1.67,0.74-2.67,0.74
		S114.27,26.82,113.49,26.32z M117.89,23.75c0.42-0.63,0.63-1.61,0.63-2.93c0-1.32-0.21-2.3-0.63-2.93s-1-0.95-1.73-0.95
		c-0.72,0-1.3,0.32-1.72,0.95c-0.42,0.63-0.63,1.61-0.63,2.93c0,1.32,0.21,2.3,0.63,2.93c0.42,0.63,0.99,0.95,1.72,0.95
		C116.9,24.7,117.47,24.38,117.89,23.75z"/>
	<path class="st0" d="M125.2,26.32c-0.78-0.49-1.39-1.21-1.84-2.15c-0.44-0.94-0.66-2.06-0.66-3.36c0-1.3,0.22-2.42,0.66-3.36
		c0.44-0.94,1.06-1.65,1.84-2.15c0.78-0.49,1.67-0.74,2.67-0.74s1.89,0.25,2.67,0.74c0.78,0.49,1.39,1.21,1.84,2.15
		c0.44,0.94,0.66,2.06,0.66,3.36c0,1.3-0.22,2.42-0.66,3.36c-0.44,0.94-1.06,1.65-1.84,2.15c-0.78,0.49-1.67,0.74-2.67,0.74
		S125.98,26.82,125.2,26.32z M129.61,23.75c0.42-0.63,0.63-1.61,0.63-2.93c0-1.32-0.21-2.3-0.63-2.93s-1-0.95-1.73-0.95
		c-0.72,0-1.3,0.32-1.72,0.95c-0.42,0.63-0.63,1.61-0.63,2.93c0,1.32,0.21,2.3,0.63,2.93c0.42,0.63,0.99,0.95,1.72,0.95
		C128.61,24.7,129.19,24.38,129.61,23.75z"/>
</g>
<g>
	<path class="st0" d="M291.43,118.53c0.79,0.36,1.39,0.86,1.82,1.52c0.43,0.66,0.64,1.43,0.64,2.33c0,0.89-0.21,1.66-0.64,2.32
		c-0.43,0.66-1.03,1.17-1.82,1.52c-0.79,0.35-1.72,0.53-2.79,0.53h-2.43v3.33h-2.79V118h5.23
		C289.72,118,290.64,118.17,291.43,118.53z M290.41,123.92c0.44-0.36,0.66-0.88,0.66-1.54c0-0.68-0.22-1.2-0.66-1.56
		c-0.44-0.36-1.08-0.54-1.92-0.54h-2.28v4.19h2.28C289.33,124.47,289.97,124.28,290.41,123.92z"/>
	<path class="st0" d="M297.45,129.6c-0.78-0.41-1.38-0.97-1.82-1.7s-0.66-1.55-0.66-2.47c0-0.92,0.22-1.74,0.66-2.47
		c0.44-0.72,1.04-1.29,1.82-1.7c0.78-0.41,1.65-0.61,2.63-0.61c0.98,0,1.85,0.2,2.62,0.61c0.77,0.41,1.37,0.98,1.81,1.7
		c0.44,0.72,0.66,1.55,0.66,2.47c0,0.92-0.22,1.74-0.66,2.47c-0.44,0.72-1.04,1.29-1.81,1.7c-0.77,0.41-1.65,0.61-2.62,0.61
		C299.11,130.21,298.23,130.01,297.45,129.6z M301.78,127.3c0.44-0.47,0.66-1.09,0.66-1.87s-0.22-1.41-0.66-1.87
		c-0.44-0.47-1.01-0.7-1.7-0.7c-0.69,0-1.26,0.23-1.71,0.7c-0.45,0.47-0.67,1.09-0.67,1.87s0.22,1.41,0.67,1.87
		c0.45,0.47,1.02,0.7,1.71,0.7C300.77,128,301.34,127.77,301.78,127.3z"/>
	<path class="st0" d="M312.95,129.62c-0.26,0.2-0.59,0.34-0.97,0.44c-0.39,0.1-0.79,0.15-1.22,0.15c-1.1,0-1.96-0.28-2.56-0.85
		c-0.6-0.56-0.91-1.39-0.91-2.48v-3.81h-1.43V121h1.43v-2.26h2.69V121h2.31v2.07h-2.31v3.78c0,0.39,0.1,0.69,0.3,0.91
		s0.49,0.32,0.85,0.32c0.43,0,0.79-0.12,1.09-0.35L312.95,129.62z"/>
	<path class="st0" d="M323.22,126.19h-7.02c0.13,0.58,0.43,1.03,0.9,1.36c0.47,0.33,1.06,0.5,1.76,0.5c0.48,0,0.91-0.07,1.29-0.22
		c0.37-0.14,0.72-0.37,1.04-0.68l1.43,1.55c-0.87,1-2.15,1.5-3.83,1.5c-1.05,0-1.97-0.2-2.78-0.61c-0.81-0.41-1.43-0.97-1.86-1.7
		s-0.66-1.55-0.66-2.47c0-0.91,0.22-1.73,0.65-2.46c0.43-0.73,1.02-1.3,1.78-1.71c0.75-0.41,1.6-0.61,2.53-0.61
		c0.91,0,1.73,0.2,2.47,0.59c0.74,0.39,1.31,0.95,1.73,1.68c0.42,0.73,0.63,1.58,0.63,2.54
		C323.27,125.5,323.25,125.74,323.22,126.19z M316.92,123.21c-0.41,0.35-0.67,0.82-0.76,1.41h4.57c-0.09-0.59-0.35-1.05-0.76-1.41
		c-0.41-0.35-0.92-0.53-1.52-0.53C317.85,122.69,317.33,122.86,316.92,123.21z"/>
	<path class="st0" d="M333.49,121.69c0.71,0.69,1.06,1.71,1.06,3.07v5.31h-2.69v-4.9c0-0.74-0.16-1.29-0.48-1.65
		c-0.32-0.36-0.79-0.54-1.4-0.54c-0.68,0-1.22,0.21-1.62,0.63c-0.4,0.42-0.6,1.04-0.6,1.87v4.59h-2.69v-9.28h2.57v1.09
		c0.36-0.39,0.8-0.69,1.33-0.91c0.53-0.21,1.11-0.32,1.74-0.32C331.85,120.65,332.78,121,333.49,121.69z"/>
	<path class="st0" d="M338.91,129.6c-0.79-0.41-1.4-0.97-1.85-1.7c-0.44-0.72-0.66-1.55-0.66-2.47c0-0.92,0.22-1.74,0.66-2.47
		c0.44-0.72,1.06-1.29,1.85-1.7c0.79-0.41,1.68-0.61,2.67-0.61c0.98,0,1.83,0.2,2.56,0.61c0.73,0.41,1.26,0.99,1.6,1.75l-2.09,1.12
		c-0.48-0.85-1.18-1.28-2.09-1.28c-0.7,0-1.28,0.23-1.74,0.69s-0.69,1.09-0.69,1.88s0.23,1.42,0.69,1.88s1.04,0.69,1.74,0.69
		c0.92,0,1.62-0.43,2.09-1.28l2.09,1.14c-0.33,0.74-0.87,1.31-1.6,1.73c-0.73,0.41-1.58,0.62-2.56,0.62
		C340.58,130.21,339.7,130.01,338.91,129.6z"/>
	<path class="st0" d="M347.42,119.07c-0.31-0.29-0.47-0.64-0.47-1.07c0-0.43,0.16-0.78,0.47-1.07c0.31-0.29,0.71-0.43,1.21-0.43
		c0.49,0,0.9,0.14,1.21,0.41c0.31,0.28,0.47,0.62,0.47,1.04c0,0.45-0.16,0.82-0.47,1.11s-0.71,0.44-1.21,0.44
		C348.13,119.5,347.73,119.35,347.42,119.07z M347.28,120.79h2.69v9.28h-2.69V120.79z"/>
	<path class="st0" d="M359.53,121.68c0.77,0.68,1.16,1.72,1.16,3.1v5.3h-2.52v-1.16c-0.51,0.86-1.45,1.29-2.83,1.29
		c-0.71,0-1.33-0.12-1.85-0.36c-0.52-0.24-0.92-0.58-1.2-1c-0.28-0.43-0.41-0.91-0.41-1.45c0-0.86,0.32-1.54,0.97-2.04
		s1.65-0.74,3.01-0.74H358c0-0.59-0.18-1.04-0.53-1.35c-0.36-0.32-0.89-0.47-1.6-0.47c-0.49,0-0.98,0.08-1.46,0.23
		s-0.88,0.37-1.22,0.63l-0.97-1.88c0.51-0.36,1.11-0.63,1.82-0.83c0.71-0.2,1.43-0.29,2.18-0.29
		C357.66,120.65,358.76,121,359.53,121.68z M357.24,128.08c0.36-0.21,0.61-0.53,0.76-0.94v-0.95h-1.85c-1.1,0-1.66,0.36-1.66,1.09
		c0,0.35,0.13,0.62,0.41,0.82c0.27,0.2,0.64,0.3,1.11,0.3C356.47,128.4,356.88,128.29,357.24,128.08z"/>
	<path class="st0" d="M363.12,117.27h2.69v12.8h-2.69V117.27z"/>
	<path class="st0" d="M265.16,137.97v12.8h-2.57v-1.07c-0.67,0.81-1.63,1.21-2.9,1.21c-0.87,0-1.66-0.2-2.37-0.59
		c-0.71-0.39-1.26-0.95-1.66-1.67c-0.4-0.72-0.6-1.56-0.6-2.52s0.2-1.79,0.6-2.52c0.4-0.72,0.96-1.28,1.66-1.67
		c0.71-0.39,1.5-0.59,2.37-0.59c1.18,0,2.11,0.37,2.78,1.12v-4.5H265.16z M261.85,148c0.45-0.47,0.67-1.09,0.67-1.87
		s-0.22-1.41-0.67-1.87c-0.45-0.47-1.01-0.7-1.69-0.7c-0.69,0-1.26,0.23-1.71,0.7c-0.45,0.47-0.67,1.09-0.67,1.87
		s0.22,1.41,0.67,1.87c0.45,0.47,1.02,0.7,1.71,0.7C260.83,148.7,261.4,148.47,261.85,148z"/>
	<path class="st0" d="M276.68,146.89h-7.02c0.13,0.58,0.43,1.03,0.9,1.36c0.47,0.33,1.06,0.5,1.76,0.5c0.48,0,0.91-0.07,1.29-0.22
		c0.37-0.14,0.72-0.37,1.04-0.68l1.43,1.55c-0.87,1-2.15,1.5-3.83,1.5c-1.05,0-1.97-0.2-2.78-0.61c-0.81-0.41-1.43-0.97-1.86-1.7
		s-0.66-1.55-0.66-2.47c0-0.91,0.22-1.73,0.65-2.46c0.43-0.73,1.02-1.3,1.78-1.71c0.75-0.41,1.6-0.61,2.53-0.61
		c0.91,0,1.73,0.2,2.47,0.59c0.74,0.39,1.31,0.95,1.73,1.68c0.42,0.73,0.63,1.58,0.63,2.54
		C276.73,146.2,276.72,146.44,276.68,146.89z M270.39,143.91c-0.41,0.35-0.67,0.82-0.76,1.41h4.57c-0.09-0.59-0.35-1.05-0.76-1.41
		c-0.41-0.35-0.92-0.53-1.52-0.53C271.31,143.39,270.8,143.56,270.39,143.91z"/>
	<path class="st0" d="M285.23,150.3c-0.79-0.41-1.4-0.97-1.85-1.7c-0.44-0.72-0.66-1.55-0.66-2.47c0-0.92,0.22-1.74,0.66-2.47
		c0.44-0.72,1.06-1.29,1.85-1.7c0.79-0.41,1.68-0.61,2.67-0.61c0.98,0,1.83,0.2,2.56,0.61c0.73,0.41,1.26,0.99,1.6,1.75l-2.09,1.12
		c-0.48-0.85-1.18-1.28-2.09-1.28c-0.7,0-1.28,0.23-1.74,0.69s-0.69,1.09-0.69,1.88s0.23,1.42,0.69,1.88s1.04,0.69,1.74,0.69
		c0.92,0,1.62-0.43,2.09-1.28l2.09,1.14c-0.33,0.74-0.87,1.31-1.6,1.73c-0.73,0.41-1.58,0.62-2.56,0.62
		C286.91,150.91,286.02,150.71,285.23,150.3z"/>
	<path class="st0" d="M297.48,141.7c0.55-0.23,1.18-0.35,1.89-0.35v2.48c-0.3-0.02-0.5-0.03-0.6-0.03c-0.77,0-1.37,0.22-1.81,0.65
		s-0.66,1.08-0.66,1.94v4.38h-2.69v-9.28h2.57v1.22C296.5,142.27,296.93,141.93,297.48,141.7z"/>
	<path class="st0" d="M309.93,146.89h-7.02c0.13,0.58,0.43,1.03,0.9,1.36c0.47,0.33,1.06,0.5,1.76,0.5c0.48,0,0.91-0.07,1.29-0.22
		c0.37-0.14,0.72-0.37,1.04-0.68l1.43,1.55c-0.87,1-2.15,1.5-3.83,1.5c-1.05,0-1.97-0.2-2.78-0.61c-0.81-0.41-1.43-0.97-1.86-1.7
		s-0.66-1.55-0.66-2.47c0-0.91,0.22-1.73,0.65-2.46c0.43-0.73,1.02-1.3,1.78-1.71c0.75-0.41,1.6-0.61,2.53-0.61
		c0.91,0,1.73,0.2,2.47,0.59c0.74,0.39,1.31,0.95,1.73,1.68c0.42,0.73,0.63,1.58,0.63,2.54
		C309.98,146.2,309.96,146.44,309.93,146.89z M303.63,143.91c-0.41,0.35-0.67,0.82-0.76,1.41h4.57c-0.09-0.59-0.35-1.05-0.76-1.41
		c-0.41-0.35-0.92-0.53-1.52-0.53C304.55,143.39,304.04,143.56,303.63,143.91z"/>
	<path class="st0" d="M312.63,150.63c-0.74-0.19-1.32-0.43-1.76-0.72l0.9-1.93c0.41,0.26,0.91,0.48,1.5,0.65
		c0.59,0.17,1.16,0.25,1.73,0.25c1.14,0,1.71-0.28,1.71-0.85c0-0.26-0.16-0.45-0.47-0.57c-0.31-0.11-0.79-0.21-1.43-0.29
		c-0.76-0.11-1.39-0.25-1.88-0.4c-0.49-0.15-0.92-0.41-1.29-0.79s-0.54-0.92-0.54-1.62c0-0.59,0.17-1.11,0.51-1.56
		c0.34-0.45,0.83-0.81,1.48-1.06c0.65-0.25,1.42-0.38,2.3-0.38c0.66,0,1.31,0.07,1.96,0.22c0.65,0.14,1.19,0.34,1.61,0.6l-0.9,1.92
		c-0.82-0.46-1.71-0.69-2.67-0.69c-0.58,0-1.01,0.08-1.29,0.24c-0.29,0.16-0.43,0.37-0.43,0.62c0,0.29,0.16,0.49,0.47,0.6
		c0.31,0.12,0.81,0.22,1.48,0.33c0.76,0.13,1.38,0.26,1.86,0.41c0.48,0.14,0.9,0.41,1.26,0.79c0.36,0.38,0.53,0.91,0.53,1.59
		c0,0.58-0.17,1.09-0.52,1.54c-0.35,0.45-0.85,0.8-1.51,1.04c-0.66,0.25-1.45,0.37-2.35,0.37
		C314.12,150.91,313.37,150.82,312.63,150.63z"/>
	<path class="st0" d="M322.75,150.3c-0.79-0.41-1.4-0.97-1.85-1.7c-0.44-0.72-0.66-1.55-0.66-2.47c0-0.92,0.22-1.74,0.66-2.47
		c0.44-0.72,1.06-1.29,1.85-1.7c0.79-0.41,1.68-0.61,2.67-0.61c0.98,0,1.83,0.2,2.56,0.61c0.73,0.41,1.26,0.99,1.6,1.75l-2.09,1.12
		c-0.48-0.85-1.18-1.28-2.09-1.28c-0.7,0-1.28,0.23-1.74,0.69s-0.69,1.09-0.69,1.88s0.23,1.42,0.69,1.88s1.04,0.69,1.74,0.69
		c0.92,0,1.62-0.43,2.09-1.28l2.09,1.14c-0.33,0.74-0.87,1.31-1.6,1.73c-0.73,0.41-1.58,0.62-2.56,0.62
		C324.43,150.91,323.54,150.71,322.75,150.3z"/>
	<path class="st0" d="M331.27,139.77c-0.31-0.29-0.47-0.64-0.47-1.07c0-0.43,0.16-0.78,0.47-1.07c0.31-0.29,0.71-0.43,1.21-0.43
		c0.49,0,0.9,0.14,1.21,0.41c0.31,0.28,0.47,0.62,0.47,1.04c0,0.45-0.16,0.82-0.47,1.11s-0.71,0.44-1.21,0.44
		C331.98,140.2,331.58,140.06,331.27,139.77z M331.13,141.49h2.69v9.28h-2.69V141.49z"/>
	<path class="st0" d="M350.98,142.38c0.68,0.68,1.03,1.71,1.03,3.08v5.31h-2.69v-4.9c0-0.74-0.15-1.29-0.46-1.65
		s-0.74-0.54-1.3-0.54c-0.63,0-1.13,0.2-1.5,0.61c-0.37,0.41-0.55,1.02-0.55,1.82v4.66h-2.69v-4.9c0-1.46-0.59-2.19-1.76-2.19
		c-0.62,0-1.12,0.2-1.48,0.61c-0.37,0.41-0.55,1.02-0.55,1.82v4.66h-2.69v-9.28h2.57v1.07c0.35-0.39,0.77-0.69,1.27-0.9
		s1.05-0.31,1.65-0.31c0.66,0,1.25,0.13,1.78,0.39s0.95,0.64,1.28,1.13c0.38-0.48,0.86-0.86,1.44-1.12c0.58-0.26,1.22-0.4,1.91-0.4
		C349.37,141.35,350.29,141.7,350.98,142.38z"/>
	<path class="st0" d="M363.56,146.89h-7.02c0.13,0.58,0.43,1.03,0.9,1.36c0.47,0.33,1.06,0.5,1.76,0.5c0.48,0,0.91-0.07,1.29-0.22
		c0.37-0.14,0.72-0.37,1.04-0.68l1.43,1.55c-0.87,1-2.15,1.5-3.83,1.5c-1.05,0-1.97-0.2-2.78-0.61c-0.81-0.41-1.43-0.97-1.86-1.7
		s-0.66-1.55-0.66-2.47c0-0.91,0.22-1.73,0.65-2.46c0.43-0.73,1.02-1.3,1.78-1.71c0.75-0.41,1.6-0.61,2.53-0.61
		c0.91,0,1.73,0.2,2.47,0.59c0.74,0.39,1.31,0.95,1.73,1.68c0.42,0.73,0.63,1.58,0.63,2.54
		C363.61,146.2,363.59,146.44,363.56,146.89z M357.26,143.91c-0.41,0.35-0.67,0.82-0.76,1.41h4.57c-0.09-0.59-0.35-1.05-0.76-1.41
		c-0.41-0.35-0.92-0.53-1.52-0.53C358.19,143.39,357.68,143.56,357.26,143.91z"/>
	<path class="st0" d="M373.83,142.39c0.71,0.69,1.06,1.71,1.06,3.07v5.31h-2.69v-4.9c0-0.74-0.16-1.29-0.48-1.65
		c-0.32-0.36-0.79-0.54-1.4-0.54c-0.68,0-1.22,0.21-1.62,0.63c-0.4,0.42-0.6,1.04-0.6,1.87v4.59h-2.69v-9.28h2.57v1.09
		c0.36-0.39,0.8-0.69,1.33-0.91c0.53-0.21,1.11-0.32,1.74-0.32C372.2,141.35,373.13,141.7,373.83,142.39z"/>
	<path class="st0" d="M383.31,150.33c-0.26,0.2-0.59,0.34-0.97,0.44c-0.39,0.1-0.79,0.15-1.22,0.15c-1.1,0-1.96-0.28-2.56-0.85
		c-0.6-0.56-0.91-1.39-0.91-2.48v-3.81h-1.43v-2.07h1.43v-2.26h2.69v2.26h2.31v2.07h-2.31v3.78c0,0.39,0.1,0.69,0.3,0.91
		s0.49,0.32,0.85,0.32c0.43,0,0.79-0.12,1.09-0.35L383.31,150.33z"/>
	<path class="st0" d="M386.32,150.3c-0.78-0.41-1.38-0.97-1.82-1.7s-0.66-1.55-0.66-2.47c0-0.92,0.22-1.74,0.66-2.47
		c0.44-0.72,1.04-1.29,1.82-1.7c0.78-0.41,1.65-0.61,2.63-0.61c0.98,0,1.85,0.2,2.62,0.61c0.77,0.41,1.37,0.98,1.81,1.7
		c0.44,0.72,0.66,1.55,0.66,2.47c0,0.92-0.22,1.74-0.66,2.47c-0.44,0.72-1.04,1.29-1.81,1.7c-0.77,0.41-1.65,0.61-2.62,0.61
		C387.98,150.91,387.1,150.71,386.32,150.3z M390.65,148c0.44-0.47,0.66-1.09,0.66-1.87s-0.22-1.41-0.66-1.87
		c-0.44-0.47-1.01-0.7-1.7-0.7c-0.69,0-1.26,0.23-1.71,0.7c-0.45,0.47-0.67,1.09-0.67,1.87s0.22,1.41,0.67,1.87
		c0.45,0.47,1.02,0.7,1.71,0.7C389.64,148.7,390.21,148.47,390.65,148z"/>
</g>
<g>
	<path class="st0" d="M389.15,357.47v2.28h-9.13v-1.81l4.66-4.4c0.49-0.47,0.83-0.88,1-1.21c0.17-0.34,0.26-0.68,0.26-1.01
		c0-0.48-0.16-0.85-0.49-1.11c-0.33-0.26-0.81-0.39-1.44-0.39c-0.53,0-1.01,0.1-1.43,0.3c-0.43,0.2-0.78,0.5-1.07,0.91l-2.04-1.31
		c0.47-0.7,1.12-1.25,1.95-1.65s1.78-0.6,2.85-0.6c0.9,0,1.68,0.15,2.35,0.44c0.67,0.29,1.2,0.71,1.57,1.24
		c0.37,0.53,0.56,1.16,0.56,1.89c0,0.65-0.14,1.27-0.41,1.85c-0.28,0.57-0.81,1.23-1.6,1.97l-2.78,2.62H389.15z"/>
	<path class="st0" d="M392.77,359.22c-0.78-0.49-1.39-1.21-1.84-2.15s-0.66-2.06-0.66-3.36c0-1.3,0.22-2.42,0.66-3.36
		s1.06-1.65,1.84-2.15c0.78-0.49,1.67-0.74,2.67-0.74s1.89,0.25,2.67,0.74c0.78,0.49,1.39,1.21,1.84,2.15s0.66,2.05,0.66,3.36
		c0,1.3-0.22,2.42-0.66,3.36s-1.06,1.65-1.84,2.15c-0.78,0.5-1.67,0.74-2.67,0.74S393.56,359.71,392.77,359.22z M397.18,356.65
		c0.42-0.63,0.63-1.61,0.63-2.93s-0.21-2.3-0.63-2.93s-1-0.95-1.73-0.95c-0.72,0-1.3,0.32-1.72,0.95c-0.42,0.63-0.63,1.61-0.63,2.93
		s0.21,2.3,0.63,2.93c0.42,0.63,0.99,0.95,1.72,0.95C396.18,357.6,396.76,357.28,397.18,356.65z"/>
	<path class="st0" d="M410.91,357.47v2.28h-9.13v-1.81l4.66-4.4c0.49-0.47,0.83-0.88,1-1.21c0.17-0.34,0.26-0.68,0.26-1.01
		c0-0.48-0.16-0.85-0.49-1.11c-0.33-0.26-0.81-0.39-1.44-0.39c-0.53,0-1.01,0.1-1.43,0.3c-0.43,0.2-0.78,0.5-1.07,0.91l-2.04-1.31
		c0.47-0.7,1.12-1.25,1.95-1.65s1.78-0.6,2.85-0.6c0.9,0,1.68,0.15,2.35,0.44c0.67,0.29,1.2,0.71,1.57,1.24
		c0.37,0.53,0.56,1.16,0.56,1.89c0,0.65-0.14,1.27-0.41,1.85c-0.28,0.57-0.81,1.23-1.6,1.97l-2.78,2.62H410.91z"/>
	<path class="st0" d="M421.08,357.47v2.28h-9.13v-1.81l4.66-4.4c0.49-0.47,0.83-0.88,1-1.21c0.17-0.34,0.26-0.68,0.26-1.01
		c0-0.48-0.16-0.85-0.49-1.11c-0.33-0.26-0.81-0.39-1.44-0.39c-0.53,0-1.01,0.1-1.43,0.3c-0.42,0.2-0.78,0.5-1.07,0.91l-2.04-1.31
		c0.47-0.7,1.12-1.25,1.95-1.65s1.78-0.6,2.85-0.6c0.9,0,1.68,0.15,2.35,0.44c0.67,0.29,1.2,0.71,1.57,1.24
		c0.37,0.53,0.56,1.16,0.56,1.89c0,0.65-0.14,1.27-0.41,1.85c-0.28,0.57-0.81,1.23-1.6,1.97l-2.78,2.62H421.08z"/>
</g>
<g>
	<path class="st0" d="M335.81,357.47v2.28h-9.13v-1.81l4.66-4.4c0.49-0.47,0.83-0.88,1-1.21c0.17-0.34,0.26-0.68,0.26-1.01
		c0-0.48-0.16-0.85-0.49-1.11c-0.33-0.26-0.81-0.39-1.44-0.39c-0.53,0-1.01,0.1-1.43,0.3c-0.43,0.2-0.78,0.5-1.07,0.91l-2.04-1.31
		c0.47-0.7,1.12-1.25,1.95-1.65s1.78-0.6,2.85-0.6c0.9,0,1.68,0.15,2.35,0.44c0.67,0.29,1.2,0.71,1.57,1.24
		c0.37,0.53,0.56,1.16,0.56,1.89c0,0.65-0.14,1.27-0.41,1.85c-0.28,0.57-0.81,1.23-1.6,1.97l-2.78,2.62H335.81z"/>
	<path class="st0" d="M339.44,359.22c-0.78-0.49-1.39-1.21-1.84-2.15s-0.66-2.06-0.66-3.36c0-1.3,0.22-2.42,0.66-3.36
		s1.06-1.65,1.84-2.15c0.78-0.49,1.67-0.74,2.67-0.74s1.89,0.25,2.67,0.74c0.78,0.49,1.39,1.21,1.84,2.15s0.66,2.05,0.66,3.36
		c0,1.3-0.22,2.42-0.66,3.36s-1.06,1.65-1.84,2.15c-0.78,0.5-1.67,0.74-2.67,0.74S340.22,359.71,339.44,359.22z M343.85,356.65
		c0.42-0.63,0.63-1.61,0.63-2.93s-0.21-2.3-0.63-2.93s-1-0.95-1.73-0.95c-0.72,0-1.3,0.32-1.72,0.95c-0.42,0.63-0.63,1.61-0.63,2.93
		s0.21,2.3,0.63,2.93c0.42,0.63,0.99,0.95,1.72,0.95C342.85,357.6,343.43,357.28,343.85,356.65z"/>
	<path class="st0" d="M357.57,357.47v2.28h-9.13v-1.81l4.66-4.4c0.49-0.47,0.83-0.88,1-1.21c0.17-0.34,0.26-0.68,0.26-1.01
		c0-0.48-0.16-0.85-0.49-1.11c-0.33-0.26-0.81-0.39-1.44-0.39c-0.53,0-1.01,0.1-1.43,0.3c-0.43,0.2-0.78,0.5-1.07,0.91l-2.04-1.31
		c0.47-0.7,1.12-1.25,1.95-1.65s1.78-0.6,2.85-0.6c0.9,0,1.68,0.15,2.35,0.44c0.67,0.29,1.2,0.71,1.57,1.24
		c0.37,0.53,0.56,1.16,0.56,1.89c0,0.65-0.14,1.27-0.41,1.85c-0.28,0.57-0.81,1.23-1.6,1.97l-2.78,2.62H357.57z"/>
	<path class="st0" d="M363.38,347.68v12.08h-2.79v-9.83h-2.42v-2.24H363.38z"/>
</g>
<g>
	<path class="st0" d="M269.7,355.96v1.33h-5.32v-1.06l2.72-2.57c0.29-0.28,0.48-0.51,0.58-0.71c0.1-0.2,0.15-0.39,0.15-0.59
		c0-0.28-0.1-0.5-0.29-0.65c-0.19-0.15-0.47-0.23-0.84-0.23c-0.31,0-0.59,0.06-0.84,0.18c-0.25,0.12-0.46,0.29-0.62,0.53l-1.19-0.77
		c0.27-0.41,0.65-0.73,1.14-0.96c0.48-0.23,1.04-0.35,1.66-0.35c0.52,0,0.98,0.09,1.37,0.26c0.39,0.17,0.7,0.41,0.92,0.72
		c0.22,0.31,0.33,0.68,0.33,1.1c0,0.38-0.08,0.74-0.24,1.08s-0.47,0.72-0.94,1.15l-1.62,1.53H269.7z"/>
	<path class="st0" d="M271.82,356.98c-0.46-0.29-0.81-0.71-1.07-1.25s-0.39-1.2-0.39-1.96c0-0.76,0.13-1.41,0.39-1.96
		s0.62-0.96,1.07-1.25c0.46-0.29,0.98-0.43,1.56-0.43c0.58,0,1.1,0.14,1.56,0.43c0.46,0.29,0.81,0.71,1.07,1.25s0.39,1.2,0.39,1.96
		c0,0.76-0.13,1.41-0.39,1.96s-0.62,0.96-1.07,1.25s-0.98,0.43-1.56,0.43C272.79,357.41,272.27,357.27,271.82,356.98z
		 M274.39,355.48c0.24-0.37,0.37-0.94,0.37-1.71s-0.12-1.34-0.37-1.71c-0.25-0.37-0.58-0.55-1.01-0.55c-0.42,0-0.76,0.19-1,0.55
		c-0.25,0.37-0.37,0.94-0.37,1.71s0.12,1.34,0.37,1.71c0.24,0.37,0.58,0.55,1,0.55C273.81,356.03,274.14,355.85,274.39,355.48z"/>
	<path class="st0" d="M282.39,355.96v1.33h-5.32v-1.06l2.72-2.57c0.29-0.28,0.48-0.51,0.58-0.71c0.1-0.2,0.15-0.39,0.15-0.59
		c0-0.28-0.1-0.5-0.29-0.65c-0.19-0.15-0.47-0.23-0.84-0.23c-0.31,0-0.59,0.06-0.84,0.18c-0.25,0.12-0.46,0.29-0.62,0.53l-1.19-0.77
		c0.27-0.41,0.65-0.73,1.14-0.96c0.48-0.23,1.04-0.35,1.66-0.35c0.52,0,0.98,0.09,1.37,0.26c0.39,0.17,0.7,0.41,0.92,0.72
		c0.22,0.31,0.33,0.68,0.33,1.1c0,0.38-0.08,0.74-0.24,1.08s-0.47,0.72-0.94,1.15l-1.62,1.53H282.39z"/>
	<path class="st0" d="M284.51,356.98c-0.46-0.29-0.81-0.71-1.07-1.25s-0.39-1.2-0.39-1.96c0-0.76,0.13-1.41,0.39-1.96
		s0.62-0.96,1.07-1.25c0.46-0.29,0.98-0.43,1.56-0.43c0.58,0,1.1,0.14,1.56,0.43c0.46,0.29,0.81,0.71,1.07,1.25s0.39,1.2,0.39,1.96
		c0,0.76-0.13,1.41-0.39,1.96s-0.62,0.96-1.07,1.25s-0.98,0.43-1.56,0.43C285.48,357.41,284.96,357.27,284.51,356.98z
		 M287.08,355.48c0.24-0.37,0.37-0.94,0.37-1.71s-0.12-1.34-0.37-1.71c-0.25-0.37-0.58-0.55-1.01-0.55c-0.42,0-0.76,0.19-1,0.55
		c-0.25,0.37-0.37,0.94-0.37,1.71s0.12,1.34,0.37,1.71c0.24,0.37,0.58,0.55,1,0.55C286.5,356.03,286.83,355.85,287.08,355.48z"/>
</g>
<g>
	<path class="st0" d="M212.44,355.96v1.33h-5.32v-1.06l2.72-2.57c0.29-0.28,0.48-0.51,0.58-0.71c0.1-0.2,0.15-0.39,0.15-0.59
		c0-0.28-0.1-0.5-0.29-0.65c-0.19-0.15-0.47-0.23-0.84-0.23c-0.31,0-0.59,0.06-0.84,0.18c-0.25,0.12-0.46,0.29-0.62,0.53l-1.19-0.77
		c0.27-0.41,0.65-0.73,1.14-0.96c0.48-0.23,1.04-0.35,1.66-0.35c0.52,0,0.98,0.09,1.37,0.26c0.39,0.17,0.7,0.41,0.92,0.72
		c0.22,0.31,0.33,0.68,0.33,1.1c0,0.38-0.08,0.74-0.24,1.08s-0.47,0.72-0.94,1.15l-1.62,1.53H212.44z"/>
	<path class="st0" d="M214.55,356.98c-0.46-0.29-0.81-0.71-1.07-1.25s-0.39-1.2-0.39-1.96c0-0.76,0.13-1.41,0.39-1.96
		s0.62-0.96,1.07-1.25c0.46-0.29,0.98-0.43,1.56-0.43c0.58,0,1.1,0.14,1.56,0.43c0.46,0.29,0.81,0.71,1.07,1.25s0.39,1.2,0.39,1.96
		c0,0.76-0.13,1.41-0.39,1.96s-0.62,0.96-1.07,1.25s-0.98,0.43-1.56,0.43C215.52,357.41,215,357.27,214.55,356.98z M217.12,355.48
		c0.24-0.37,0.37-0.94,0.37-1.71s-0.12-1.34-0.37-1.71c-0.25-0.37-0.58-0.55-1.01-0.55c-0.42,0-0.76,0.19-1,0.55
		c-0.25,0.37-0.37,0.94-0.37,1.71s0.12,1.34,0.37,1.71c0.24,0.37,0.58,0.55,1,0.55C216.54,356.03,216.88,355.85,217.12,355.48z"/>
	<path class="st0" d="M222.58,350.25v7.04h-1.63v-5.74h-1.41v-1.31H222.58z"/>
	<path class="st0" d="M228.6,351.03c0.56,0.6,0.84,1.46,0.84,2.59c0,0.8-0.15,1.48-0.45,2.05c-0.3,0.57-0.72,1-1.26,1.3
		s-1.17,0.44-1.88,0.44c-0.38,0-0.73-0.04-1.08-0.13c-0.34-0.08-0.63-0.2-0.88-0.36l0.6-1.2c0.34,0.23,0.78,0.35,1.32,0.35
		c0.6,0,1.07-0.18,1.42-0.53s0.54-0.86,0.56-1.53c-0.42,0.42-1.01,0.63-1.75,0.63c-0.45,0-0.86-0.09-1.23-0.27
		c-0.37-0.18-0.66-0.44-0.88-0.77c-0.21-0.33-0.32-0.72-0.32-1.15c0-0.47,0.12-0.88,0.35-1.24c0.23-0.36,0.55-0.63,0.96-0.82
		c0.41-0.19,0.86-0.29,1.35-0.29C227.27,350.12,228.04,350.43,228.6,351.03z M227.27,353.15c0.22-0.2,0.34-0.45,0.34-0.76
		s-0.11-0.56-0.33-0.76c-0.22-0.2-0.52-0.29-0.9-0.29c-0.35,0-0.63,0.09-0.85,0.28c-0.22,0.19-0.33,0.44-0.33,0.77
		c0,0.32,0.11,0.58,0.33,0.77c0.22,0.19,0.51,0.29,0.87,0.29C226.76,353.45,227.05,353.35,227.27,353.15z"/>
</g>
<g>
	<path class="st0" d="M37.87,219.67v12.08h-2.79v-9.83h-2.42v-2.24H37.87z"/>
	<path class="st0" d="M40.38,231.4c-0.32-0.32-0.48-0.72-0.48-1.21c0-0.49,0.16-0.89,0.48-1.2c0.32-0.3,0.72-0.46,1.19-0.46
		s0.87,0.15,1.19,0.46s0.48,0.7,0.48,1.2c0,0.48-0.16,0.89-0.48,1.21c-0.32,0.32-0.72,0.48-1.19,0.48S40.7,231.73,40.38,231.4z"/>
	<path class="st0" d="M46.77,231.21c-0.78-0.49-1.39-1.21-1.84-2.15c-0.44-0.94-0.66-2.06-0.66-3.36c0-1.3,0.22-2.42,0.66-3.36
		c0.44-0.94,1.06-1.65,1.84-2.15c0.78-0.49,1.67-0.74,2.67-0.74s1.89,0.25,2.67,0.74c0.78,0.49,1.39,1.21,1.84,2.15
		c0.44,0.94,0.66,2.06,0.66,3.36c0,1.3-0.22,2.42-0.66,3.36c-0.44,0.94-1.06,1.65-1.84,2.15c-0.78,0.49-1.67,0.74-2.67,0.74
		S47.56,231.71,46.77,231.21z M51.18,228.64c0.42-0.63,0.63-1.61,0.63-2.93c0-1.32-0.21-2.3-0.63-2.93s-1-0.95-1.73-0.95
		c-0.72,0-1.3,0.32-1.72,0.95c-0.42,0.63-0.63,1.61-0.63,2.93c0,1.32,0.21,2.3,0.63,2.93c0.42,0.63,0.99,0.95,1.72,0.95
		C50.18,229.59,50.76,229.28,51.18,228.64z"/>
	<path class="st0" d="M58.49,231.21c-0.78-0.49-1.39-1.21-1.84-2.15c-0.44-0.94-0.66-2.06-0.66-3.36c0-1.3,0.22-2.42,0.66-3.36
		c0.44-0.94,1.06-1.65,1.84-2.15c0.78-0.49,1.67-0.74,2.67-0.74s1.89,0.25,2.67,0.74c0.78,0.49,1.39,1.21,1.84,2.15
		c0.44,0.94,0.66,2.06,0.66,3.36c0,1.3-0.22,2.42-0.66,3.36c-0.44,0.94-1.06,1.65-1.84,2.15c-0.78,0.49-1.67,0.74-2.67,0.74
		S59.27,231.71,58.49,231.21z M62.9,228.64c0.42-0.63,0.63-1.61,0.63-2.93c0-1.32-0.21-2.3-0.63-2.93s-1-0.95-1.73-0.95
		c-0.72,0-1.3,0.32-1.72,0.95c-0.42,0.63-0.63,1.61-0.63,2.93c0,1.32,0.21,2.3,0.63,2.93c0.42,0.63,0.99,0.95,1.72,0.95
		C61.9,229.59,62.48,229.28,62.9,228.64z"/>
	<path class="st0" d="M70.2,231.21c-0.78-0.49-1.39-1.21-1.84-2.15c-0.44-0.94-0.66-2.06-0.66-3.36c0-1.3,0.22-2.42,0.66-3.36
		c0.44-0.94,1.06-1.65,1.84-2.15c0.78-0.49,1.67-0.74,2.67-0.74s1.89,0.25,2.67,0.74c0.78,0.49,1.39,1.21,1.84,2.15
		c0.44,0.94,0.66,2.06,0.66,3.36c0,1.3-0.22,2.42-0.66,3.36c-0.44,0.94-1.06,1.65-1.84,2.15c-0.78,0.49-1.67,0.74-2.67,0.74
		S70.98,231.71,70.2,231.21z M74.61,228.64c0.42-0.63,0.63-1.61,0.63-2.93c0-1.32-0.21-2.3-0.63-2.93s-1-0.95-1.73-0.95
		c-0.72,0-1.3,0.32-1.72,0.95c-0.42,0.63-0.63,1.61-0.63,2.93c0,1.32,0.21,2.3,0.63,2.93c0.42,0.63,0.99,0.95,1.72,0.95
		C73.61,229.59,74.19,229.28,74.61,228.64z"/>
	<path class="st0" d="M79.59,231.4c-0.32-0.32-0.48-0.72-0.48-1.21c0-0.49,0.16-0.89,0.48-1.2c0.32-0.3,0.72-0.46,1.19-0.46
		s0.87,0.15,1.19,0.46s0.48,0.7,0.48,1.2c0,0.48-0.16,0.89-0.48,1.21c-0.32,0.32-0.72,0.48-1.19,0.48S79.91,231.73,79.59,231.4z"/>
	<path class="st0" d="M85.99,231.21c-0.78-0.49-1.39-1.21-1.84-2.15c-0.44-0.94-0.66-2.06-0.66-3.36c0-1.3,0.22-2.42,0.66-3.36
		c0.44-0.94,1.06-1.65,1.84-2.15c0.78-0.49,1.67-0.74,2.67-0.74s1.89,0.25,2.67,0.74c0.78,0.49,1.39,1.21,1.84,2.15
		c0.44,0.94,0.66,2.06,0.66,3.36c0,1.3-0.22,2.42-0.66,3.36c-0.44,0.94-1.06,1.65-1.84,2.15c-0.78,0.49-1.67,0.74-2.67,0.74
		S86.77,231.71,85.99,231.21z M90.4,228.64c0.42-0.63,0.63-1.61,0.63-2.93c0-1.32-0.21-2.3-0.63-2.93s-1-0.95-1.73-0.95
		c-0.72,0-1.3,0.32-1.72,0.95c-0.42,0.63-0.63,1.61-0.63,2.93c0,1.32,0.21,2.3,0.63,2.93c0.42,0.63,0.99,0.95,1.72,0.95
		C89.4,229.59,89.98,229.28,90.4,228.64z"/>
	<path class="st0" d="M97.7,231.21c-0.78-0.49-1.39-1.21-1.84-2.15c-0.44-0.94-0.66-2.06-0.66-3.36c0-1.3,0.22-2.42,0.66-3.36
		c0.44-0.94,1.06-1.65,1.84-2.15c0.78-0.49,1.67-0.74,2.67-0.74s1.89,0.25,2.67,0.74c0.78,0.49,1.39,1.21,1.84,2.15
		c0.44,0.94,0.66,2.06,0.66,3.36c0,1.3-0.22,2.42-0.66,3.36c-0.44,0.94-1.06,1.65-1.84,2.15c-0.78,0.49-1.67,0.74-2.67,0.74
		S98.48,231.71,97.7,231.21z M102.11,228.64c0.42-0.63,0.63-1.61,0.63-2.93c0-1.32-0.21-2.3-0.63-2.93s-1-0.95-1.73-0.95
		c-0.72,0-1.3,0.32-1.72,0.95c-0.42,0.63-0.63,1.61-0.63,2.93c0,1.32,0.21,2.3,0.63,2.93c0.42,0.63,0.99,0.95,1.72,0.95
		C101.11,229.59,101.69,229.28,102.11,228.64z"/>
	<path class="st0" d="M109.41,231.21c-0.78-0.49-1.39-1.21-1.84-2.15c-0.44-0.94-0.66-2.06-0.66-3.36c0-1.3,0.22-2.42,0.66-3.36
		c0.44-0.94,1.06-1.65,1.84-2.15c0.78-0.49,1.67-0.74,2.67-0.74s1.89,0.25,2.67,0.74c0.78,0.49,1.39,1.21,1.84,2.15
		c0.44,0.94,0.66,2.06,0.66,3.36c0,1.3-0.22,2.42-0.66,3.36c-0.44,0.94-1.06,1.65-1.84,2.15c-0.78,0.49-1.67,0.74-2.67,0.74
		S110.2,231.71,109.41,231.21z M113.82,228.64c0.42-0.63,0.63-1.61,0.63-2.93c0-1.32-0.21-2.3-0.63-2.93s-1-0.95-1.73-0.95
		c-0.72,0-1.3,0.32-1.72,0.95c-0.42,0.63-0.63,1.61-0.63,2.93c0,1.32,0.21,2.3,0.63,2.93c0.42,0.63,0.99,0.95,1.72,0.95
		C112.82,229.59,113.4,229.28,113.82,228.64z"/>
</g>
<g>
	<path class="st0" d="M44.27,291.46h-1.97V294h-2.73v-2.54h-6.5v-1.88l5.69-7.66h2.93l-5.28,7.26h3.24v-2.26h2.64v2.26h1.97V291.46z
		"/>
	<path class="st0" d="M47.6,293.46c-0.78-0.49-1.39-1.21-1.84-2.15s-0.66-2.06-0.66-3.36c0-1.3,0.22-2.42,0.66-3.36
		s1.06-1.65,1.84-2.15c0.78-0.49,1.67-0.74,2.67-0.74s1.89,0.25,2.67,0.74c0.78,0.49,1.39,1.21,1.84,2.15s0.66,2.06,0.66,3.36
		c0,1.3-0.22,2.42-0.66,3.36s-1.06,1.65-1.84,2.15c-0.78,0.5-1.67,0.74-2.67,0.74S48.38,293.96,47.6,293.46z M52.01,290.89
		c0.42-0.63,0.63-1.61,0.63-2.93c0-1.32-0.21-2.3-0.63-2.93s-1-0.95-1.73-0.95c-0.72,0-1.3,0.32-1.72,0.95
		c-0.42,0.63-0.63,1.61-0.63,2.93c0,1.32,0.21,2.3,0.63,2.93c0.42,0.63,0.99,0.95,1.72,0.95C51.01,291.84,51.59,291.52,52.01,290.89
		z"/>
	<path class="st0" d="M59.32,293.46c-0.78-0.49-1.39-1.21-1.84-2.15s-0.66-2.06-0.66-3.36c0-1.3,0.22-2.42,0.66-3.36
		s1.06-1.65,1.84-2.15c0.78-0.49,1.67-0.74,2.67-0.74s1.89,0.25,2.67,0.74c0.78,0.49,1.39,1.21,1.84,2.15s0.66,2.06,0.66,3.36
		c0,1.3-0.22,2.42-0.66,3.36s-1.06,1.65-1.84,2.15c-0.78,0.5-1.67,0.74-2.67,0.74S60.1,293.96,59.32,293.46z M63.72,290.89
		c0.42-0.63,0.63-1.61,0.63-2.93c0-1.32-0.21-2.3-0.63-2.93s-1-0.95-1.73-0.95c-0.72,0-1.3,0.32-1.72,0.95
		c-0.42,0.63-0.63,1.61-0.63,2.93c0,1.32,0.21,2.3,0.63,2.93c0.42,0.63,0.99,0.95,1.72,0.95C62.73,291.84,63.3,291.52,63.72,290.89z
		"/>
	<path class="st0" d="M68.7,293.65c-0.32-0.32-0.48-0.72-0.48-1.21c0-0.49,0.16-0.89,0.48-1.2c0.32-0.3,0.72-0.46,1.19-0.46
		s0.87,0.15,1.19,0.46c0.32,0.31,0.48,0.71,0.48,1.2c0,0.48-0.16,0.89-0.48,1.21s-0.72,0.48-1.19,0.48S69.02,293.97,68.7,293.65z"/>
	<path class="st0" d="M75.1,293.46c-0.78-0.49-1.39-1.21-1.84-2.15s-0.66-2.06-0.66-3.36c0-1.3,0.22-2.42,0.66-3.36
		s1.06-1.65,1.84-2.15c0.78-0.49,1.67-0.74,2.67-0.74s1.89,0.25,2.67,0.74c0.78,0.49,1.39,1.21,1.84,2.15s0.66,2.06,0.66,3.36
		c0,1.3-0.22,2.42-0.66,3.36s-1.06,1.65-1.84,2.15c-0.78,0.5-1.67,0.74-2.67,0.74S75.88,293.96,75.1,293.46z M79.51,290.89
		c0.42-0.63,0.63-1.61,0.63-2.93c0-1.32-0.21-2.3-0.63-2.93s-1-0.95-1.73-0.95c-0.72,0-1.3,0.32-1.72,0.95
		c-0.42,0.63-0.63,1.61-0.63,2.93c0,1.32,0.21,2.3,0.63,2.93c0.42,0.63,0.99,0.95,1.72,0.95C78.51,291.84,79.09,291.52,79.51,290.89
		z"/>
	<path class="st0" d="M86.82,293.46c-0.78-0.49-1.39-1.21-1.84-2.15s-0.66-2.06-0.66-3.36c0-1.3,0.22-2.42,0.66-3.36
		s1.06-1.65,1.84-2.15c0.78-0.49,1.67-0.74,2.67-0.74s1.89,0.25,2.67,0.74c0.78,0.49,1.39,1.21,1.84,2.15s0.66,2.06,0.66,3.36
		c0,1.3-0.22,2.42-0.66,3.36s-1.06,1.65-1.84,2.15c-0.78,0.5-1.67,0.74-2.67,0.74S87.6,293.96,86.82,293.46z M91.22,290.89
		c0.42-0.63,0.63-1.61,0.63-2.93c0-1.32-0.21-2.3-0.63-2.93s-1-0.95-1.73-0.95c-0.72,0-1.3,0.32-1.72,0.95
		c-0.42,0.63-0.63,1.61-0.63,2.93c0,1.32,0.21,2.3,0.63,2.93c0.42,0.63,0.99,0.95,1.72,0.95C90.23,291.84,90.8,291.52,91.22,290.89z
		"/>
	<path class="st0" d="M98.53,293.46c-0.78-0.49-1.39-1.21-1.84-2.15s-0.66-2.06-0.66-3.36c0-1.3,0.22-2.42,0.66-3.36
		s1.06-1.65,1.84-2.15c0.78-0.49,1.67-0.74,2.67-0.74s1.89,0.25,2.67,0.74c0.78,0.49,1.39,1.21,1.84,2.15s0.66,2.06,0.66,3.36
		c0,1.3-0.22,2.42-0.66,3.36s-1.06,1.65-1.84,2.15c-0.78,0.5-1.67,0.74-2.67,0.74S99.31,293.96,98.53,293.46z M102.94,290.89
		c0.42-0.63,0.63-1.61,0.63-2.93c0-1.32-0.21-2.3-0.63-2.93s-1-0.95-1.73-0.95c-0.72,0-1.3,0.32-1.72,0.95
		c-0.42,0.63-0.63,1.61-0.63,2.93c0,1.32,0.21,2.3,0.63,2.93c0.42,0.63,0.99,0.95,1.72,0.95
		C101.94,291.84,102.52,291.52,102.94,290.89z"/>
</g>
<line class="st1" x1="32.54" y1="31.17" x2="773.86" y2="31.17"/>
<line class="st1" x1="32.54" y1="236.68" x2="773.86" y2="236.68"/>
<line class="st1" x1="32.54" y1="296.98" x2="403.2" y2="296.98"/>
<g>
	<path class="st0" d="M148.35,355.96v1.33h-5.32v-1.06l2.72-2.57c0.29-0.28,0.48-0.51,0.58-0.71c0.1-0.2,0.15-0.39,0.15-0.59
		c0-0.28-0.1-0.5-0.29-0.65c-0.19-0.15-0.47-0.23-0.84-0.23c-0.31,0-0.59,0.06-0.84,0.18c-0.25,0.12-0.46,0.29-0.62,0.53l-1.19-0.77
		c0.27-0.41,0.65-0.73,1.14-0.96c0.48-0.23,1.04-0.35,1.66-0.35c0.52,0,0.98,0.09,1.37,0.26c0.39,0.17,0.7,0.41,0.92,0.72
		c0.22,0.31,0.33,0.68,0.33,1.1c0,0.38-0.08,0.74-0.24,1.08s-0.47,0.72-0.94,1.15l-1.62,1.53H148.35z"/>
	<path class="st0" d="M150.46,356.98c-0.46-0.29-0.81-0.71-1.07-1.25s-0.39-1.2-0.39-1.96c0-0.76,0.13-1.41,0.39-1.96
		s0.62-0.96,1.07-1.25c0.46-0.29,0.98-0.43,1.56-0.43c0.58,0,1.1,0.14,1.56,0.43c0.46,0.29,0.81,0.71,1.07,1.25s0.39,1.2,0.39,1.96
		c0,0.76-0.13,1.41-0.39,1.96s-0.62,0.96-1.07,1.25s-0.98,0.43-1.56,0.43C151.44,357.41,150.92,357.27,150.46,356.98z
		 M153.03,355.48c0.24-0.37,0.37-0.94,0.37-1.71s-0.12-1.34-0.37-1.71c-0.25-0.37-0.58-0.55-1.01-0.55c-0.42,0-0.76,0.19-1,0.55
		c-0.25,0.37-0.37,0.94-0.37,1.71s0.12,1.34,0.37,1.71c0.24,0.37,0.58,0.55,1,0.55C152.45,356.03,152.79,355.85,153.03,355.48z"/>
	<path class="st0" d="M158.49,350.25v7.04h-1.63v-5.74h-1.41v-1.31H158.49z"/>
	<path class="st0" d="M165.34,354.27c0.18,0.28,0.28,0.61,0.28,0.98c0,0.44-0.12,0.82-0.37,1.14c-0.25,0.32-0.6,0.58-1.05,0.75
		s-0.97,0.27-1.56,0.27c-0.59,0-1.11-0.09-1.56-0.27s-0.79-0.43-1.04-0.75c-0.25-0.33-0.37-0.71-0.37-1.14
		c0-0.37,0.09-0.7,0.28-0.98s0.45-0.51,0.79-0.68c-0.26-0.16-0.46-0.37-0.6-0.61c-0.14-0.24-0.21-0.53-0.21-0.84
		c0-0.41,0.11-0.77,0.34-1.07c0.23-0.3,0.55-0.54,0.96-0.7c0.41-0.16,0.88-0.25,1.41-0.25c0.54,0,1.01,0.08,1.42,0.25
		c0.41,0.17,0.73,0.4,0.96,0.7c0.23,0.3,0.34,0.66,0.34,1.07c0,0.31-0.07,0.6-0.21,0.84c-0.14,0.24-0.35,0.45-0.61,0.61
		C164.89,353.76,165.15,353.99,165.34,354.27z M163.61,355.94c0.24-0.19,0.36-0.43,0.36-0.74s-0.12-0.55-0.36-0.73
		c-0.24-0.18-0.56-0.27-0.97-0.27c-0.4,0-0.72,0.09-0.96,0.27c-0.23,0.18-0.35,0.43-0.35,0.73c0,0.32,0.12,0.56,0.35,0.74
		c0.23,0.18,0.55,0.27,0.96,0.27C163.04,356.21,163.37,356.12,163.61,355.94z M161.85,351.56c-0.2,0.16-0.3,0.38-0.3,0.65
		c0,0.27,0.1,0.48,0.29,0.63c0.19,0.15,0.46,0.23,0.8,0.23c0.34,0,0.6-0.08,0.8-0.23c0.2-0.15,0.3-0.37,0.3-0.63
		c0-0.28-0.1-0.49-0.3-0.65c-0.2-0.16-0.47-0.24-0.8-0.24C162.31,351.32,162.04,351.4,161.85,351.56z"/>
</g>
<g>
	<path class="st0" d="M89.6,355.96v1.33h-5.32v-1.06l2.72-2.57c0.29-0.28,0.48-0.51,0.58-0.71c0.1-0.2,0.15-0.39,0.15-0.59
		c0-0.28-0.1-0.5-0.29-0.65c-0.19-0.15-0.47-0.23-0.84-0.23c-0.31,0-0.59,0.06-0.84,0.18c-0.25,0.12-0.46,0.29-0.62,0.53l-1.19-0.77
		c0.27-0.41,0.65-0.73,1.14-0.96c0.48-0.23,1.04-0.35,1.66-0.35c0.52,0,0.98,0.09,1.37,0.26c0.39,0.17,0.7,0.41,0.92,0.72
		c0.22,0.31,0.33,0.68,0.33,1.1c0,0.38-0.08,0.74-0.24,1.08s-0.47,0.72-0.94,1.15l-1.62,1.53H89.6z"/>
	<path class="st0" d="M91.72,356.98c-0.46-0.29-0.81-0.71-1.07-1.25s-0.39-1.2-0.39-1.96c0-0.76,0.13-1.41,0.39-1.96
		s0.62-0.96,1.07-1.25c0.46-0.29,0.98-0.43,1.56-0.43c0.58,0,1.1,0.14,1.56,0.43c0.46,0.29,0.81,0.71,1.07,1.25s0.39,1.2,0.39,1.96
		c0,0.76-0.13,1.41-0.39,1.96s-0.62,0.96-1.07,1.25s-0.98,0.43-1.56,0.43C92.69,357.41,92.17,357.27,91.72,356.98z M94.29,355.48
		c0.24-0.37,0.37-0.94,0.37-1.71s-0.12-1.34-0.37-1.71c-0.25-0.37-0.58-0.55-1.01-0.55c-0.42,0-0.76,0.19-1,0.55
		c-0.25,0.37-0.37,0.94-0.37,1.71s0.12,1.34,0.37,1.71c0.24,0.37,0.58,0.55,1,0.55C93.71,356.03,94.04,355.85,94.29,355.48z"/>
	<path class="st0" d="M99.75,350.25v7.04h-1.63v-5.74h-1.41v-1.31H99.75z"/>
	<path class="st0" d="M106.49,350.25v1.06l-2.62,5.99h-1.77l2.53-5.72h-2.33v1.15h-1.45v-2.48H106.49z"/>
</g>
<g>
	<path class="st0" d="M26.26,355.96v1.33h-5.32v-1.06l2.72-2.57c0.29-0.28,0.48-0.51,0.58-0.71c0.1-0.2,0.15-0.39,0.15-0.59
		c0-0.28-0.1-0.5-0.29-0.65c-0.19-0.15-0.47-0.23-0.84-0.23c-0.31,0-0.59,0.06-0.84,0.18c-0.25,0.12-0.46,0.29-0.62,0.53l-1.19-0.77
		c0.27-0.41,0.65-0.73,1.14-0.96c0.48-0.23,1.04-0.35,1.66-0.35c0.52,0,0.98,0.09,1.37,0.26c0.39,0.17,0.7,0.41,0.92,0.72
		c0.22,0.31,0.33,0.68,0.33,1.1c0,0.38-0.08,0.74-0.24,1.08s-0.47,0.72-0.94,1.15l-1.62,1.53H26.26z"/>
	<path class="st0" d="M28.38,356.98c-0.46-0.29-0.81-0.71-1.07-1.25s-0.39-1.2-0.39-1.96c0-0.76,0.13-1.41,0.39-1.96
		s0.62-0.96,1.07-1.25c0.46-0.29,0.98-0.43,1.56-0.43c0.58,0,1.1,0.14,1.56,0.43c0.46,0.29,0.81,0.71,1.07,1.25s0.39,1.2,0.39,1.96
		c0,0.76-0.13,1.41-0.39,1.96s-0.62,0.96-1.07,1.25s-0.98,0.43-1.56,0.43C29.35,357.41,28.83,357.27,28.38,356.98z M30.95,355.48
		c0.24-0.37,0.37-0.94,0.37-1.71s-0.12-1.34-0.37-1.71c-0.25-0.37-0.58-0.55-1.01-0.55c-0.42,0-0.76,0.19-1,0.55
		c-0.25,0.37-0.37,0.94-0.37,1.71s0.12,1.34,0.37,1.71c0.24,0.37,0.58,0.55,1,0.55C30.37,356.03,30.7,355.85,30.95,355.48z"/>
	<path class="st0" d="M36.41,350.25v7.04h-1.63v-5.74h-1.41v-1.31H36.41z"/>
	<path class="st0" d="M42.25,353.14c0.37,0.18,0.66,0.44,0.88,0.77c0.21,0.33,0.32,0.72,0.32,1.15c0,0.47-0.12,0.88-0.35,1.24
		s-0.56,0.63-0.96,0.82c-0.41,0.19-0.86,0.29-1.35,0.29c-0.99,0-1.76-0.3-2.31-0.91c-0.56-0.6-0.83-1.47-0.83-2.59
		c0-0.8,0.15-1.48,0.45-2.05c0.3-0.57,0.72-1,1.26-1.3s1.17-0.44,1.88-0.44c0.38,0,0.74,0.04,1.08,0.13s0.64,0.2,0.88,0.36l-0.6,1.2
		c-0.35-0.24-0.79-0.35-1.32-0.35c-0.6,0-1.07,0.18-1.42,0.52c-0.35,0.35-0.54,0.86-0.56,1.52c0.42-0.42,1-0.62,1.74-0.62
		C41.48,352.87,41.88,352.96,42.25,353.14z M41.54,355.91c0.22-0.19,0.33-0.44,0.33-0.77s-0.11-0.58-0.33-0.77
		c-0.22-0.19-0.51-0.29-0.87-0.29c-0.36,0-0.65,0.1-0.88,0.3c-0.23,0.2-0.34,0.45-0.34,0.76s0.11,0.56,0.33,0.76
		c0.22,0.19,0.52,0.29,0.91,0.29C41.04,356.19,41.33,356.1,41.54,355.91z"/>
</g>
<linearGradient id="SVGID_1_" gradientUnits="userSpaceOnUse" x1="373.3438" y1="245.9068" x2="372.7884" y2="333.9267">
	<stop  offset="0.3856" style="stop-color:#8BC054"/>
	<stop  offset="1" style="stop-color:#5BB13E"/>
</linearGradient>
<polygon class="st2" points="403.2,236.68 342.57,297.59 342.57,339.02 403.2,339.02 "/>
<polygon class="st0" points="32.54,339.02 151.9,335.36 278.61,318.3 342.57,297.59 342.57,339.02 "/>
<g>
	<g>
		<defs>
			<path id="SVGID_00000115498375734516981280000014418765317942711185_" d="M761.42,236.56H417.9c-7.49,0-13.57-6.08-13.57-13.57
				V44.62c0-7.49,6.08-13.57,13.57-13.57h343.52c7.49,0,13.57,6.08,13.57,13.57v178.37C774.99,230.48,768.91,236.56,761.42,236.56z"
				/>
		</defs>
		<clipPath id="SVGID_00000039106426424775971930000005139732284723105699_">
			<use xlink:href="#SVGID_00000115498375734516981280000014418765317942711185_"  style="overflow:visible;"/>
		</clipPath>
		<g style="clip-path:url(#SVGID_00000039106426424775971930000005139732284723105699_);">
			<g>
				<line class="st0" x1="487.77" y1="-24.04" x2="203.9" y2="259.83"/>
				
					<rect x="145.1" y="116.1" transform="matrix(0.7071 -0.7071 0.7071 0.7071 17.9293 279.0697)" class="st0" width="401.45" height="3.59"/>
			</g>
			<g>
				<line class="st0" x1="509.33" y1="-24.04" x2="225.46" y2="259.83"/>
				
					<rect x="166.67" y="116.1" transform="matrix(0.7071 -0.7071 0.7071 0.7071 24.2453 294.3181)" class="st0" width="401.45" height="3.59"/>
			</g>
			<g>
				<line class="st0" x1="530.9" y1="-24.04" x2="247.03" y2="259.83"/>
				
					<rect x="188.23" y="116.1" transform="matrix(0.7071 -0.7071 0.7071 0.7071 30.5614 309.5664)" class="st0" width="401.45" height="3.59"/>
			</g>
			<g>
				<line class="st0" x1="552.46" y1="-24.04" x2="268.59" y2="259.83"/>
				
					<rect x="209.8" y="116.1" transform="matrix(0.7071 -0.7071 0.7071 0.7071 36.8775 324.8147)" class="st0" width="401.45" height="3.59"/>
			</g>
			<g>
				<line class="st0" x1="574.02" y1="-24.04" x2="290.15" y2="259.83"/>
				
					<rect x="231.36" y="116.1" transform="matrix(0.7071 -0.7071 0.7071 0.7071 43.1935 340.0631)" class="st0" width="401.45" height="3.59"/>
			</g>
			<g>
				<line class="st0" x1="595.59" y1="-24.04" x2="311.72" y2="259.83"/>
				
					<rect x="252.93" y="116.1" transform="matrix(0.7071 -0.7071 0.7071 0.7071 49.5096 355.3114)" class="st0" width="401.45" height="3.59"/>
			</g>
			<g>
				<line class="st0" x1="617.15" y1="-24.04" x2="333.28" y2="259.83"/>
				
					<rect x="274.49" y="116.1" transform="matrix(0.7071 -0.7071 0.7071 0.7071 55.8257 370.5597)" class="st0" width="401.45" height="3.59"/>
			</g>
			<g>
				<line class="st0" x1="638.72" y1="-24.04" x2="354.85" y2="259.83"/>
				
					<rect x="296.06" y="116.1" transform="matrix(0.7071 -0.7071 0.7071 0.7071 62.1417 385.8081)" class="st0" width="401.45" height="3.59"/>
			</g>
			<g>
				<line class="st0" x1="660.28" y1="-24.04" x2="376.41" y2="259.83"/>
				
					<rect x="317.62" y="116.1" transform="matrix(0.7071 -0.7071 0.7071 0.7071 68.4578 401.0564)" class="st0" width="401.45" height="3.59"/>
			</g>
			<g>
				<line class="st0" x1="681.85" y1="-24.04" x2="397.98" y2="259.83"/>
				
					<rect x="339.18" y="116.1" transform="matrix(0.7071 -0.7071 0.7071 0.7071 74.7738 416.3047)" class="st0" width="401.45" height="3.59"/>
			</g>
			<g>
				<line class="st0" x1="703.41" y1="-24.04" x2="419.54" y2="259.83"/>
				
					<rect x="360.75" y="116.1" transform="matrix(0.7071 -0.7071 0.7071 0.7071 81.0899 431.5531)" class="st0" width="401.45" height="3.59"/>
			</g>
			<g>
				<line class="st0" x1="724.98" y1="-24.04" x2="441.1" y2="259.83"/>
				
					<rect x="382.31" y="116.1" transform="matrix(0.7071 -0.7071 0.7071 0.7071 87.406 446.8014)" class="st0" width="401.45" height="3.59"/>
			</g>
			<g>
				<line class="st0" x1="746.54" y1="-24.04" x2="462.67" y2="259.83"/>
				
					<rect x="403.88" y="116.1" transform="matrix(0.7071 -0.7071 0.7071 0.7071 93.722 462.0497)" class="st0" width="401.45" height="3.59"/>
			</g>
			<g>
				<line class="st0" x1="768.1" y1="-24.04" x2="484.23" y2="259.83"/>
				
					<rect x="425.44" y="116.1" transform="matrix(0.7071 -0.7071 0.7071 0.7071 100.0381 477.2981)" class="st0" width="401.45" height="3.59"/>
			</g>
			<g>
				<line class="st0" x1="789.67" y1="-24.04" x2="505.8" y2="259.83"/>
				
					<rect x="447.01" y="116.1" transform="matrix(0.7071 -0.7071 0.7071 0.7071 106.3542 492.5464)" class="st0" width="401.45" height="3.59"/>
			</g>
			<g>
				<line class="st0" x1="811.23" y1="-24.04" x2="527.36" y2="259.83"/>
				
					<rect x="468.57" y="116.1" transform="matrix(0.7071 -0.7071 0.7071 0.7071 112.6702 507.7947)" class="st0" width="401.45" height="3.59"/>
			</g>
			<g>
				<line class="st0" x1="832.8" y1="-24.04" x2="548.93" y2="259.83"/>
				
					<rect x="490.14" y="116.1" transform="matrix(0.7071 -0.7071 0.7071 0.7071 118.9863 523.043)" class="st0" width="401.45" height="3.59"/>
			</g>
			<g>
				<line class="st0" x1="854.36" y1="-24.04" x2="570.49" y2="259.83"/>
				
					<rect x="511.7" y="116.1" transform="matrix(0.7071 -0.7071 0.7071 0.7071 125.3024 538.2914)" class="st0" width="401.45" height="3.59"/>
			</g>
			<g>
				<line class="st0" x1="875.93" y1="-24.04" x2="592.06" y2="259.83"/>
				
					<rect x="533.26" y="116.1" transform="matrix(0.7071 -0.7071 0.7071 0.7071 131.6184 553.5397)" class="st0" width="401.45" height="3.59"/>
			</g>
			<g>
				<line class="st0" x1="897.49" y1="-24.04" x2="613.62" y2="259.83"/>
				
					<rect x="554.83" y="116.1" transform="matrix(0.7071 -0.7071 0.7071 0.7071 137.9345 568.788)" class="st0" width="401.45" height="3.59"/>
			</g>
			<g>
				<line class="st0" x1="919.05" y1="-24.04" x2="635.18" y2="259.83"/>
				
					<rect x="576.39" y="116.1" transform="matrix(0.7071 -0.7071 0.7071 0.7071 144.2506 584.0364)" class="st0" width="401.45" height="3.59"/>
			</g>
			<g>
				<line class="st0" x1="940.62" y1="-24.04" x2="656.75" y2="259.83"/>
				
					<rect x="597.96" y="116.1" transform="matrix(0.7071 -0.7071 0.7071 0.7071 150.5666 599.2847)" class="st0" width="401.45" height="3.59"/>
			</g>
			<g>
				<line class="st0" x1="962.18" y1="-24.04" x2="678.31" y2="259.83"/>
				
					<rect x="619.52" y="116.1" transform="matrix(0.7071 -0.7071 0.7071 0.7071 156.8827 614.533)" class="st0" width="401.45" height="3.59"/>
			</g>
			<g>
				<line class="st0" x1="983.75" y1="-24.04" x2="699.88" y2="259.83"/>
				
					<rect x="641.09" y="116.1" transform="matrix(0.7071 -0.7071 0.7071 0.7071 163.1988 629.7814)" class="st0" width="401.45" height="3.59"/>
			</g>
			<g>
				<line class="st0" x1="1005.31" y1="-24.04" x2="721.44" y2="259.83"/>
				
					<rect x="662.65" y="116.1" transform="matrix(0.7071 -0.7071 0.7071 0.7071 169.5148 645.0297)" class="st0" width="401.45" height="3.59"/>
			</g>
		</g>
	</g>
	<g class="st4">
		<path class="st0" d="M761.42,236.56H417.9c-7.49,0-13.57-6.08-13.57-13.57V44.62c0-7.49,6.08-13.57,13.57-13.57h343.52
			c7.49,0,13.57,6.08,13.57,13.57v178.37C774.99,230.48,768.91,236.56,761.42,236.56z"/>
	</g>
</g>
</svg>
