<?xml version="1.0" encoding="utf-8"?>
<!-- Generator: Adobe Illustrator 26.1.0, SVG Export Plug-In . SVG Version: 6.00 Build 0)  -->
<svg version="1.1" id="Layer_1" xmlns="http://www.w3.org/2000/svg" xmlns:xlink="http://www.w3.org/1999/xlink" x="0px" y="0px"
	 viewBox="0 0 272.22 209.2" style="enable-background:new 0 0 272.22 209.2;" xml:space="preserve">
<style type="text/css">
	.st0{fill:#FFFFFF;}
</style>
<g>
	<path class="st0" d="M76.22,198.76c-4.34,3.52-9.14,4.52-14.37,3.04c-5.87-1.66-9.58-6.63-9.59-12.77
		c-0.03-12.31-0.01-24.62-0.01-36.94c0-0.9,0-1.8,0-2.41c-2.91-0.28-5.69-0.16-8.24-0.87c-4.75-1.33-7.7-5.56-7.72-10.47
		c-0.04-14.14-0.07-28.28,0.01-42.43c0.05-8.35,6.11-16.05,14.3-18.41c2.94-0.85,5.9-1.57,9.2-2.45c-6.1-6.86-8.73-14.63-5.87-23.44
		c2.84-8.75,9.12-14.04,18.28-16.28c0-3.75,0-7.56,0-11.38c0-7.78,5.01-12.83,12.74-12.83c20.72,0,41.43,0,62.15,0
		c0.9,0,1.8,0,2.84,0c0.47-3.26-0.94-7.9,4.21-7.85c4.96,0.05,3.72,4.49,4,7.85c1.02,0,1.91,0,2.8,0c20.63,0,41.27,0,61.9,0
		c8.25,0,13.1,4.89,13.1,13.22c0,14.23,0,28.45,0,42.68c0,0.42,0.01,0.83,0,1.25c-0.04,2.96-1.51,4.72-3.96,4.74
		c-2.45,0.02-4.01-1.74-4.02-4.67c-0.02-7.57-0.01-15.14-0.01-22.71c0-6.82,0-13.64,0-20.46c0-4.93-1.1-6.05-5.95-6.05
		c-39.94,0-79.87,0-119.81,0c-5.66,0-11.32-0.01-16.97,0.01c-3.57,0.01-5.01,1.43-5.03,4.96c-0.02,3.73-0.01,7.47-0.01,11.15
		c16.72,4,24.88,21.87,14.93,36.92c4.9-2.27,9.38-4.33,13.85-6.41c5.19-2.42,10.38-4.85,15.54-7.31c6.42-3.07,13.09-0.78,16.15,5.59
		c3.12,6.5,0.71,13.14-5.91,16.22c-10.83,5.04-21.65,10.12-32.53,15.07c-1.62,0.74-2.14,1.6-2.12,3.34
		c0.1,7.31,0.04,14.62,0.04,22.29c1.01,0,1.88,0,2.76,0c39.77,0,79.54,0,119.31,0c4.53,0,5.72-1.21,5.72-5.78
		c0-4.49-0.02-8.98,0.01-13.48c0.02-2.94,1.54-4.7,3.99-4.7c2.45,0,3.97,1.76,3.98,4.71c0.02,5.07,0.03,10.15,0,15.22
		c-0.04,6.72-5.32,11.99-12.07,12c-22.63,0.02-45.26,0.01-67.89,0.01c-1,0-1.99,0-3.23,0c-0.06,0.78-0.15,1.49-0.15,2.2
		c-0.01,10.4-0.05,20.8,0.06,31.19c0.01,1.13,0.66,2.58,1.51,3.33c10.97,9.69,22.02,19.29,33.06,28.91
		c0.31,0.27,0.65,0.53,0.95,0.81c2.14,1.97,2.42,4.31,0.75,6.13c-1.59,1.74-3.89,1.75-5.99-0.05c-3.97-3.42-7.91-6.87-11.86-10.32
		c-5.58-4.87-11.15-9.74-16.73-14.6c-0.42-0.37-0.89-0.68-1.75-1.33c0,3.84,0.01,7.28,0,10.72c-0.02,3.17-1.46,4.92-4.01,4.91
		c-2.54-0.02-3.96-1.77-3.97-4.96c-0.02-3.39,0-6.77,0-10.72c-2.43,2.08-4.48,3.82-6.51,5.58c-7.85,6.82-15.68,13.66-23.52,20.48
		c-2.16,1.88-4.07,2.09-5.81,0.7c-2.2-1.75-2.07-4.41,0.42-6.59c7.63-6.69,15.3-13.34,22.94-20.01c3.76-3.28,7.54-6.54,11.25-9.88
		c0.6-0.54,1.18-1.47,1.18-2.23c0.08-11.3,0.05-22.61,0.05-34.09c-14.8,0-29.47,0-44.43,0c0,3.65,0.01,7.28,0,10.91
		c-0.02,3.12-1.55,4.93-4.07,4.87c-2.43-0.05-3.9-1.81-3.9-4.79c-0.01-15.31,0.03-30.61-0.04-45.92c-0.01-2.54,1.37-3.69,3.39-4.63
		c11.97-5.55,23.93-11.12,35.87-16.73c2.73-1.28,3.31-3.5,1.71-5.89c-1.26-1.88-2.86-2.23-4.95-1.25
		c-10.44,4.9-20.92,9.73-31.38,14.59c-0.08,0.03-0.15,0.07-0.22,0.11c-3.89,2.41-7.91,2.84-12.54,2.17
		c-10.64-1.56-21.21-0.65-31.47,2.87c-4.75,1.63-8.19,5.54-8.23,10.45c-0.14,13.97-0.08,27.95-0.04,41.93
		c0.01,2.49,1.48,3.74,4,3.72c2.6-0.02,3.93-1.31,3.94-4.05c0.03-11.73,0-23.46,0.04-35.19c0-1.12,0.02-2.64,0.69-3.27
		c1.03-0.96,2.8-2.02,3.94-1.74c1.28,0.32,2.35,1.98,3.23,3.25c0.39,0.57,0.1,1.62,0.1,2.45c0,28.28,0,56.57,0,84.85
		c0,4.14,1.72,6.26,5.23,6.53c4.34,0.34,6.73-1.85,6.74-6.27c0.02-16.3,0-32.61,0.03-48.91c0-1.12,0.01-2.65,0.68-3.28
		c1.02-0.97,2.8-2.02,3.94-1.74c1.28,0.31,2.33,1.97,3.25,3.21c0.36,0.49,0.09,1.45,0.1,2.2c0,16.22-0.01,32.44,0.01,48.66
		c0.01,4.18,2.26,6.31,6.38,6.15c3.45-0.13,5.53-2.18,5.57-5.7c0.06-4.99,0.01-9.98,0.03-14.97c0.01-3.1,1.58-4.91,4.11-4.83
		c2.43,0.07,3.86,1.83,3.87,4.82c0.02,4.82-0.04,9.65,0.02,14.47c0.07,5.54-1.95,9.98-6.97,12.55c-5.19,2.66-10.41,2.4-15.39-0.79
		C77.34,199.6,76.88,199.24,76.22,198.76z M76.23,73.58c8.33,0.03,15.28-6.79,15.36-15.08c0.08-8.27-7.08-15.44-15.41-15.43
		c-8.21,0.01-15.36,7-15.34,15.23C60.87,67.69,69.15,74.16,76.23,73.58z"/>
	<path class="st0" d="M154.34,35.08c12.05,0,24.11,0,36.16,0c0.66,0,1.35-0.08,1.99,0.04c2.15,0.39,3.45,1.69,3.49,3.89
		c0.04,2.21-1.25,3.54-3.37,3.99c-0.72,0.15-1.49,0.06-2.24,0.06c-24.19,0-48.39,0-72.58,0c-0.42,0-0.83,0.01-1.25,0
		c-2.7-0.09-4.42-1.69-4.38-4.06c0.04-2.28,1.7-3.82,4.27-3.92c0.58-0.02,1.16-0.01,1.75-0.01
		C130.23,35.08,142.29,35.08,154.34,35.08z"/>
	<path class="st0" d="M177.31,83c9.65,0,19.29,0,28.94,0c0.58,0,1.17-0.03,1.75,0.01c2.37,0.16,3.97,1.75,4,3.94
		c0.03,2.19-1.57,3.89-3.91,4.01c-1.66,0.09-3.32,0.02-4.99,0.02c-18.21,0-36.42,0-54.63,0c-0.5,0-1,0-1.5,0
		c-3.13-0.03-4.9-1.52-4.85-4.08c0.05-2.46,1.77-3.9,4.76-3.9c7.48-0.02,14.97-0.01,22.45-0.01C171.99,83,174.65,83,177.31,83z"/>
	<path class="st0" d="M179.03,51.05c9.32,0,18.63-0.01,27.95,0c3.19,0,4.97,1.42,5.01,3.93c0.04,2.53-1.76,4.05-4.9,4.05
		c-18.88,0.01-37.76,0.01-56.64,0c-3.16,0-4.89-1.48-4.85-4.06c0.04-2.55,1.76-3.92,4.99-3.92
		C160.07,51.05,169.55,51.05,179.03,51.05z"/>
	<path class="st0" d="M181.3,67.02c8.57,0,17.14-0.01,25.71,0c3.18,0,4.97,1.44,4.99,3.96c0.02,2.52-1.78,4.02-4.93,4.02
		c-17.39,0.01-34.77,0.01-52.16,0c-3.16,0-4.88-1.49-4.82-4.09c0.05-2.48,1.74-3.89,4.76-3.89
		C163.66,67.01,172.48,67.02,181.3,67.02z"/>
	<path class="st0" d="M235.95,84.96c0.02,2.16-1.71,3.96-3.88,4.02c-2.26,0.06-4.13-1.8-4.09-4.06c0.04-2.18,1.81-3.89,4.01-3.89
		C234.18,81.04,235.92,82.76,235.95,84.96z"/>
	<path class="st0" d="M100.16,156.86c0.01,2.16-1.74,3.95-3.91,4c-2.26,0.05-4.12-1.83-4.06-4.09c0.06-2.18,1.84-3.89,4.03-3.86
		C98.42,152.93,100.16,154.68,100.16,156.86z"/>
</g>
</svg>
