<?xml version="1.0" encoding="utf-8"?>
<!-- Generator: Adobe Illustrator 26.1.0, SVG Export Plug-In . SVG Version: 6.00 Build 0)  -->
<svg version="1.1" id="Layer_1" xmlns="http://www.w3.org/2000/svg" xmlns:xlink="http://www.w3.org/1999/xlink" x="0px" y="0px"
	 viewBox="0 0 272.22 209.2" style="enable-background:new 0 0 272.22 209.2;" xml:space="preserve">
<style type="text/css">
	.st0{fill:#FFFFFF;}
</style>
<g>
	<path class="st0" d="M138.11,202.57c-39.27,0-78.55,0-117.82,0c-5.27,0-9.04-2.1-9.62-6.47c-0.72-5.41-1.49-10.92,1.33-16.27
		c5.96-11.3,11.66-22.75,17.34-34.2c0.81-1.63,1.27-3.6,1.27-5.42c0.07-41.67,0.05-83.34,0.05-125.01c0-6.64,2.55-9.2,9.18-9.2
		c65.48,0,130.97,0,196.45,0c6.47,0,9.09,2.61,9.1,9.03c0,41.84-0.01,83.67,0.05,125.51c0,1.66,0.45,3.46,1.19,4.95
		c5.85,11.74,11.88,23.38,17.7,35.14c0.91,1.84,1.23,4.06,1.46,6.14c0.24,2.22,0.08,4.49,0.05,6.73c-0.06,5.21-3.45,8.75-8.66,9.05
		c-0.83,0.05-1.66,0.02-2.5,0.02C215.83,202.57,176.97,202.57,138.11,202.57z M38.29,140.12c66.61,0,133.02,0,199.39,0
		c0-42.28,0-84.38,0-126.46c-66.56,0-132.92,0-199.39,0C38.29,55.84,38.29,97.88,38.29,140.12z M173.69,180.43
		c27.4,0,54.68,0,82.18,0c-5.39-10.61-10.61-20.98-15.97-31.28c-0.38-0.73-1.82-1.27-2.78-1.27c-66.06-0.06-132.12-0.05-198.18-0.09
		c-1.65,0-2.5,0.48-3.24,1.96c-4.65,9.36-9.41,18.67-14.13,28c-0.44,0.86-0.84,1.74-1.33,2.77c27.5,0,54.75,0,82.1,0
		c1.26-4.55,2.49-9.01,3.73-13.47c1.31-4.74,3.5-6.49,8.38-6.5c15.72-0.03,31.45-0.03,47.17,0c4.88,0.01,7.07,1.76,8.38,6.49
		C171.23,171.51,172.46,175.97,173.69,180.43z M258.23,188.32c-80.25,0-160.33,0-240.45,0c-0.03,0.67-0.07,1.17-0.07,1.66
		c0.02,5.45-0.6,5.08,5.11,5.08c76.47,0,152.95,0.01,229.42-0.02C258.76,195.03,258.58,196.51,258.23,188.32z M165.89,180.59
		c-1.06-3.91-2.02-7.67-3.16-11.38c-0.16-0.52-1.2-1.08-1.83-1.09c-15.22-0.06-30.44-0.06-45.66-0.01c-0.62,0-1.66,0.38-1.78,0.8
		c-1.17,3.82-2.19,7.69-3.29,11.68C128.84,180.59,147.13,180.59,165.89,180.59z"/>
	<path class="st0" d="M53.64,29.17c0,8.99,0,17.79,0,26.6c0,3.49,0.03,6.99-0.01,10.48c-0.04,2.71-1.51,4.44-3.7,4.48
		c-2.22,0.04-3.77-1.66-3.77-4.35c-0.02-12.81-0.04-25.61,0.01-38.42c0.01-3.79,2.12-6.02,5.88-6.44c0.82-0.09,1.66-0.04,2.49-0.04
		c55.66,0,111.31,0,166.97,0c6.55,0,8.41,1.87,8.41,8.47c0,11.73,0,23.45,0,35.18c0,0.75,0.04,1.5-0.05,2.24
		c-0.25,2.03-1.56,3.18-3.48,3.3c-1.95,0.12-3.33-0.99-3.81-2.92c-0.21-0.87-0.16-1.82-0.16-2.73c-0.01-11.89-0.01-23.77-0.01-35.84
		C166.17,29.17,110.08,29.17,53.64,29.17z"/>
	<path class="st0" d="M53.64,124.73c56.37,0,112.41,0,168.77,0c0-0.98,0-1.86,0-2.75c0-11.14-0.01-22.29,0.01-33.43
		c0-0.9,0-1.86,0.27-2.7c0.58-1.78,1.88-2.71,3.8-2.54c1.92,0.16,2.98,1.32,3.35,3.14c0.13,0.64,0.07,1.33,0.07,1.99
		c0,12.22,0.01,24.45,0,36.67c0,5.12-2.1,7.24-7.28,7.24c-56.41,0.01-112.81,0.01-169.22,0c-5.17,0-7.26-2.12-7.27-7.26
		c-0.01-12.39-0.01-24.78,0-37.17c0-3,1.31-4.61,3.67-4.63c2.36-0.02,3.8,1.62,3.81,4.54c0.03,9.9,0.01,19.79,0.01,29.69
		C53.64,119.82,53.64,122.14,53.64,124.73z"/>
</g>
</svg>
