<?xml version="1.0" encoding="utf-8"?>
<!-- Generator: Adobe Illustrator 26.1.0, SVG Export Plug-In . SVG Version: 6.00 Build 0)  -->
<svg version="1.1" id="Layer_1" xmlns="http://www.w3.org/2000/svg" xmlns:xlink="http://www.w3.org/1999/xlink" x="0px" y="0px"
	 viewBox="0 0 272.22 209.2" style="enable-background:new 0 0 272.22 209.2;" xml:space="preserve">
<style type="text/css">
	.st0{fill:#FFFFFF;}
</style>
<path class="st0" d="M82.77,144.42c3.72-1.15,7.19-2.5,10.78-3.27c8.94-1.91,17.54-0.68,25.84,3.2c3.39,1.58,6.91,3.02,10.52,3.95
	c2.65,0.68,5.53,0.46,8.32,0.56c5.14,0.18,10.28,0.43,15.42,0.4c8.2-0.05,14.43,3.3,18.8,10.42c0.58-0.24,1.19-0.46,1.77-0.74
	c7.71-3.64,15.4-7.33,23.14-10.91c7.05-3.25,15.27-0.95,19.59,5.34c1.84,2.68,1.54,4.2-1.22,5.99
	c-16.83,10.89-33.73,21.67-50.47,32.69c-10.47,6.89-21.6,8.3-33.5,4.99c-11.48-3.19-22.97-6.39-34.42-9.67
	c-3.73-1.07-7.19-0.86-10.51,1.2c-0.79,0.49-1.61,0.95-2.46,1.29c-1.91,0.76-3.11,1.78-3,4.18c0.08,1.94-1.32,2.98-3.32,2.94
	c-7.99-0.16-15.98-0.34-23.96-0.58c-2.67-0.08-3.75-1.33-3.68-4.05c0.48-17.64,0.97-35.29,1.47-52.93c0.07-2.48,1.26-3.62,3.73-3.57
	c7.74,0.16,15.48,0.35,23.22,0.56c3.16,0.09,4.23,1.28,4.1,4.38C82.88,142.03,82.82,143.26,82.77,144.42z M81.88,183.79
	c0.17,0.02,0.31,0.09,0.4,0.05c0.56-0.26,1.13-0.51,1.66-0.82c4.69-2.77,9.63-3.25,14.83-1.74c5.99,1.73,11.99,3.43,18.01,5.06
	c7.45,2.02,14.83,4.4,22.4,5.78c6.93,1.27,13.93,0.17,20.02-3.69c15.19-9.65,30.25-19.51,45.36-29.28c1.9-1.23,3.78-2.47,5.69-3.72
	c-2.18-2.56-6.98-3.36-10.77-1.53c-7.62,3.69-15.27,7.31-22.96,10.85c-1.52,0.7-2.12,1.33-1.78,3.13c0.56,2.92-0.45,5.14-4.53,4.92
	c-5.44-0.3-10.89-0.3-16.34-0.44c-6.25-0.17-12.51-0.3-18.75-0.62c-1.09-0.05-2.45-0.7-3.1-1.53c-0.52-0.67-0.44-2.15-0.09-3.07
	c0.55-1.47,2.02-1.6,3.46-1.56c10.21,0.29,20.43,0.56,30.64,0.83c0.7,0.02,1.4,0,2.14,0c-1.39-6.24-6.55-10.58-12.58-10.78
	c-4.58-0.15-9.16-0.24-13.74-0.39c-3.9-0.13-7.8-0.18-11.69-0.49c-5.04-0.39-9.4-2.78-13.91-4.85c-10.85-5-21.57-4.45-32.03,1.35
	c-1.16,0.64-1.65,1.38-1.68,2.74c-0.17,8.6-0.44,17.21-0.66,25.81C81.85,181.12,81.88,182.46,81.88,183.79z M75.27,190.32
	c0.43-15.82,0.87-31.67,1.31-47.82c-6.25,0-12.28,0-18.49,0c-0.44,15.8-0.87,31.65-1.32,47.82C62.97,190.32,69,190.32,75.27,190.32z
	"/>
<path class="st0" d="M136.13,140.5c-25.09-0.07-45.36-20.44-45.22-45.44c0.14-24.93,20.54-45.11,45.5-45
	c25,0.11,45.22,20.43,45.12,45.36C181.44,120.38,161.1,140.58,136.13,140.5z M136.24,134.27c21.52-0.02,38.99-17.48,39-38.96
	c0.01-21.51-17.39-38.94-38.94-38.98c-21.59-0.05-39.12,17.45-39.1,39.03C97.21,116.82,114.74,134.29,136.24,134.27z"/>
<path class="st0" d="M139.32,26.32c0,4.88,0.04,9.77-0.02,14.65c-0.03,2.53-2.06,4.01-4.2,3.17c-1.45-0.57-1.99-1.75-1.99-3.24
	c0-3.34,0-6.68,0-10.02c0-6.24,0.01-12.49,0-18.73c-0.01-1.73,0.57-3.04,2.32-3.56c2.01-0.6,3.84,0.9,3.87,3.26
	C139.36,16.67,139.31,21.49,139.32,26.32z"/>
<path class="st0" d="M115.91,34.31c0,2.16,0.03,4.32-0.01,6.49c-0.04,2.22-1.29,3.6-3.14,3.57c-1.79-0.03-3.02-1.36-3.04-3.47
	c-0.04-4.45-0.04-8.89,0-13.34c0.02-2.15,1.21-3.43,3.04-3.46c1.9-0.03,3.1,1.29,3.14,3.55C115.94,29.87,115.91,32.09,115.91,34.31z
	"/>
<path class="st0" d="M162.73,34.12c0,2.29,0.04,4.57-0.01,6.86c-0.05,2.07-1.33,3.42-3.12,3.39c-1.73-0.03-3.01-1.3-3.04-3.28
	c-0.06-4.57-0.06-9.14,0-13.71c0.03-2.01,1.28-3.25,3.03-3.28c1.84-0.03,3.08,1.25,3.14,3.36C162.77,29.68,162.73,31.9,162.73,34.12
	z"/>
<path class="st0" d="M129.16,84.85c0.01,3.6,2.57,6.41,6.18,6.98c2.24,0.35,4.62,0.55,6.63,1.48c5.07,2.36,7.66,6.65,7.55,12.19
	c-0.11,5.46-2.78,9.64-7.86,11.8c-2.05,0.87-3.11,1.7-2.81,4.03c0.19,1.44-0.77,2.64-2.18,2.78c-1.02,0.1-2.38-0.25-3.11-0.92
	c-0.64-0.59-0.87-1.92-0.81-2.89c0.1-1.62-0.49-2.32-1.97-2.97c-4.77-2.09-7.29-5.95-7.89-11.06c-0.27-2.26,0.89-3.92,2.75-4.13
	c1.95-0.23,3.3,1.16,3.52,3.61c0.33,3.79,3.22,6.44,7.04,6.48c3.68,0.03,6.7-2.66,7.06-6.28c0.37-3.68-2.11-6.95-5.84-7.62
	c-1.52-0.27-3.09-0.27-4.58-0.65c-5.63-1.44-9.58-6.26-9.97-12.01c-0.38-5.57,2.94-10.97,8.22-13.1c1.24-0.5,1.78-1.09,1.62-2.4
	c-0.07-0.6,0-1.24,0.11-1.85c0.31-1.64,1.45-2.41,3.02-2.49c1.51-0.08,3.12,1.2,2.95,2.71c-0.29,2.63,1.04,3.42,3.18,4.37
	c4.67,2.08,7.05,6.04,7.56,11.09c0.22,2.2-1.07,3.86-2.96,3.97c-1.81,0.11-3.12-1.26-3.31-3.46c-0.34-3.98-3.44-6.87-7.24-6.75
	C132.17,77.89,129.15,81,129.16,84.85z"/>
</svg>
