<?xml version="1.0" encoding="utf-8"?>
<!-- Generator: Adobe Illustrator 24.0.1, SVG Export Plug-In . SVG Version: 6.00 Build 0)  -->
<svg version="1.1" id="Layer_1" xmlns="http://www.w3.org/2000/svg" xmlns:xlink="http://www.w3.org/1999/xlink" x="0px" y="0px"
	 viewBox="0 0 291.2 288.6" style="enable-background:new 0 0 291.2 288.6;" xml:space="preserve">
<style type="text/css">
	.st0{fill:#FFFFFF;stroke:#00DD87;stroke-width:1.3445;stroke-miterlimit:10;}
	.st1{fill:#00DD87;stroke:#02C470;stroke-width:1.3445;stroke-miterlimit:10;}
	.st2{fill:#00DD87;stroke:#02C470;stroke-miterlimit:10;}
	.st3{fill:#00DD87;stroke:#02C470;stroke-width:0.8999;stroke-miterlimit:10;}
</style>
<g>
	<path class="st0" d="M167.3,48.7c-0.1,0.1-0.1,0.2-0.1,0.3s0.1,0.1,0.2,0.2c0.4,0.3,0.9,0.3,1.3,0.1c0.3-0.2,0.6-0.5,0.9-0.7
		c0.5-0.2,1-0.1,1.4-0.4c0.2-0.2,0.3-0.5,0.4-0.7c0.1-0.5,0.2-1.1-0.2-1.3c-0.9-0.6-1.5,0.4-2.2,0.9
		C168.6,47.7,167.7,47.9,167.3,48.7z"/>
	<path class="st0" d="M174.7,42.7c0.1,0.1,0.3,0.2,0.5,0.3c0.7,0.1,1.5-0.5,2.2-0.3c0.3,0.1,0.6,0.3,0.9,0.3c0.2,0,0.4-0.1,0.6-0.2
		c0.3-0.2,0.7-0.3,1.1-0.5c0.3-0.1,0.5-0.3,0.7-0.5s0.3-0.5,0.2-0.8s-0.3-0.4-0.6-0.4s-0.5,0.1-0.8,0.1c-2,0.9,0-2.4-2-1.5
		C176.8,39.6,174.1,41.7,174.7,42.7z"/>
	<path class="st0" d="M58.8,114.8c-2.4,1.4-4.8,2.9-7.3,4.3c-1.1,0.7-2.2,1.3-3.2,2.3c-0.7,0.7-1.1,1.4-1.8,2.1s-2.4,2.5-5.7,2
		c-0.6-0.1-0.9-0.9-0.8-1.5c0.1-0.8,1-1.4,1.1-2.3c-2.1-1.4-4.8,0.5-7.4,0.2c-0.2,0-0.4-0.1-0.5-0.2c-0.4-0.3,0-1.1-0.2-1.5
		c-0.1-0.4-0.6-0.5-0.9-0.8c-1.2-1.1,0.6-3.4-0.1-4.9c-0.4-0.9-1.4-1.2-2.4-1.5c-0.3-0.1-0.7-0.2-1.1-0.1c-1.3,0.1-1.8,1.6-2.8,2.5
		c-0.9,0.7-2.2,0.9-3.4,0.5c-1.1-0.3-2.2-1.1-3-1.9c-0.9-0.8-1.7-1.8-2.9-1.9c-0.7-0.1-1.5,0.2-2.3,0.2c-0.7-0.1-1.5-0.8-1.2-1.5
		c0.2-0.4,0.7-0.5,0.9-0.9c0.4-0.5,0.2-1.2-0.1-1.8c-0.3-0.5-0.8-1-1-1.6c-0.1-0.5-0.1-0.9-0.3-1.4s-0.6-1-1-1.4
		c-1.5-1.5-3.1-2.9-4.8-4.2C5.9,99,5.2,98,5.8,97.4C6,97.2,6.3,97.1,6.5,97c0.5-0.3,0.7-0.8,0.7-1.3c1.9-0.2,3.8-0.1,5.6,0.4
		c3.5,0.9,6.6,3.5,10.2,3.4c2.2-0.1,4.3-1.1,6.3-0.5c1.4,0.3,2.5,1.3,3.6,2.3c4.8,4.3,10.4,8.7,16.7,8.4c1.2-0.1,2.5-0.3,3.6,0.1
		c0.8,0.3,1.4,0.9,2,1.5c0.4,0.4,0.7,0.8,1.1,1.2c0.7,0.8,1.4,1.7,2,2.6C58.8,114.7,58.8,114.7,58.8,114.8z"/>
	<path class="st0" d="M132.8,59c-0.4,2-3.3,2-5,3.2c-2.4,1.7-1.7,5.3-2.4,8.2c-0.6,2.6-2.6,4.8-4.2,7c-2.3,3.1-4.1,6.5-5.4,10.1
		c-0.3,0.7-0.5,1.5-0.5,2.4c0.2,2.4,3,3.5,4.8,5.2c-0.5,0.7-1,1.4-1.5,2.1s-1.1,1.4-1.3,2.2c-0.3,1-0.3,2.2-0.5,3.2
		c-0.3,1.1-1.2,2.1-2.3,1.9c-0.5-0.1-0.9-0.4-1.4-0.7c-2.4-1.1-5.1,0.7-7.7,0.9c-3,0.3-6.1-1.5-8.7-0.2c-1.2,0.6-2.1,1.7-2.8,3
		c-0.1-0.7-0.1-1.3-0.1-1.9c0.1-0.5,0.2-1.2-0.1-1.7c-0.9-1.7-4.1,0.7-5.4-0.7c-0.4-0.5-0.5-1.1-0.7-1.7c-0.5-1.8-2.6-2.8-4.4-2.8
		c-1.9,0-3.7,0.7-5.4,1.4c-0.5,0.2-0.9,0.4-1.3,0.8c-0.6,0.7-0.5,1.8-0.9,2.8c-0.5,1.2-1.8,1.9-3,2.5c-2,0.9-4,1.9-6.1,2.8
		c-1,0.5-2,0.9-3,1.4c-0.7,0.3-1.4,0.7-2.2,0.8c-0.9,0.2-1.8,0.1-2.8,0.2c-0.7,0.1-1.5,0.4-2.2,0.7c-0.3-0.4-0.7-0.8-1.1-1.2
		c-0.6-0.6-1.2-1.1-2-1.5c-1.1-0.4-2.4-0.2-3.6-0.1c-6.4,0.3-12-4.1-16.7-8.4c-1.1-0.9-2.2-1.9-3.6-2.3c-2.1-0.5-4.2,0.5-6.3,0.5
		c-3.6,0.1-6.7-2.4-10.2-3.4c-1.9-0.5-3.8-0.5-5.6-0.4c0.1-0.8,0.1-1.8,0.5-2.5s1.3-1.1,2.2-1.3c0.9-0.1,1.7,0.1,2.6,0.1
		c0.3,0,0.7,0,1-0.1c0.8-0.4,0.9-1.5,0.5-2.4c-0.4-0.7-1.2-1.3-1.9-1.9s-0.7-1.3-0.6-2.2c0.5-4.9,5-8.4,9.4-10.6
		c4.2-2.1,9.4-3.6,13.6-1.5c-1.4-4.4-0.6-9.5,2.2-13.4c0.5-0.7,0.7-1.7,0.7-2.7c0.1-5.4-1.7-11-5-15.3c-1.1-1.5,1.4-3.1,3.3-3.1
		s4.6-0.7,4.2-2.5c-1.9-0.4-4-1-4.8-2.7c-0.9-1.7,0.7-4.4,2.4-3.6c4,1.9,8.6-0.7,12.2-3.4c0.7-0.5,1.5-1,2.3-0.7
		c1,0.3,1.3,1.5,1.5,2.5c0.3,1.7,0.6,3.5,0.9,5.2c1-0.5,2.1-1.1,3.2-0.8c1.1,0.3,1.5,2.2,0.5,2.6c1.6,2.4,5.8,1.8,6.9-0.8
		c0.7,0.9,1,2,0.9,3.2c1.4-1.8,3.4-3.2,5.5-4c3.1-1.1,5.9-2.9,8.2-5.2c0.6-0.6,1.1-1.7,0.9-2.5c1.3,0.1,2.6,0.5,3.3,1.5
		c0.3,0.5,0.5,1,1,1.3s1.1,0.3,1.5,0.7c0.9,0.6,0.8,2.1,0.3,3.1c-0.5,1-1.3,1.9-1.3,3.1c-0.1,1.8,1.5,3.4,1.7,5.2
		c0.1,1.8-1.2,3.8-0.3,5.4c0.3,0.5,0.9,0.9,1,1.4c0.2,0.5-0.1,1.2-0.1,1.8c-0.1,1.1,0.7,2.1,1.3,3c0.7,0.9,1.7,1.9,2.8,1.5
		c1.2-0.4,1.2-2.1,1.2-3.4c0-1.5,0.3-3,1.4-4s3.1-1.1,3.9,0.2c0.5,0.9,0.5,2.2,1.3,2.8c0.9,0.6,2.2-0.1,2.6-1.2
		c0.3-1,0.1-2.2-0.2-3.2c-0.3-1.1-0.5-2.2-0.1-3.2c2.4-0.6,4.7-1.1,7.1-1.7c0.8-0.2,1.6-0.4,2.4-0.3c-0.3,1.4-0.5,2.9-0.2,4.3
		c0.3,1.9,1.7,3.9,3.6,4.3c0.9,0.2,1.9,0.1,2.7,0.4c0.9,0.3,1.5,1.1,2.2,1.9c2.1,2.4,5,4,8.1,4.5c1.1,0.2,2.4,0.3,3.4,0.8
		C132.2,56.7,133,57.9,132.8,59z"/>
	<path class="st0" d="M113,33.1c-0.4,1.7-0.7,3.5-1.1,5.2c-0.1,0.5-0.2,1-0.3,1.5c-0.8-0.1-1.6,0.1-2.4,0.3
		c-2.4,0.6-4.7,1.1-7.1,1.7c-0.5,1-0.2,2.2,0.1,3.2c0.3,1.1,0.5,2.2,0.2,3.2s-1.6,1.8-2.6,1.2c-0.9-0.6-0.7-1.9-1.3-2.8
		c-0.8-1.2-2.8-1.2-3.9-0.2s-1.4,2.6-1.4,4c0,1.3,0,3-1.2,3.4c-1.1,0.4-2.1-0.7-2.8-1.5c-0.7-0.9-1.3-1.9-1.3-3
		c0-0.6,0.3-1.2,0.1-1.8c-0.2-0.5-0.7-0.9-1-1.4c-1-1.5,0.4-3.6,0.3-5.4c-0.1-1.8-1.8-3.4-1.7-5.2c0.1-1.1,0.9-2.1,1.3-3.1
		c0.5-1,0.6-2.4-0.3-3.1c-0.5-0.3-1.1-0.3-1.5-0.7s-0.7-0.9-1-1.3c-0.7-1-2-1.5-3.3-1.5c-0.1-0.5-0.3-0.9-0.9-1
		c-0.5,0.9-2,0.7-2.7,0S76.3,23,76.1,22c-0.3-1.7-0.7-3.4-1-5.1c-1.9-0.7-3.3-2.7-3.3-4.8c3.6,0.8,7.2,1.5,10.8,1.9
		c-0.3,1.3,0.8,2.9,2.2,2.8s2.3-2,1.3-3c4.6,0.1,9.2-1.7,12.4-4.9c1.1-1.1,2.2-2.6,3.8-3.2c1.5-0.7,3.7-0.1,4.1,1.5
		c0.2,0.9-0.3,1.9-0.5,2.9s0.3,2.3,1.2,2.3c1.2,0.1,1.4,1.8,1,3c-0.8,2.2-2.6,4-3,6.3c-0.5,2.3,1.3,5.3,3.6,4.6
		c-0.8,1.8-0.3,4,1.1,5.4C110.5,32.7,111.7,33.1,113,33.1z"/>
	<path class="st0" d="M177.6,36.4c-2.4,0.7-4.6,2.1-5.6,4.4c-0.3,0.6-0.5,1.2-0.8,1.7c-0.8,1.1-2.4,1.5-3.6,2.2
		c-2,1.1-3.4,3.2-4.6,5.2c-0.1,0.1-0.1,0.3-0.2,0.3c-1.8,0.1-3.8-0.2-4.5-1.7c-0.2-0.5-0.3-0.9-0.5-1.4c-0.9-1.9-3.9-2.4-4.8-4.4
		c-0.6-1.4,0-3.2-0.5-4.6c-0.3-0.9-1.1-1.6-1.9-2.2c-2-1.6-4.3-3-6.1-4.7c-1.6-1.5-2.9-3.4-3.3-5.5c2.6,0.6,5,1.5,7.3,2.8
		c0.1-1.7,2.5-2,4.1-1.5s3.6,1.2,4.8,0.1c1-4.6,3.2-8.9,6.3-12.3c0.3-0.4,0.7-0.7,1.2-0.9c1.9-0.7,3,2.2,3.3,4.2
		c0.6,4.6,2.4,9,5.2,12.7c0.7,0.9,1.8,1.9,3,1.7c1.1-0.3,2.2,0.4,2.6,1.5C179.3,34.9,178.6,36.1,177.6,36.4z"/>
	<path class="st0" d="M105.6,124.3c-0.5,1.5,1.4,2.9,1.2,4.4c-0.1,0.9-0.9,1.6-1.6,2.3c-2.2,2.2-3.4,5.2-4.8,8.1
		c-1.1-0.1-2.1,0.6-3.2,0.6c-2.4-0.1-3.7-3.1-6-3.3c-0.9-0.1-1.7,0.3-2.6,0.3c-0.9,0.1-1.9-0.4-1.9-1.3c0-0.4,0.1-0.8,0.1-1.1
		c-0.2-0.9-1.7-0.7-2.6-1.1c-0.9-0.4-1.3-1.7-2.3-2.2c-1.9-0.9-3.6,1.9-5.7,1.7c-1.3-0.1-2.3-1.3-2.9-2.6c-0.6-1.2-1.1-2.6-2.2-3.4
		c-0.4-0.3-0.9-0.5-1.3-0.7c-1.3-0.8-2.2-2.4-1.9-4c0.1-0.7,0.4-1.5,0.3-2.3c-0.1-0.7-0.8-1.5-1.5-1.3c0.3-1.6,0.5-3.2,0.9-4.8
		c0.1-0.4,0.1-0.8-0.1-1.1c-0.3-0.7-1.3-0.7-2.1-0.3c-0.7,0.3-1.3,0.9-2,1.1c-0.6,0.1-1.2-0.1-1.8,0c-0.7,0.1-1.5,0.5-2.2,0.9
		c-0.2,0.1-0.4,0.3-0.6,0.3l-0.1-0.1c-0.6-0.9-1.3-1.8-2-2.6c0.7-0.4,1.4-0.6,2.2-0.7c0.9-0.1,1.8,0,2.8-0.2
		c0.7-0.1,1.4-0.5,2.2-0.8c1-0.5,2-0.9,3-1.4c2-0.9,4-1.9,6.1-2.8c1.2-0.5,2.5-1.2,3-2.5c0.3-0.9,0.2-2,0.9-2.8
		c0.3-0.4,0.8-0.6,1.3-0.8c1.7-0.7,3.5-1.5,5.4-1.4c1.9,0,3.9,1.1,4.4,2.8c0.2,0.6,0.2,1.3,0.7,1.7c1.3,1.4,4.6-1,5.4,0.7
		c0.3,0.5,0.1,1.1,0.1,1.7c-0.1,0.7-0.1,1.3,0.1,1.9c0.3,1.9,1.3,3.8,1.9,5.7c0.9,2.5,1.3,5.7-0.6,7.5c3.2-0.3,6.3-0.6,9.4-0.9
		c1.3-0.1,3.1,0.2,3.1,1.5C107.8,122.7,106,123.1,105.6,124.3z"/>
	<path class="st0" d="M170.4,121.7c0.4,2.6,1.3,5.1,0.7,7.6c-0.2,1-0.7,1.9-0.9,3c0,0.1-0.1,0.1-0.1,0.3c-0.7,2.9,0.1,6.1-1.2,8.8
		c-1.6,3.6-6.1,5-8.2,8.2c-2,3-2,7.1-4.6,9.5c-0.8,0.7-1.7,1.2-2.4,2.1c-1.2,1.7-0.7,4.2-1.8,5.9c-0.3,0.6-0.9,1.1-1.4,1.5
		c-0.8-0.1-1.7-0.2-2.5-0.4c-1.9-0.5-3.9-2.2-5.6-1.2c-0.6,0.3-1.1,0.9-1.8,1.1c-1.4,0.3-2.4-1.3-3.2-2.5c-2.4-3.2-7.9-3.5-10.6-0.5
		c-0.3,0.4-0.7,0.9-1.1,1.1c-0.5,0.3-1,0.3-1.5,0.3c-0.8,0.1-1.6,0.4-2.4,0.9c-0.3-0.3-0.5-0.5-0.8-0.6c-0.7-0.3-1.4-0.5-2-0.9
		c-0.9-0.6-1.5-1.7-1.5-2.8c0-0.4,0.1-0.8-0.2-1.1c-0.3-0.5-1.1-0.4-1.5-0.8c-0.5-0.5-0.1-1.4,0.3-1.9c0.5-0.5,1.1-1.2,0.9-1.9
		c-2.2-1.1-4.6,1.2-6.9,0.8c-1.2-0.2-2.2-1.1-3.4-1.3c-1.5-0.3-3,0.6-4.3,1.4c-0.4,0.3-1,0.1-1.4-0.1c0.5-1.5,1.1-3,1.6-4.5
		c0.1-0.5,0.3-0.9,0.3-1.4c0-0.8-0.6-1.5-0.9-2.3c-0.3-0.7-0.3-1.8,0.5-2.2c0.2-0.1,0.5-0.1,0.7-0.3c0.3-0.3,0.2-0.7,0.1-1.1
		c-0.6-2-1.2-4.1-1.8-6.2c-0.1-0.2-0.1-0.4-0.3-0.6c-0.2-0.2-0.5-0.3-0.7-0.3h-0.1c1.3-2.9,2.6-5.9,4.8-8.1c0.7-0.7,1.5-1.3,1.6-2.3
		c0.1-1.5-1.7-3-1.2-4.4c0.4-1.1,2.2-1.6,2.3-2.9c0-1.3-1.8-1.6-3.1-1.5c-3.2,0.3-6.3,0.6-9.4,0.9c1.9-1.8,1.5-5,0.6-7.5
		c-0.7-1.9-1.7-3.8-1.9-5.7c0.7-1.2,1.5-2.4,2.8-3c2.6-1.3,5.8,0.5,8.7,0.2c2.6-0.3,5.4-2.2,7.7-0.9c0.5,0.2,0.9,0.5,1.4,0.7
		c1.1,0.1,1.9-0.9,2.3-1.9c0.3-1.1,0.2-2.2,0.5-3.2c0.3-0.8,0.8-1.5,1.3-2.2s1-1.4,1.5-2.1c0.6,0.6,1.1,1.3,1.3,2.1
		c0.3,1.1-0.1,2.4,0,3.6c0.1,2.7,2.3,4.8,4.6,6.3c6.1,4.1,13.9,5.6,21.1,4c2.4-0.5,4.6-1.3,7.1-1.3c1.3,0.1,2.6,0.4,3.9,0.6
		c1.9,0.3,3.8,0.3,5.7,0.4c2.8,0.1,5.5,0.1,8.3,0.2C170.6,114.2,169.9,118.1,170.4,121.7z"/>
	<path class="st0" d="M234.8,63.5c-0.5,1.1-1.1,2-2,2.8c-1.9,1.9-5,3.2-5.3,5.8c-0.1,1.4,0.5,2.8,0.4,4.1c-0.1,1.8-1.2,3.3-2.2,4.8
		c-0.9,1.5-1.7,3.5-0.8,5c0.7,1.4,2.7,2.4,2.4,4c-0.3,1.8-3,1.7-4.8,1.2c-1.3-0.3-2.8-0.7-4.2-0.5s-2.8,1.1-3.3,2.4
		s-0.5,3.3-1.9,3.3c-0.5,0-0.9-0.3-1.3-0.4c-2.2-0.9-4.8,0.5-6.1,2.5s-1.6,4.5-1.9,6.9c-0.3,2.3-0.4,5,1.3,6.5
		c0.7,0.7,1.7,1.1,2.2,1.9c0.5,0.9,0.2,2,0.2,3.1c0,0.2,0,0.4,0,0.6c-0.4-0.5-0.7-1.1-0.8-1.7c-0.8,0.1-1.6,0.5-2.3,0.9
		c-0.3-1.5-1.1-3-2.6-3c-0.5,0-0.9,0.2-1.4,0.1c-0.7-0.2-1.1-1.1-1.1-1.9c0.1-0.8,0.3-1.5,0.2-2.4c-0.1-1-0.9-1.9-1.1-2.8
		c-0.3-1.5,0.7-3,1.3-4.5c0.5-1.5,0.1-3.7-1.4-3.9c-1.1-0.1-2.4,0.9-3.2,0.1c-1.2-1.1,1.5-3.4,0.3-4.6c-0.9-0.9-2.8,0.2-3.3-0.9
		c-0.2-0.4,0-0.9,0.2-1.4c1.3-3.1,2-6.3,2.3-9.7c-1.5,0.5-2.6-1.3-3.6-2.5c-1-1.1-2.5-1.7-4-1.7c2.7-3,8.3-4,8.7-8.1
		c0.1-1-0.1-2.1,0.1-3.1c0.3-1.3,1.5-2.1,2.4-3c3.3-3.4,4.2-8.2,4.6-13c1.2,0.3,2.4,0.7,3.5,1.1c0.4,0.1,0.9,0.3,1.1,0.7
		c0.3,0.3,0.3,0.7,0.3,1.1c0.1,1.1,0.7,2.2,1.5,3c0.3-0.7,0.3-1.4,0.1-2.1c2.4,0.1,4.6,1.4,5.8,3.5c0.2,0.3,0.3,0.6,0.3,0.9
		c0,0.4-0.2,0.7-0.3,1.1c-0.8,1.7-1.2,3.5-1.3,5.3c0.3,0.5,1,0.4,1.3,0s0.5-0.9,0.6-1.4c0.4-1.6,1.4-3.2,2.9-4
		c2.4-1.3,5.1-1.3,7.7-0.3c0.6,0.3,1.1,0.5,1.5,1.1c0.3,0.5,0.5,1.2,1.1,1.5C230.9,63.1,232.8,63.3,234.8,63.5z"/>
	<path class="st0" d="M243.2,94.7c-0.1,0.4-0.4,0.7-0.7,1.1c-0.7,0.9-1.7,1.7-1.4,2.7c0.1,0.5,0.5,0.9,0.6,1.4s-0.3,1-0.7,1.4
		c-1.1,1.3-2.4,2.5-3.6,3.7c-0.4-0.4-0.9-0.6-1.4-0.4c-1.1,0.3-1.3,1.9-1.9,2.8c-1.4,1.8-4.4,0.8-6.3,2.2c-0.5,0.3-0.9,0.9-1.5,1.1
		c-1.2,0.5-2.6-0.3-3.8-0.9s-3.2-0.6-3.4,0.7c-0.3,1.5,1.8,2.5,1.8,4c0,1-1.1,1.7-2,2c-1,0.3-2.1,0.3-3,0.7
		c-0.7,0.4-1.3,1.1-2.1,1.6c-1.9,1.3-4.6,0.6-6-1.1c0-0.2,0-0.4,0-0.6c0.1-1.1,0.3-2.2-0.2-3.1s-1.5-1.3-2.2-1.9
		c-1.7-1.5-1.5-4.2-1.3-6.5c0.3-2.4,0.5-4.8,1.9-6.9c1.3-2,3.9-3.4,6.1-2.5c0.4,0.2,0.8,0.4,1.3,0.4c1.3-0.1,1.4-2,1.9-3.3
		s1.9-2.2,3.3-2.4s2.8,0.1,4.2,0.5c1.8,0.5,4.4,0.6,4.8-1.2c0.3-1.6-1.7-2.6-2.4-4c-0.8-1.6-0.1-3.5,0.8-5c0.9-1.5,2.1-3,2.2-4.8
		c0.1-1.4-0.6-2.8-0.4-4.1c0.3-2.7,3.4-4,5.3-5.8c0.9-0.8,1.5-1.7,2-2.8c1.3,0.1,2.5,0.3,3.7,0.5c-1.1,2.6-0.7,5.8,1.3,7.9
		c1.1,1.1,2.8,2.4,2.2,3.9c-0.3,0.5-0.7,0.9-1,1.4c-0.9,1.7,0.9,3.5,1.5,5.3c0.9,2.5-0.7,5.3-0.1,7.9
		C242.8,91.8,243.7,93.3,243.2,94.7z"/>
	<path class="st0" d="M265.3,77.3c-1.1,1.1-2.4,2.2-3.8,3c-1.7,0.9-3.6,1.7-4.5,3.4c-0.9,1.9-0.2,4.4-1,6.1
		c-0.1,0.3-0.3,0.5-0.5,0.7c-0.5,0.7-1.4,1-2,1.7c-1.4,1.4-1.2,3.7-0.8,5.6c0.1,0.6,0.3,1.3,0.5,1.9c-0.7,0.3-1.3,0.5-1.9,0.3
		c-0.6-0.2-1-0.7-1.5-1.1c-1.9-1.9-4.6-3-7.3-3.2c0.3-0.3,0.5-0.7,0.7-1.1c0.5-1.4-0.5-2.9-0.8-4.3c-0.6-2.6,1-5.4,0.1-7.9
		c-0.6-1.8-2.5-3.6-1.5-5.3c0.3-0.5,0.8-0.9,1-1.4c0.7-1.5-1.1-2.8-2.2-3.9c-2-2-2.4-5.2-1.3-7.9l0,0c0.6,0.1,1.2,0.3,1.8,0.1
		c0.7-0.1,1.2-0.7,1.9-0.9c1-0.5,2.2-0.3,3.3-0.2c4.6,0.6,9.5,2.1,11.8,6.1c0.6,1,1,2.2,1.6,3.2c1.2,1.9,3.2,3.1,5,4.2
		C264.4,76.8,264.8,77,265.3,77.3z"/>
	<path class="st0" d="M283.3,92.9c0,0.1,0,0.3,0,0.4c-1.2-0.4-2.4-0.9-3.4-1.6c-0.9-0.6-1.8-1.3-2.9-1.6c-1.1-0.3-2.4-0.1-3,0.9
		c-0.2,0.3-0.3,0.8-0.6,1.1c-0.3,0.3-0.7,0.3-1.1,0.3c-2.2,0-4.6-1.4-6.4-0.1c-0.7,0.5-1.1,1.5-2,1.5s-1.4-0.9-1.6-1.7
		c-0.2-0.8-0.3-1.7-0.8-2.4c-0.8-0.9-2.2-0.7-3.4-0.5c-0.7,0.1-1.4,0.3-2.1,0.5c0.8-1.8,0.1-4.3,1-6.1c0.9-1.7,2.8-2.5,4.5-3.4
		c1.4-0.8,2.6-1.8,3.8-3c1.9,1.1,4,2.2,6.3,2.6c2.2,0.4,4.5,0.1,6.5,1.1c2.8,1.4,3.9,4.9,4.7,7.9C283,90.3,283.3,91.6,283.3,92.9z"
		/>
	<path class="st0" d="M282.6,98.4c0,0.5,0,1,0.1,1.5c-1.3,0.3-2.8,0.3-4.1,0.1c-2.2-0.3-4.6-1.3-6.7-0.5c-1.7,0.7-3.5,2.6-5.1,1.6
		c-0.9-0.6-1.1-1.9-1.4-2.9c-0.4-1.1-1.7-2-2.5-1.3c-0.5,0.9-0.9,1.8-1.7,2.4c-0.8,0.6-1.9,0.8-2.8,0.2c-0.3-0.3-0.5-0.6-0.8-0.8
		c-1.3-0.9-2.8,0.5-4.3,1.2c-0.1-0.7-0.3-1.3-0.5-1.9c-0.5-1.9-0.6-4.2,0.8-5.6c0.6-0.6,1.4-1,2-1.7c0.2-0.2,0.3-0.5,0.5-0.7
		c0.7-0.2,1.4-0.4,2.1-0.5c1.1-0.3,2.6-0.3,3.4,0.5c0.5,0.6,0.6,1.5,0.8,2.4c0.2,0.8,0.8,1.7,1.6,1.7c0.9,0,1.3-1,2-1.5
		c1.7-1.3,4.2,0,6.4,0.1c0.4,0,0.8-0.1,1.1-0.3c0.3-0.3,0.4-0.7,0.6-1.1c0.5-0.9,1.9-1.2,3-0.9c1.1,0.3,1.9,1,2.9,1.6
		c1.1,0.7,2.2,1.2,3.4,1.6C283.2,95,282.6,96.6,282.6,98.4z"/>
	<path class="st0" d="M282.9,104.8c-0.2,1.1-0.7,2.2-1.3,3.2c-0.2,0.3-0.3,0.7-0.5,1c-3.5,0.6-7.4-1.1-10.6,0.5
		c-1.7,0.8-3.2,2.5-5,1.9c-0.8-0.3-1.4-0.9-2.2-1.4c-1.5-0.9-3.4-0.7-5-0.1c-0.2,0.1-0.4,0.2-0.7,0.3c-0.7-1.5-1.9-2.8-3.5-3.4
		c-2.7-1.3-6.1-0.9-8.6,0.7c-0.9,0.6-1.8,1.3-2.9,1.8c-1.1,0.5-2.4,0.5-3.2-0.3c-0.8-0.7-0.9-1.9-1.3-2.9c-0.2-0.5-0.5-0.9-0.9-1.3
		c1.2-1.2,2.6-2.4,3.6-3.7c0.3-0.4,0.7-0.9,0.7-1.4c-0.1-0.5-0.5-0.9-0.6-1.4c-0.3-1.1,0.7-1.8,1.4-2.7c2.7,0.2,5.4,1.3,7.3,3.2
		c0.4,0.4,0.9,0.9,1.5,1.1c0.7,0.2,1.3,0.1,1.9-0.3c1.5-0.7,3-2.2,4.3-1.2c0.3,0.2,0.5,0.5,0.8,0.8c0.8,0.6,1.9,0.4,2.8-0.2
		c0.8-0.6,1.3-1.5,1.7-2.4c0.8-0.7,2.1,0.2,2.5,1.3c0.4,1.1,0.5,2.4,1.4,2.9c1.6,1,3.4-0.9,5.1-1.6c2.1-0.9,4.4,0.1,6.7,0.5
		c1.3,0.2,2.8,0.2,4.1-0.1C282.8,101.5,283.2,103.2,282.9,104.8z"/>
	<path class="st0" d="M281.1,109.1c-1.4,2.6-2.9,5.2-5,7.1s-4.9,3.2-6.8,5.4c-0.1,0.2-0.3,0.3-0.4,0.5c-0.2-0.3-0.4-0.5-0.5-0.9
		c-0.7-1.3-1.1-2.9-1.6-4.3c-0.1-0.3-0.3-0.6-0.5-0.7c-0.3-0.1-0.6,0-0.9,0.1c-1.6,0.5-3.4,0.5-4.9-0.1c-0.5-0.2-1-0.5-1.5-0.6
		c-0.2-0.1-0.4-0.1-0.5-0.1c0.1-0.5,0.2-0.9,0.3-1.3c0.2-1.3-0.1-2.7-0.7-3.8c0.2-0.1,0.4-0.2,0.7-0.3c1.5-0.7,3.5-0.9,5,0.1
		c0.7,0.5,1.3,1.1,2.2,1.4c1.7,0.5,3.4-1.1,5-1.9C273.7,108,277.6,109.7,281.1,109.1z"/>
	<path class="st1" d="M243.2,182.9c-1,1.3-2.4,2.4-3.1,3.8c-0.5,1.1-0.7,2.2-1.2,3.3c-1.3,2.3-4.3,3.3-5.2,5.7
		c-0.1,0.2-0.1,0.5-0.2,0.7c-0.9-0.4-1.8-0.7-2.8-1c-0.8-0.2-1.7-0.3-2.4-0.7c-0.4-0.3-0.7-0.6-1.1-0.9v-0.1
		c0.1-1.1-0.7-2.1-0.8-3.2c-0.1-2.6,3.5-3.7,4.8-5.9c1.4-2.3,0.1-5.4,1.3-7.9c0.5-1,1.3-1.7,2.2-2.6c1.3-1.1,2.8-2.4,4.4-1.9
		c0.1,0,0.1,0.1,0.2,0.1c1.1,0.3,1.7,1.3,2.5,2.2c0.2,0.3,0.5,0.5,0.7,0.7c-0.1,0.3-0.1,0.5,0,0.9c0.2,0.9,1.1,1.4,1.5,2.2
		C244.8,179.8,244.2,181.7,243.2,182.9z"/>
	<path class="st1" d="M233.4,196.4c-0.4,2.1,0.3,4.5-1.2,5.9c-1.3,1.2-3.8,0.7-5,2.1c-0.7,0.8-0.8,2-1.5,2.8
		c-0.5,0.5-1.1,0.7-1.8,0.9c-2.8,0.9-5.8,1.7-8.7,1c-1.4-0.3-2.8-1.1-4.2-1.1c-0.8,0-1.5,0.3-2.2,0.7c-0.5-1.1-0.7-2.2-0.1-3.2
		c0.3-0.5,0.8-0.9,1.1-1.5c0.2-0.6,0.1-1.2-0.3-1.7c0.8-0.6,1.7-1.2,2.5-1.8c0.5-0.3,1-0.7,1.6-0.8c0.7-0.1,1.3,0.1,1.9,0.3
		c3.4,0.8,6.9-1.4,9.7-3.4c0.9-0.7,1.9-1.5,2.1-2.6c0.4,0.3,0.7,0.6,1.1,0.9c0.7,0.4,1.5,0.5,2.4,0.7
		C231.6,195.7,232.5,196,233.4,196.4z"/>
	<path class="st0" d="M166.5,183.5c-0.3,2.6-4,3.2-5.4,5.4c-1.1,1.7-0.5,4.1-1.5,5.8c-1.5,2.7-5.6,2.5-7.7,4.8
		c-0.2,0.2-0.3,0.4-0.5,0.6c-1.2,1.8-1.1,4.4-2.4,6.3c-0.7,1.1-1.9,1.9-2.9,2.8c-0.5,0.4-1,0.8-1.5,1.2c0-0.1,0-0.2,0-0.3
		c-1.2-0.5-2.7-0.5-3.8,0.1c-0.6,0.3-1.2,0.8-1.9,0.7s-1.2-0.5-1.7-1.1c-1.1-1.3-1.7-3-1.9-4.8c-0.1-1.3,0.1-2.8-0.2-4.1
		s-1.1-2.7-2.4-3c-2.3-0.4-4.2,2.5-6.5,1.8c-1.7-0.5-2.4-3-4.1-3.6c-0.3-0.1-0.6-0.1-0.9-0.3c-0.7-0.3-0.9-1.2-0.7-1.9
		s0.5-1.4,0.6-2.2c0.5-2.8-2.4-5.3-2.3-8.2c0.1-2.6,2.8-4.6,2.8-7.2c0-0.5-0.1-1.1,0-1.7c0.1-0.8,0.7-1.5,1.1-2.2
		c0.9-1.7,0.5-4-0.9-5.3c0.7-0.4,1.5-0.7,2.4-0.9c0.5-0.1,1.1-0.1,1.5-0.3c0.5-0.3,0.8-0.7,1.1-1.1c2.7-3,8.1-2.7,10.6,0.5
		c0.9,1.1,1.8,2.8,3.2,2.5c0.7-0.1,1.1-0.7,1.8-1.1c1.8-0.9,3.8,0.7,5.6,1.2c0.8,0.2,1.7,0.3,2.5,0.4c0.9,0.2,1.8,0.5,2.3,1.3
		c0.3,0.6,0.3,1.4,0.6,2.1c0.8,1.6,3.1,1.4,4.9,1.8c3.3,0.7,5.4,3.8,7.1,6.6c0.1,0.1,0.2,0.3,0.3,0.5
		C166.2,181.7,166.6,182.5,166.5,183.5z"/>
	<path class="st0" d="M180.8,243c-0.4,1.2-0.9,2.4-1.7,3.3c-0.9,0.9-2.2,1.5-3.2,2.2c-1.1,0.7-2,2-1.7,3.3c0,0.1,0.1,0.2,0,0.3
		c-0.5-0.7-1-1.3-1.7-1.7c-0.3-0.3-0.7-0.5-0.9-0.8c-0.9-1.4,1.3-2.8,1.6-4.5c0.3-1.9-1.8-3.2-3.7-3.4c-1.9-0.1-3.9,0.3-5.6-0.5
		c-0.6-2.4-2.8-4-4.9-5.4c-0.5-0.3-1.1-0.7-1.7-0.7c-0.6,0.1-1.1,0.4-1.6,0.6c-1.3,0.5-2.8-0.2-4.2-0.8c-1.9-0.7-3.8-1.1-5.8-1.2
		c0.8-0.4,1.5-0.9,2.1-1.5c1.2-1.5,1.1-3.5,0.7-5.4c0.1,0,0.1-0.1,0.3-0.1c3.9-0.8,7.9,2.4,11.8,1.4c2.2-0.5,3.9-2.2,6.1-2.8
		c3.4-0.9,6.9,1.1,9.8,3c-0.6-0.9,0-2.3,1-2.8s2.2-0.5,3.3-0.4c0.8,0.1,1.5,0.1,2.4,0.1c-0.3,0.4-0.5,0.7-0.8,1.1
		c-0.2,0.3-0.5,0.7-0.5,1.1c-0.1,0.7,0.3,1.3,0.5,2C183.9,233.8,182.4,238.7,180.8,243z"/>
	<path class="st0" d="M174.2,252.1c-0.1,1.2-2,2-3,2.9c-0.9,0.7-1.7,1.7-2.4,2.7c-3.9,5.2-7.7,10.4-11.6,15.5
		c-0.7,0.9-1.3,1.7-1.7,2.7c-0.3,0.7-0.5,1.3-0.9,2c-1.1,1.9-3.5,2.9-5.6,2.4c-0.5-1.8,0.7-3.7,0.7-5.6c0-1.5-0.7-2.9-1.5-4.2
		c-1-1.8-2.1-3.7-4-4.4c-1.4-0.5-3.2-0.5-4.1-1.7c-0.8-1.1-0.5-3.2-1.9-3.6c-1.5-0.5-3,1.8-4.5,1.1c-0.7-0.3-0.9-1.3-1.3-2
		c-1-2.6-4.2-4-6.7-3c-1,0.4-2.4,0.9-3,0.1c-0.2-0.3-0.2-0.6-0.2-0.9c0.1-1.5,1.7-2.4,3-3c1.4-0.5,3-1,3.8-2.3
		c0.4-0.7,0.5-1.5,0.8-2.2c0.5-1.4,1.6-2.6,2.6-3.8c3.7-4,7.5-8.1,12.3-10.7c0.2-0.1,0.4-0.2,0.6-0.3c2,0.1,4,0.5,5.8,1.2
		c1.3,0.5,2.8,1.3,4.2,0.8c0.5-0.2,1.1-0.6,1.6-0.6c0.6-0.1,1.2,0.3,1.7,0.7c2.1,1.3,4.3,3,4.9,5.4c1.7,0.8,3.7,0.4,5.6,0.5
		c1.9,0.1,4,1.5,3.7,3.4c-0.3,1.6-2.5,3.1-1.6,4.5c0.2,0.3,0.6,0.6,0.9,0.8C173.2,250.8,173.8,251.4,174.2,252.1z"/>
	<path class="st2" d="M187.8,46c-0.6,0.3-1.3,0.4-1.7,0.9c-0.2,0.3-0.2,0.6-0.2,0.9c-0.1,0.5-0.1,1.1-0.1,1.7c0,0.4-0.1,0.7-0.3,1.1
		c-0.1,0.3-0.4,0.5-0.6,0.7c-0.7,0.5-1.4,1.1-2.2,1.7c-0.3,0.3-0.7,0.5-1.1,0.7c-1.5,0.5-3.2-0.7-4.8-0.3c-0.9,0.2-4.2,1.9-4.3,0.2
		c-0.1-0.4,0.3-0.7,0.3-1.1c0-0.3-0.1-0.6-0.1-0.9c0.1-0.2,0.3-0.3,0.4-0.3c0.7-0.3,1.5-0.6,2.1-1.1s0.8-1.6,0.2-2.1
		c-0.5-0.4-1.2-0.3-1.6-0.7c-0.2-0.2-0.3-0.5-0.4-0.7c-0.2-0.6-0.4-1.3,0.1-1.7c0.5-0.5,1.3-0.3,1.9,0.1c0.5,0.4,1.1,0.9,1.8,1
		c1.1,0.1,1.7-1.1,2.7-1.6c1.8-0.9,4.1,0.8,6.1,0.3c0.5-0.1,1-0.5,1.5-0.5c0.5-0.1,1.1,0.1,1.3,0.5C189.1,45.2,188.4,45.8,187.8,46z
		"/>
	<path class="st0" d="M201.4,140.9c-0.5,2.4-0.6,4.8-0.5,7.2c-0.8-0.4-1.6-0.7-2.5-0.5c-1.5,0.3-2.4,1.7-3.2,3
		c-0.8,1.2-2.2,2.5-3.6,2.2c1.6,1.8-1.5,4.7-0.6,6.9c0.5,1.3,2.1,1.7,3.4,1.9c-0.3,1.3-1.4,2.5-2.7,3c0.8,0.8,1.6,1.5,2.4,2.4
		c-0.6,1.5-3.5,1-3.8,2.6c-0.1,0.4,0.1,0.8,0.1,1.3c0,1.5-1.7,2.4-3.2,2.2s-2.7-1.1-4-1.7c-1.3-0.6-3-0.9-4.2,0.1
		c-1,0.9-1.2,2.4-2.2,3.2c-1.3,1.1-3.4,0.5-5,0.9c-2,0.5-3.4,2.6-3.7,4.6c0,0.2-0.1,0.3-0.1,0.5c-0.7,0.1-1.5,0.1-2.2,0.3
		c-0.1-0.1-0.2-0.3-0.3-0.5c-1.7-2.8-3.9-5.9-7.1-6.6c-1.7-0.3-4-0.2-4.9-1.8c-0.3-0.7-0.3-1.4-0.6-2.1c-0.5-0.9-1.3-1.1-2.3-1.3
		c0.5-0.5,1.1-0.9,1.4-1.5c1.1-1.8,0.5-4.2,1.8-5.9c0.6-0.9,1.6-1.3,2.4-2.1c2.6-2.4,2.6-6.6,4.6-9.5c2.2-3.2,6.6-4.6,8.2-8.2
		c1.2-2.7,0.5-5.9,1.2-8.8c1.1-0.8,2.3-1.5,3.6-1.9c1.3,1.3,1.1,3.9,2.8,4.6c0.6,0.3,1.3,0.2,2,0.1c1.7-0.2,3.4-0.5,5.2-0.7
		c1-0.1,2.2-0.3,3,0.2c1.3,0.7,1.9,2.6,3.4,2.8s2.6-1.1,3.9-1.8c1.7-0.9,3.8-0.6,5.8-0.3l0,0c-0.1,1,0.1,2,0.7,2.8
		c0.3,0.4,0.7,0.8,0.9,1.3C201.6,140,201.4,140.4,201.4,140.9z"/>
	<path class="st1" d="M241.4,163.1c-1.3,1.2-3.1,2.9-2.4,4.6c0.2,0.5,0.5,0.8,0.7,1.3c0.4,1.1-0.2,2.2-0.7,3.4
		c-1.6-0.4-3.2,0.8-4.4,1.9c-0.8,0.7-1.7,1.5-2.2,2.6c-1.1,2.4,0.1,5.6-1.3,7.9c-1.3,2.3-5,3.3-4.8,5.9c0.1,1.1,0.9,2.1,0.8,3.2v0.1
		c-0.1,1.1-1.1,1.9-2.1,2.6c-2.9,2.1-6.3,4.2-9.7,3.4c-0.7-0.1-1.3-0.4-1.9-0.3c-0.6,0.1-1.1,0.5-1.6,0.8c-0.8,0.6-1.7,1.2-2.5,1.8
		c-0.3-0.5-0.7-0.9-1.2-1.1c-2.4-1.2-5.1-0.1-7.5,0.9c-1.4,0.6-2.8,1.3-4.2,1.9c-1.7-1.6-1.7-4.6,0-6.3c0.7-0.6,1.6-1.3,1.4-2.2
		c-0.2-1-1.6-1.1-2.4-1.8c-0.5-0.5-0.7-1.2-0.8-1.9c-0.4-2-0.8-4.1-1.3-6.2c-0.2-1-0.5-2.2-1.2-2.9c-1.5-1.5-4-0.8-5.9,0.1
		c-1.9,0.9-4.1,2-6,1.1c-0.6-0.3-1.1-0.7-1.7-0.9c-1.1-0.3-2.4,0.3-3.5,0.1c-1-0.2-1.8-1-2.7-1.6c-1.3-0.9-2.8-1.2-4.4-1.1
		c0-0.2,0.1-0.3,0.1-0.5c0.3-2,1.7-4,3.7-4.6c1.7-0.4,3.7,0.2,5-0.9c1-0.9,1.2-2.4,2.2-3.2c1.1-0.9,2.8-0.7,4.2-0.1s2.6,1.5,4,1.7
		c1.5,0.2,3.2-0.7,3.2-2.2c0-0.4-0.1-0.8-0.1-1.3c0.3-1.6,3.2-1.1,3.8-2.6c-0.8-0.8-1.6-1.5-2.4-2.4c1.3-0.5,2.4-1.7,2.7-3
		c-1.3-0.3-2.9-0.6-3.4-1.9c-0.9-2.2,2.2-5.1,0.6-6.9c1.5,0.3,2.8-0.9,3.6-2.2c0.9-1.2,1.7-2.7,3.2-3c0.9-0.1,1.7,0.1,2.5,0.5
		c1.1,0.5,2.2,1.2,3.4,1.2c2.7-0.1,4-3.7,6.6-4.4c3.4-0.9,6,3.4,9.5,3.6c2.2,0.2,4.9-1.1,6.3,0.6c0.5,0.6,0.6,1.3,0.9,2
		c1.8,3.3,7.8,1.5,9.9,4.6c0.3,0.4,0.5,0.9,0.9,1.3c1.1,1.1,3.2,0.3,4.4,1.3C244,159.6,242.8,161.9,241.4,163.1z"/>
	<path class="st0" d="M268.7,122.2c-0.6,0.8-1.2,1.6-1.9,2.2c-0.8,0.6-1.7,1-2.5,1.7c-1.3,1.1-1.9,3-2.6,4.6
		c-0.1-0.1-0.1-0.2-0.2-0.3c-0.5-0.8-0.8-1.7-1.5-2.4c-0.5-0.5-1.3-0.7-1.9-1.2c-1.9-1.5-1.3-5,0.9-5.9c-1.1-0.5-1.5-1.9-1.4-3.2
		c0.1-0.7,0.3-1.5,0.5-2.2c0.2,0,0.3,0,0.5,0.1c0.5,0.1,1.1,0.4,1.5,0.6c1.5,0.6,3.3,0.7,4.9,0.1c0.3-0.1,0.6-0.2,0.9-0.1
		s0.5,0.5,0.5,0.7c0.5,1.4,0.9,3,1.6,4.3C268.4,121.7,268.5,122,268.7,122.2z"/>
	<path class="st0" d="M200.9,123.6c0.1,1.7,0.8,3.3,0.7,4.9c-0.1,1.7-0.8,3.2-1.3,4.8c-0.2,0.7-0.3,1.3-0.4,2c-2-0.3-4-0.7-5.8,0.3
		c-1.3,0.7-2.4,2.1-3.9,1.8s-2.1-2.1-3.4-2.8c-0.9-0.5-2-0.3-3-0.2c-1.7,0.2-3.4,0.5-5.2,0.7c-0.7,0.1-1.3,0.2-2-0.1
		c-1.7-0.7-1.5-3.2-2.8-4.6c-1.3,0.5-2.5,1.1-3.6,1.9c0-0.1,0.1-0.1,0.1-0.3c0.3-1,0.7-1.9,0.9-3c0.5-2.5-0.4-5-0.7-7.6
		c-0.5-3.6,0.1-7.5,1.9-10.7c0.2-0.4,0.5-0.8,0.7-1.2c0.5-0.7,0.9-1.4,1.3-2.2c0.3-0.7,0.3-1.4,0.5-2.1c1.1-3.6,5.6-5.6,6.1-9.3
		c0.3-2.2-0.8-4.7,0.3-6.7c0.8-1.5,2.6-2.2,3.4-3.6c1.1-1.8,0.5-4.2,1.1-6.1c0.3-0.7,0.7-1.3,1.1-1.9c1.5,0,3,0.5,4,1.7
		s2.1,3,3.6,2.5c-0.2,3.3-1,6.6-2.3,9.7c-0.2,0.5-0.4,1-0.2,1.4c0.5,1.1,2.5,0.1,3.3,0.9c1.1,1.1-1.5,3.4-0.3,4.6
		c0.8,0.7,2.1-0.2,3.2-0.1c1.6,0.1,1.9,2.4,1.4,3.9s-1.6,3-1.3,4.5c0.2,1,0.9,1.8,1.1,2.8c0.1,0.8-0.1,1.5-0.2,2.4
		c-0.1,0.8,0.3,1.7,1.1,1.9c0.5,0.1,0.9-0.1,1.4-0.1c1.5-0.1,2.3,1.4,2.6,3C202.2,118.3,200.7,120.9,200.9,123.6z"/>
	<path class="st1" d="M261.7,130.8L261.7,130.8c-1,2.3-2.5,4.4-4.3,6.1c-0.7,0.7-1.7,1.3-2.7,1.1c-0.4-0.1-0.7-0.3-1.1-0.3
		s-0.7,0.5-0.9,0.8c-0.8,1.5-1.3,3.2-1.5,4.8c-0.1,0.8-0.1,1.5-0.1,2.4c0.1,1.9,0.5,3.9-0.4,5.5c-1,1.8-0.5,4.2,0.7,5.9
		c0.4,0.5,0.9,1,1,1.7c0.3,1.6-1.6,2.7-2.6,4c-1.9,2.5-0.4,6.6-2.7,8.8c-0.8,0.8-1.9,1.1-3,1.7c-0.7,0.5-1.4,1.1-1.6,1.9
		c-0.3-0.3-0.5-0.5-0.7-0.7c-0.7-0.9-1.4-1.9-2.5-2.2c-0.1,0-0.1-0.1-0.2-0.1c0.5-1.1,1.1-2.2,0.7-3.4c-0.2-0.5-0.5-0.9-0.7-1.3
		c-0.7-1.7,0.9-3.4,2.4-4.6c1.3-1.2,2.6-3.5,1.2-4.7c-1.1-1-3.3-0.2-4.4-1.3c-0.4-0.3-0.5-0.9-0.9-1.3c-2.1-3.2-8.1-1.3-9.9-4.6
		c-0.3-0.7-0.5-1.4-0.9-2c-1.3-1.7-4.1-0.4-6.3-0.6c-3.4-0.3-6.1-4.6-9.5-3.6c-2.6,0.7-3.9,4.3-6.6,4.4c-1.2,0.1-2.3-0.7-3.4-1.2
		c-0.1-2.4,0-4.8,0.5-7.2c0.1-0.5,0.2-0.9,0.1-1.4c-0.1-0.5-0.5-0.9-0.9-1.3c-0.6-0.8-0.7-1.8-0.7-2.8l0,0c0.1-0.7,0.2-1.3,0.4-2
		c0.5-1.6,1.3-3.2,1.3-4.8s-0.6-3.3-0.7-4.9c-0.2-2.7,1.3-5.3,3.6-6.7c0.7-0.4,1.5-0.7,2.3-0.9c0.1,0.7,0.4,1.2,0.8,1.7
		c1.4,1.7,4.2,2.4,6,1.1c0.7-0.5,1.3-1.2,2.1-1.6c0.9-0.5,2-0.5,3-0.7c1-0.3,2-1,2-2c0-1.5-2.2-2.5-1.8-4c0.3-1.3,2.2-1.3,3.4-0.7
		c1.2,0.6,2.6,1.5,3.8,0.9c0.6-0.3,1-0.8,1.5-1.1c1.9-1.3,5-0.3,6.3-2.2c0.7-0.9,0.8-2.5,1.9-2.8c0.5-0.1,1,0.1,1.4,0.4
		s0.7,0.8,0.9,1.3c0.3,1,0.5,2.2,1.3,2.9c0.9,0.7,2.2,0.7,3.2,0.3c1.1-0.5,1.9-1.2,2.9-1.8c2.6-1.6,5.9-1.9,8.6-0.7
		c1.5,0.7,2.8,1.9,3.5,3.4c0.6,1.2,0.9,2.6,0.7,3.8c-0.1,0.5-0.1,0.9-0.3,1.3c-0.2,0.7-0.4,1.5-0.5,2.2c-0.1,1.2,0.3,2.6,1.4,3.2
		c-2.3,0.9-2.8,4.4-0.9,5.9c0.6,0.5,1.3,0.7,1.9,1.2c0.7,0.6,1.1,1.5,1.5,2.4C261.5,130.6,261.6,130.7,261.7,130.8z"/>
	<path class="st1" d="M185.8,221.9c-1,1.1-1.9,2.2-2.8,3.4c-0.8-0.1-1.5-0.1-2.4-0.1c-1.1-0.1-2.3-0.1-3.3,0.4s-1.6,1.9-1,2.8
		c-3-1.9-6.4-3.9-9.8-3c-2.2,0.6-3.9,2.3-6.1,2.8c-3.9,0.9-7.9-2.2-11.8-1.4c-0.1,0-0.1,0.1-0.3,0.1c-0.1-0.4-0.2-0.9-0.3-1.3
		c-0.2-0.7-0.5-1.5-1.1-1.9c-1.2-0.7-3.2,0.4-3.8-0.8c-0.6-1.1,1.1-2.2,1.6-3.4c0.3-0.9,0-1.8-0.3-2.7c-0.2-0.9-0.2-2,0.5-2.6
		c-0.1-1.4-0.3-2.6-0.3-3.9l0,0c0.5-0.4,0.9-0.8,1.5-1.2c1.1-0.8,2.2-1.6,2.9-2.8c1.2-1.9,1.2-4.4,2.4-6.3c1.3,0,2.5,0.2,3.6,0.8
		c1.1,0.5,1.9,1.4,3.1,1.9c1.8,0.7,3.9,0.3,5.8,0c1.9-0.3,4.2-0.1,5.5,1.3c0.3,0.3,0.5,0.7,0.9,1c0.9,0.7,2.1,0.3,3.2,0.3
		c1.5-0.1,3.3,0.9,3.2,2.4c-0.1,1.7-2.6,2.9-2,4.5c1.5,0.1,2.9,0.3,4.4,0.3c-0.9,2.3,0.7,4.6,2.3,6.5c0.7,0.8,1.4,1.7,2.3,2.2
		C184.4,221.7,185.1,221.9,185.8,221.9z"/>
	<path class="st1" d="M208.5,205.4c-0.6,1-0.3,2.2,0.1,3.2c-2.4,1.3-4.2,4.2-6.9,4.7c-1.3,0.3-2.6-0.1-3.8,0.1
		c-1.3,0.1-2.6,0.8-3.6,1.5c-3.1,1.9-6,4.2-8.4,6.9c-0.7-0.1-1.3-0.2-1.9-0.6c-0.9-0.5-1.6-1.3-2.3-2.2c-1.5-1.9-3.2-4.2-2.3-6.5
		c-1.5-0.1-2.9-0.3-4.4-0.3c-0.6-1.6,1.9-2.8,2-4.5c0.1-1.5-1.7-2.4-3.2-2.4c-1.1,0.1-2.4,0.4-3.2-0.3c-0.3-0.3-0.6-0.7-0.9-1
		c-1.3-1.5-3.6-1.6-5.5-1.3s-4,0.7-5.8,0c-1.1-0.5-2-1.3-3.1-1.9c-1.1-0.6-2.4-0.8-3.6-0.8c0.1-0.2,0.3-0.4,0.5-0.6
		c2.1-2.3,6.2-2.1,7.7-4.8c1-1.7,0.4-4.1,1.5-5.8c1.3-2.3,5.2-2.8,5.4-5.4c0.1-0.9-0.3-1.8-0.8-2.6c0.7-0.2,1.4-0.3,2.2-0.3
		c1.5-0.1,3.1,0.3,4.4,1.1c0.9,0.6,1.6,1.4,2.7,1.6c1.1,0.2,2.4-0.5,3.5-0.1c0.6,0.2,1.1,0.6,1.7,0.9c1.9,0.9,4.1-0.2,6-1.1
		c1.9-0.9,4.4-1.5,5.9-0.1c0.7,0.7,1,1.9,1.2,2.9c0.4,2,0.8,4.1,1.3,6.2c0.1,0.7,0.3,1.4,0.8,1.9c0.7,0.7,2.2,0.8,2.4,1.8
		c0.2,0.9-0.7,1.5-1.4,2.2c-1.7,1.6-1.7,4.6,0,6.3c1.4-0.6,2.8-1.3,4.2-1.9c2.4-1.1,5.2-2.1,7.5-0.9c0.5,0.3,0.9,0.6,1.2,1.1
		s0.5,1.1,0.3,1.7C209.3,204.5,208.7,204.9,208.5,205.4z"/>
	<path class="st3" d="M202.9,50.7c-0.3,4.8-1.3,9.6-4.6,13c-0.9,0.9-2,1.8-2.4,3c-0.3,1,0,2.1-0.1,3.1c-0.5,4-6.1,5.1-8.7,8.1
		c-0.5,0.5-0.9,1.1-1.1,1.9c-0.7,1.9-0.1,4.4-1.1,6.1c-0.9,1.4-2.6,2.1-3.4,3.6c-1.1,1.9,0.1,4.4-0.3,6.7c-0.5,3.7-5,5.7-6.1,9.3
		c-0.2,0.7-0.3,1.4-0.5,2.1c-0.3,0.8-0.8,1.5-1.3,2.2c-0.3,0.4-0.5,0.8-0.7,1.2c-2.8-0.1-5.5-0.1-8.3-0.2c-1.9-0.1-3.8-0.1-5.7-0.4
		c-1.3-0.2-2.6-0.5-3.9-0.6c-2.4-0.1-4.7,0.7-7.1,1.3c-7.2,1.5-15,0.1-21.1-4c-2.2-1.5-4.4-3.6-4.6-6.3c-0.1-1.2,0.3-2.5,0-3.6
		c-0.2-0.8-0.7-1.5-1.3-2.1c-1.7-1.7-4.5-2.8-4.8-5.2c-0.1-0.8,0.2-1.6,0.5-2.4c1.3-3.6,3.1-7,5.4-10.1c1.6-2.2,3.5-4.3,4.2-7
		c0.7-2.9,0-6.5,2.4-8.2c1.7-1.2,4.6-1.2,5-3.2c0.3-1.1-0.6-2.3-1.7-2.8c-1-0.5-2.2-0.6-3.4-0.8c-3.1-0.5-6-2.2-8.1-4.5
		c-0.7-0.7-1.3-1.5-2.2-1.9c-0.9-0.3-1.8-0.2-2.7-0.4c-1.9-0.5-3.2-2.4-3.6-4.3c-0.3-1.4-0.1-2.9,0.2-4.3c0.1-0.5,0.2-1.1,0.3-1.5
		c0.4-1.7,0.7-3.5,1.1-5.2c0.7,0,1.4-0.1,2-0.5c3-1.4,6.1-2.4,9.3-3c3.3-0.6,6.7-0.8,10-0.9c-0.1-1.2-0.9-2.4-2-3
		c1.3-0.8,3-0.9,4.6-0.7c1.4,0.1,2.8,0.3,4.2,0.7c0.4,2.1,1.7,4,3.3,5.5c1.9,1.8,4.1,3.1,6.1,4.7c0.8,0.6,1.5,1.3,1.9,2.2
		c0.5,1.5-0.1,3.2,0.5,4.6c0.9,2,3.8,2.5,4.8,4.4c0.2,0.5,0.3,0.9,0.5,1.4c0.8,1.5,2.7,1.9,4.5,1.7c-0.4,0.7-0.9,1.4-1.3,2.1
		c-0.5,0.8-0.9,2.2,0.1,2.6c0.7,0.3,1.4-0.5,1.9-1.1c1-1.3,2.4-2.3,3.9-2.9c0.7-0.3,1.6-0.5,2.4-0.1c1.7,0.9,0.6,4,2.1,5.2
		c1.1,0.9,2.7,0.2,4-0.2c1.9-0.6,4-0.6,5.8,0c-0.6,0.9-0.8,2.1-0.7,3.2c0.9-0.4,1.5-1.2,2-2c1.9-2.7,4-5.3,5.9-8
		c0.3-0.4,0.7-0.9,1.1-1.1c0.5-0.2,1-0.3,1.5-0.1c2.1,0.3,3.8,1.9,5.8,2.3c1,0.2,2.1,0.1,3.1,0.1C201.3,50.4,202.1,50.5,202.9,50.7z
		"/>
</g>
</svg>
