<?xml version="1.0" encoding="utf-8"?>
<!-- Generator: Adobe Illustrator 26.1.0, SVG Export Plug-In . SVG Version: 6.00 Build 0)  -->
<svg version="1.1" id="Layer_1" xmlns="http://www.w3.org/2000/svg" xmlns:xlink="http://www.w3.org/1999/xlink" x="0px" y="0px"
	 viewBox="0 0 272.22 209.2" style="enable-background:new 0 0 272.22 209.2;" xml:space="preserve">
<style type="text/css">
	.st0{fill:#FFFFFF;}
</style>
<path class="st0" d="M87.65,58.98c0-7.66,0.05-15.32-0.03-22.97c-0.02-2.05,0.75-3.3,2.54-4.29c13.8-7.61,27.56-15.26,41.31-22.96
	c1.76-0.98,3.26-1.02,5.03-0.03c13.8,7.73,27.63,15.41,41.48,23.06c1.72,0.95,2.42,2.2,2.42,4.17c-0.05,15.38-0.05,30.76,0,46.14
	c0.01,1.98-0.75,3.21-2.45,4.15c-13.91,7.68-27.79,15.39-41.66,23.14c-1.56,0.87-2.9,0.91-4.48,0.03
	c-13.93-7.78-27.88-15.51-41.84-23.23c-1.63-0.9-2.35-2.14-2.33-4.03C87.69,74.43,87.65,66.71,87.65,58.98z M94.15,40.53
	c-0.05,0.56-0.09,0.81-0.09,1.06c0,12.71,0.02,25.41-0.04,38.12c-0.01,1.26,0.61,1.71,1.53,2.22c11.15,6.17,22.29,12.38,33.44,18.57
	c0.54,0.3,1.1,0.56,1.83,0.93c0-13.38,0.02-26.41-0.05-39.45c0-0.59-0.65-1.39-1.21-1.73c-2.68-1.6-5.43-3.07-8.16-4.58
	C112.39,50.67,103.4,45.68,94.15,40.53z M173.97,40.6c-0.56,0.25-0.92,0.38-1.24,0.56c-11.44,6.35-22.86,12.73-34.32,19.03
	c-1.11,0.61-1.21,1.37-1.21,2.41c0.02,12.37,0.01,24.75,0.01,37.12c0,0.49,0,0.98,0,1.69c0.82-0.41,1.35-0.66,1.86-0.94
	c11.09-6.16,22.16-12.34,33.28-18.44c1.32-0.72,1.66-1.54,1.66-2.96c-0.06-11.91-0.03-23.81-0.03-35.72
	C173.97,42.52,173.97,41.67,173.97,40.6z M97.57,34.97c0.55,0.37,0.8,0.57,1.08,0.73c11.38,6.32,22.75,12.66,34.17,18.9
	c0.67,0.37,1.94,0.26,2.65-0.13c11.07-6.06,22.09-12.21,33.12-18.34c0.55-0.31,1.07-0.67,1.68-1.06c-0.29-0.24-0.42-0.39-0.58-0.48
	c-11.55-6.43-23.09-12.86-34.68-19.23c-0.55-0.3-1.55-0.23-2.13,0.06c-2.49,1.26-4.9,2.66-7.34,4.01
	C116.33,24.55,107.1,29.68,97.57,34.97z"/>
<path class="st0" d="M236.32,151.69c0,7.66-0.04,15.32,0.03,22.97c0.02,2.04-0.72,3.33-2.51,4.32
	c-13.85,7.64-27.68,15.33-41.48,23.06c-1.71,0.96-3.16,0.91-4.84-0.03c-13.75-7.69-27.52-15.35-41.31-22.96
	c-1.85-1.02-2.64-2.32-2.63-4.45c0.06-15.31,0.06-30.63,0.01-45.94c-0.01-1.97,0.69-3.21,2.42-4.16
	c13.85-7.65,27.68-15.33,41.48-23.06c1.77-0.99,3.27-0.95,5.03,0.04c13.74,7.7,27.51,15.36,41.31,22.96
	c1.8,0.99,2.56,2.24,2.54,4.29C236.27,136.37,236.32,144.03,236.32,151.69z M193.16,194.12c0.59-0.28,0.94-0.43,1.27-0.61
	c11.44-6.35,22.86-12.72,34.33-19.02c1.13-0.62,1.18-1.41,1.17-2.43c-0.01-12.37-0.01-24.75-0.01-37.12c0-0.49-0.04-0.98-0.07-1.56
	c-0.39,0.14-0.58,0.18-0.74,0.27c-11.61,6.44-23.22,12.9-34.86,19.3c-1.15,0.63-1.09,1.48-1.09,2.48
	c0.01,12.24,0.01,24.48,0.01,36.72C193.16,192.73,193.16,193.3,193.16,194.12z M150,133.18c0,13.42-0.02,26.45,0.06,39.49
	c0,0.63,0.72,1.5,1.34,1.84c11.23,6.31,22.5,12.55,33.77,18.8c0.44,0.25,0.91,0.46,1.44,0.73c0.08-0.35,0.15-0.53,0.15-0.71
	c0.01-12.84,0.03-25.68-0.04-38.51c0-0.65-0.66-1.54-1.27-1.89c-5.3-3.04-10.66-5.97-16-8.94C163.07,140.45,156.7,136.91,150,133.18
	z M153.54,127.67c0.51,0.36,0.71,0.53,0.94,0.66c11.44,6.35,22.87,12.73,34.35,19c0.67,0.36,1.93,0.22,2.65-0.18
	c11.01-6.03,21.97-12.15,32.95-18.25c0.6-0.33,1.17-0.73,1.82-1.13c-0.26-0.25-0.34-0.36-0.45-0.42
	c-11.61-6.46-23.21-12.93-34.86-19.32c-0.58-0.32-1.68-0.16-2.31,0.18c-4.97,2.68-9.88,5.46-14.82,8.2
	C167.13,120.12,160.46,123.82,153.54,127.67z"/>
<path class="st0" d="M124.42,151.76c0,7.59-0.05,15.18,0.03,22.77c0.02,2.11-0.7,3.45-2.58,4.48c-13.8,7.6-27.56,15.26-41.31,22.96
	c-1.77,0.99-3.26,0.98-5.02-0.01c-13.74-7.7-27.51-15.35-41.31-22.97c-1.78-0.98-2.57-2.22-2.57-4.29c0.05-15.38,0.05-30.76,0-46.14
	c-0.01-1.99,0.77-3.18,2.48-4.12c13.79-7.61,27.57-15.26,41.31-22.96c1.84-1.03,3.37-1.02,5.2,0.01
	c13.68,7.67,27.4,15.29,41.14,22.86c1.85,1.02,2.68,2.29,2.65,4.43C124.37,136.44,124.42,144.1,124.42,151.76z M118.03,133.28
	c-0.58,0.27-0.93,0.41-1.26,0.59c-11.44,6.35-22.86,12.73-34.32,19.03c-1.12,0.61-1.2,1.39-1.19,2.42
	c0.02,12.37,0.01,24.75,0.01,37.12c0,0.49,0.04,0.98,0.07,1.56c0.39-0.14,0.58-0.18,0.75-0.27c11.62-6.44,23.22-12.9,34.86-19.29
	c1.16-0.63,1.09-1.49,1.09-2.48c-0.01-12.24,0-24.48,0-36.72C118.03,134.67,118.03,134.1,118.03,133.28z M74.73,194.13
	c0.07-0.48,0.12-0.67,0.12-0.86c0.01-12.77-0.02-25.54,0.05-38.31c0.01-1.29-0.66-1.7-1.57-2.2c-11.15-6.18-22.29-12.38-33.43-18.58
	c-0.51-0.28-1.03-0.53-1.71-0.87c-0.04,0.44-0.08,0.68-0.08,0.92c0,12.77-0.02,25.54,0.05,38.31c0,0.65,0.63,1.56,1.23,1.91
	c4.13,2.4,8.33,4.69,12.51,7.01C59.44,185.64,66.97,189.83,74.73,194.13z M41.63,127.67c0.55,0.37,0.8,0.57,1.07,0.72
	c11.38,6.32,22.75,12.66,34.17,18.9c0.68,0.37,1.94,0.26,2.65-0.13c11.07-6.06,22.09-12.21,33.12-18.34
	c0.55-0.31,1.07-0.67,1.68-1.06c-0.28-0.24-0.41-0.39-0.57-0.48c-11.55-6.43-23.09-12.86-34.68-19.23c-0.55-0.3-1.55-0.24-2.13,0.06
	c-2.49,1.26-4.9,2.66-7.34,4.01C60.38,117.25,51.16,122.38,41.63,127.67z"/>
<path class="st0" d="M175.55,100.59c-0.01,1.69-1.51,3.17-3.2,3.15c-1.69-0.01-3.17-1.5-3.16-3.19c0.01-1.69,1.5-3.16,3.19-3.15
	C174.1,97.42,175.57,98.9,175.55,100.59z"/>
<path class="st0" d="M98.83,100.59c-0.02,1.69-1.52,3.16-3.2,3.15c-1.69-0.01-3.17-1.51-3.16-3.2c0.01-1.69,1.51-3.16,3.2-3.14
	C97.38,97.42,98.84,98.9,98.83,100.59z"/>
<path class="st0" d="M111.61,106.95c0,1.69-1.48,3.18-3.17,3.18c-1.69,0.01-3.18-1.47-3.19-3.16c-0.01-1.69,1.46-3.17,3.17-3.18
	C110.12,103.79,111.61,105.26,111.61,106.95z"/>
<path class="st0" d="M159.53,103.8c1.69-0.04,3.21,1.41,3.24,3.1c0.03,1.68-1.43,3.2-3.12,3.23c-1.68,0.04-3.2-1.42-3.24-3.11
	C156.37,105.33,157.82,103.83,159.53,103.8z"/>
<path class="st0" d="M188.34,94.26c-0.06,1.69-1.59,3.14-3.27,3.08c-1.69-0.05-3.14-1.58-3.09-3.26c0.05-1.69,1.58-3.13,3.27-3.08
	C186.96,91.07,188.4,92.58,188.34,94.26z"/>
<path class="st0" d="M82.91,91.01c1.71,0.03,3.16,1.53,3.13,3.22c-0.03,1.69-1.55,3.15-3.23,3.12c-1.69-0.03-3.15-1.54-3.13-3.22
	C79.71,92.43,81.22,90.98,82.91,91.01z"/>
<path class="st0" d="M124.4,113.42c-0.04,1.69-1.57,3.15-3.24,3.1c-1.69-0.04-3.15-1.56-3.11-3.24c0.04-1.69,1.55-3.14,3.25-3.1
	C123,110.23,124.45,111.73,124.4,113.42z"/>
<path class="st0" d="M146.81,110.19c1.7,0.01,3.18,1.48,3.17,3.17c-0.01,1.69-1.5,3.17-3.19,3.16c-1.69-0.01-3.17-1.49-3.17-3.18
	C143.62,111.65,145.11,110.18,146.81,110.19z"/>
<path class="st0" d="M133.99,122.92c-1.69-0.01-3.17-1.51-3.16-3.19c0.01-1.69,1.51-3.16,3.2-3.14c1.7,0.01,3.17,1.5,3.16,3.19
	C137.17,121.46,135.67,122.93,133.99,122.92z"/>
<path class="st0" d="M133.98,129.37c1.69-0.02,3.19,1.45,3.21,3.14c0.01,1.68-1.46,3.18-3.15,3.2c-1.68,0.02-3.19-1.45-3.21-3.14
	C130.81,130.87,132.28,129.39,133.98,129.37z"/>
<path class="st0" d="M197.93,84.62c1.7-0.01,3.19,1.46,3.2,3.15c0.01,1.69-1.47,3.18-3.16,3.19c-1.68,0.01-3.18-1.46-3.2-3.15
	C194.76,86.11,196.23,84.62,197.93,84.62z"/>
<path class="st0" d="M73.25,87.83c-0.03,1.69-1.54,3.15-3.22,3.13c-1.69-0.03-3.16-1.54-3.13-3.22c0.02-1.69,1.53-3.14,3.23-3.12
	C71.82,84.64,73.28,86.14,73.25,87.83z"/>
<path class="st0" d="M213.92,81.46c-0.04,1.69-1.57,3.14-3.25,3.1c-1.69-0.04-3.15-1.56-3.11-3.24c0.04-1.69,1.56-3.14,3.24-3.1
	C212.52,78.27,213.96,79.77,213.92,81.46z"/>
<path class="st0" d="M60.46,81.32c0.04,1.68-1.42,3.2-3.11,3.24c-1.65,0.04-3.21-1.45-3.25-3.11c-0.04-1.68,1.41-3.19,3.11-3.22
	C58.91,78.19,60.43,79.63,60.46,81.32z"/>
<path class="st0" d="M137.19,145.37c-0.03,1.69-1.54,3.15-3.22,3.13c-1.69-0.03-3.16-1.53-3.13-3.22c0.02-1.69,1.53-3.15,3.22-3.12
	C135.76,142.18,137.22,143.68,137.19,145.37z"/>
<path class="st0" d="M137.19,158.04c0.03,1.68-1.43,3.2-3.11,3.24c-1.68,0.04-3.2-1.42-3.24-3.11c-0.04-1.69,1.41-3.19,3.12-3.23
	C135.64,154.9,137.16,156.35,137.19,158.04z"/>
<path class="st0" d="M133.99,174.07c-1.69-0.01-3.17-1.51-3.16-3.19c0.01-1.69,1.51-3.16,3.2-3.14c1.7,0.01,3.17,1.5,3.16,3.19
	C137.17,172.6,135.67,174.08,133.99,174.07z"/>
<path class="st0" d="M137.19,183.73c-0.03,1.69-1.54,3.15-3.22,3.13c-1.69-0.03-3.16-1.54-3.13-3.22c0.02-1.69,1.53-3.15,3.22-3.12
	C135.76,180.54,137.22,182.04,137.19,183.73z"/>
<path class="st0" d="M137.19,196.51c-0.03,1.69-1.53,3.16-3.22,3.13c-1.69-0.02-3.16-1.53-3.14-3.21c0.02-1.69,1.52-3.15,3.22-3.13
	C135.75,193.33,137.22,194.82,137.19,196.51z"/>
</svg>
