<?xml version="1.0" encoding="utf-8"?>
<!-- Generator: Adobe Illustrator 26.1.0, SVG Export Plug-In . SVG Version: 6.00 Build 0)  -->
<svg version="1.1" id="Layer_1" xmlns="http://www.w3.org/2000/svg" xmlns:xlink="http://www.w3.org/1999/xlink" x="0px" y="0px"
	 viewBox="0 0 272.22 209.2" style="enable-background:new 0 0 272.22 209.2;" xml:space="preserve">
<style type="text/css">
	.st0{fill:#FFFFFF;}
</style>
<g>
	<path class="st0" d="M244.76,72.3c5.03,2.89,9.84,5.65,14.65,8.42c0.72,0.41,1.45,0.81,2.16,1.25c3.22,2,3.25,4.86,0,6.78
		c-4.65,2.75-9.35,5.4-14.02,8.1c-0.79,0.45-1.57,0.92-2.75,1.62c0.95,0.57,1.66,1.03,2.39,1.45c4.53,2.61,9.06,5.23,13.61,7.81
		c1.56,0.88,3.48,1.84,3,3.78c-0.36,1.45-1.68,3.04-3.02,3.81c-37.21,21.58-74.48,43.06-111.74,64.55
		c-14.75,8.51-29.51,16.98-44.21,25.57c-2.27,1.33-4.09,1.4-6.42,0.06c-28.99-16.73-58.02-33.37-87.05-50.03
		c-4.16-2.39-4.19-5.11-0.06-7.49c5.31-3.08,10.63-6.13,16.26-9.37c-5.52-3.17-10.76-6.2-16.01-9.2c-1.61-0.92-3.66-1.87-3.11-3.97
		c0.38-1.44,1.8-2.89,3.13-3.73c4.43-2.78,9.03-5.28,13.56-7.9c0.69-0.4,1.34-0.87,2.29-1.49c-4.85-2.79-9.44-5.42-14.02-8.05
		c-0.79-0.45-1.59-0.9-2.38-1.36c-3.68-2.17-3.72-4.99-0.03-7.13c12.72-7.37,25.45-14.71,38.18-22.06
		c39.27-22.66,78.56-45.3,117.79-68.04c2.74-1.59,4.83-1.53,7.53,0.03c28.54,16.5,57.15,32.89,85.73,49.3
		c0.43,0.25,0.88,0.48,1.3,0.74c3.23,1.97,3.31,4.84,0.07,6.77c-4.57,2.72-9.2,5.32-13.8,7.98
		C246.87,71.03,245.95,71.59,244.76,72.3z M171.93,158.28c0.44-0.07,0.71-0.04,0.89-0.14c5.48-3.14,10.98-6.24,16.37-9.51
		c0.7-0.42,1.21-1.73,1.21-2.63c0.03-14.8,0-29.6-0.14-44.41c-0.01-0.99-0.79-2.39-1.64-2.88c-27.69-15.98-55.43-31.88-83.2-47.73
		c-0.73-0.41-2.06-0.39-2.82,0c-3.1,1.59-6.09,3.39-9.11,5.14c-2.6,1.5-5.18,3.03-7.98,4.68c0.89,0.55,1.45,0.92,2.02,1.24
		c26.73,15.33,53.43,30.69,80.21,45.93c2.88,1.64,4.04,3.53,4,6.9c-0.14,13.55,0.02,27.11,0.07,40.66
		C171.82,156.43,171.89,157.31,171.93,158.28z M253.42,59.22c-0.59-0.4-0.85-0.6-1.13-0.76c-26.72-15.35-53.45-30.68-80.14-46.08
		c-1.28-0.74-2.08-0.43-3.12,0.18c-18.69,10.81-37.4,21.6-56.1,32.4c-0.55,0.32-1.05,0.7-1.78,1.2c2.95,1.71,5.72,3.19,8.35,4.89
		c1.53,0.99,2.71,0.93,4.27,0.02c10.82-6.34,21.71-12.56,32.54-18.89c1.79-1.04,3.42-1.33,5.41-0.59c4.88,1.82,9.85,2.02,14.92,0.58
		c1.15-0.33,2.75-0.21,3.77,0.37c12.08,6.81,24.1,13.74,36.12,20.66c1.73,1,2.13,2.46,1.83,4.45c-0.25,1.64-0.27,3.52,0.3,5.03
		c1.33,3.55,1.18,4.55-2.13,6.46c-7.62,4.41-15.25,8.8-22.88,13.2c-3.14,1.81-6.27,3.63-9.74,5.64c2.93,1.68,5.54,3.08,8.04,4.67
		c1.31,0.83,2.29,0.76,3.6-0.01c6.44-3.8,12.94-7.48,19.42-11.22C227.7,74.08,240.43,66.72,253.42,59.22z M18.86,99.22
		c0.67,0.46,1.12,0.82,1.61,1.1c26.51,15.21,53.03,30.41,79.51,45.66c1.29,0.74,2.18,0.58,3.35-0.1
		c18.61-10.79,37.24-21.54,55.86-32.31c0.6-0.34,1.14-0.77,1.91-1.29c-2.83-1.62-5.43-2.95-7.85-4.55c-1.8-1.19-3.19-1.22-5.13-0.07
		c-10.65,6.31-21.42,12.41-32.11,18.64c-1.78,1.04-3.42,1.35-5.42,0.61c-4.88-1.81-9.84-2.05-14.92-0.59
		c-1.15,0.33-2.75,0.24-3.76-0.33c-12.09-6.8-24.1-13.73-36.13-20.65c-1.69-0.97-2.17-2.37-1.86-4.42c0.27-1.78,0.1-3.8-0.5-5.49
		c-1.05-2.94-0.88-4.15,1.87-5.75c4.45-2.59,8.92-5.15,13.37-7.73c6.45-3.72,12.89-7.45,19.69-11.39c-2.82-1.63-5.37-2.97-7.78-4.54
		c-1.51-0.98-2.66-0.97-4.26-0.04c-11.82,6.93-23.71,13.74-35.58,20.59C33.52,90.76,26.28,94.94,18.86,99.22z M164.92,144.59
		c-1.31,0.73-2.04,1.12-2.75,1.53c-18.99,10.95-37.99,21.87-56.93,32.91c-2.62,1.53-4.68,1.51-7.34-0.03
		c-20.4-11.83-40.87-23.52-61.35-35.21c-0.83-0.47-2.19-0.96-2.86-0.6c-4.94,2.66-9.77,5.52-14.83,8.44
		c0.41,0.3,0.59,0.47,0.81,0.59c26.93,15.47,53.85,30.93,80.81,46.34c0.6,0.34,1.77,0.26,2.41-0.11
		c20.24-11.61,40.44-23.27,60.63-34.96c0.58-0.33,1.34-1.01,1.35-1.55C164.95,156.34,164.92,150.71,164.92,144.59z M164.8,118.49
		c-1.21,0.65-1.94,1.01-2.64,1.41c-18.91,10.91-37.86,21.77-56.7,32.8c-2.8,1.64-4.95,1.66-7.75,0.03
		C79.27,142,60.74,131.42,42.23,120.8c-2.52-1.45-5.07-4-7.58-3.97c-2.62,0.03-5.22,2.55-7.81,4.01c-2.62,1.48-5.22,3.01-7.96,4.59
		c0.45,0.35,0.57,0.46,0.71,0.54c26.85,15.42,53.7,30.86,80.59,46.21c0.73,0.42,2.1,0.36,2.88-0.05c2.95-1.51,5.79-3.25,8.66-4.91
		c17.04-9.83,34.1-19.65,51.11-29.53c0.82-0.47,1.86-1.47,1.88-2.25C164.88,129.97,164.8,124.49,164.8,118.49z M211.37,64.1
		c-0.15-1.62-0.13-3.05-0.45-4.4c-0.21-0.9-0.69-2.06-1.41-2.48c-10.03-5.87-20.11-11.65-30.22-17.38
		c-0.76-0.43-1.89-0.61-2.75-0.43c-4.99,1.03-9.89,0.7-14.82-0.4c-1.22-0.27-2.83-0.15-3.89,0.45
		c-9.12,5.12-18.16,10.38-27.21,15.61c-0.58,0.34-1.12,0.76-1.82,1.25c15.85,9.12,31.45,18.11,47.1,27.03
		c0.59,0.33,1.75,0.15,2.41-0.21c4.57-2.53,9.09-5.18,13.62-7.79C198.43,71.59,204.95,67.81,211.37,64.1z M60.93,94.46
		c0.15,1.58,0.12,3.02,0.48,4.35c0.26,0.96,0.82,2.15,1.61,2.61c9.89,5.79,19.84,11.49,29.82,17.12c0.89,0.5,2.2,0.66,3.21,0.47
		c4.92-0.94,9.74-0.6,14.59,0.48c1.22,0.27,2.83,0.13,3.9-0.47c6.83-3.78,13.56-7.73,20.32-11.64c2.86-1.65,5.72-3.32,8.79-5.11
		c-15.91-9.14-31.52-18.13-47.18-27.05c-0.6-0.34-1.75-0.21-2.41,0.14C91,77.02,88,78.8,84.98,80.55
		C76.93,85.2,68.89,89.85,60.93,94.46z M253.53,85.36c-4.86-2.79-9.29-5.25-13.61-7.88c-1.54-0.93-2.67-0.97-4.26-0.03
		c-10.1,5.93-20.28,11.72-30.41,17.58c-2.65,1.53-6.25,2.6-7.58,4.93c-1.33,2.34-0.39,5.98-0.41,9.05c-0.02,2.78,0,5.55,0,8.83
		C216.28,106.86,234.73,96.22,253.53,85.36z M197.35,144c18.98-10.95,37.42-21.6,56.19-32.43c-5.26-3.01-10.2-5.87-15.19-8.64
		c-0.42-0.23-1.27-0.02-1.76,0.26c-12.67,7.27-25.33,14.57-37.96,21.92c-0.59,0.34-1.21,1.23-1.22,1.88
		C197.31,132.46,197.35,137.94,197.35,144z"/>
	<path class="st0" d="M165.87,66.43c-0.79-0.72-2.24-1.41-2.49-2.41c-0.29-1.14,0.05-3.21,0.86-3.73c4.74-3.03,9.65-5.84,14.62-8.49
		c1.6-0.85,3.17,0.17,3.91,1.74c0.91,1.91,0.32,3.57-1.55,4.66c-4.23,2.46-8.47,4.91-12.73,7.33
		C167.86,65.89,167.1,66.01,165.87,66.43z"/>
	<path class="st0" d="M91.13,103.46c0.36-0.46,0.91-1.67,1.85-2.25c4.9-2.97,9.88-5.8,14.86-8.62c1.89-1.07,3.62-0.61,4.74,1.21
		c1.17,1.9,0.53,3.63-1.26,4.71c-4.98,2.99-10,5.94-15.1,8.71C93.72,108.58,91.08,106.88,91.13,103.46z"/>
</g>
</svg>
