<?xml version="1.0" encoding="utf-8"?>
<!-- Generator: Adobe Illustrator 26.1.0, SVG Export Plug-In . SVG Version: 6.00 Build 0)  -->
<svg version="1.1" id="Layer_1" xmlns="http://www.w3.org/2000/svg" xmlns:xlink="http://www.w3.org/1999/xlink" x="0px" y="0px"
	 viewBox="0 0 496.37 374.71" style="enable-background:new 0 0 496.37 374.71;" xml:space="preserve">
<style type="text/css">
	.st0{fill:#FFFFFF;}
	.st1{fill:none;stroke:#FFFFFF;stroke-miterlimit:10;}
	.st2{fill:url(#SVGID_1_);}
	.st3{clip-path:url(#SVGID_00000156574782277510234510000005044402622641679004_);}
	.st4{opacity:0.2;}
</style>
<g>
	<path class="st0" d="M30.97,19.64c0.32,0.48,0.47,1.04,0.47,1.67c0,0.75-0.21,1.4-0.64,1.96c-0.43,0.56-1.02,0.99-1.79,1.29
		s-1.66,0.46-2.67,0.46c-1.01,0-1.9-0.15-2.67-0.46s-1.36-0.74-1.78-1.29c-0.42-0.56-0.63-1.21-0.63-1.96
		c0-0.63,0.16-1.19,0.47-1.67c0.32-0.48,0.77-0.87,1.35-1.17c-0.45-0.28-0.79-0.62-1.04-1.04c-0.24-0.42-0.36-0.9-0.36-1.44
		c0-0.7,0.2-1.31,0.59-1.83s0.94-0.92,1.64-1.2c0.7-0.28,1.51-0.42,2.42-0.42c0.92,0,1.73,0.14,2.44,0.42
		c0.71,0.28,1.26,0.68,1.65,1.2s0.59,1.13,0.59,1.83c0,0.54-0.12,1.02-0.36,1.44c-0.24,0.42-0.59,0.77-1.05,1.04
		C30.2,18.76,30.65,19.15,30.97,19.64z M28,22.49c0.41-0.32,0.61-0.74,0.61-1.27c0-0.53-0.2-0.95-0.61-1.26s-0.96-0.47-1.66-0.47
		c-0.69,0-1.24,0.16-1.64,0.47c-0.4,0.31-0.6,0.73-0.6,1.26c0,0.54,0.2,0.97,0.6,1.28c0.4,0.31,0.95,0.47,1.64,0.47
		C27.04,22.97,27.59,22.81,28,22.49z M24.98,14.99c-0.34,0.27-0.51,0.64-0.51,1.11c0,0.46,0.17,0.82,0.5,1.09
		c0.33,0.26,0.79,0.4,1.36,0.4c0.57,0,1.04-0.13,1.38-0.4c0.35-0.26,0.52-0.63,0.52-1.09c0-0.47-0.17-0.84-0.52-1.11
		c-0.34-0.27-0.81-0.41-1.38-0.41C25.77,14.58,25.32,14.72,24.98,14.99z"/>
	<path class="st0" d="M40.64,17.7c0.63,0.31,1.13,0.75,1.5,1.32c0.37,0.57,0.55,1.23,0.55,1.98c0,0.81-0.2,1.51-0.6,2.12
		c-0.4,0.61-0.95,1.08-1.65,1.41c-0.7,0.33-1.47,0.49-2.32,0.49c-1.69,0-3.01-0.52-3.97-1.55s-1.43-2.51-1.43-4.43
		c0-1.37,0.26-2.54,0.78-3.52s1.24-1.72,2.17-2.23c0.93-0.51,2-0.76,3.22-0.76c0.64,0,1.26,0.07,1.85,0.22
		c0.59,0.14,1.1,0.35,1.51,0.61l-1.04,2.05c-0.6-0.4-1.35-0.6-2.26-0.6c-1.02,0-1.83,0.3-2.43,0.9c-0.6,0.6-0.92,1.47-0.97,2.6
		c0.71-0.71,1.71-1.07,2.98-1.07C39.31,17.24,40.01,17.39,40.64,17.7z M39.42,22.45c0.37-0.32,0.56-0.76,0.56-1.31
		c0-0.55-0.19-0.99-0.56-1.32c-0.37-0.33-0.87-0.49-1.49-0.49c-0.61,0-1.11,0.17-1.5,0.51s-0.59,0.77-0.59,1.3
		c0,0.53,0.19,0.96,0.57,1.29c0.38,0.33,0.9,0.5,1.55,0.5C38.56,22.93,39.05,22.77,39.42,22.45z"/>
	<path class="st0" d="M44.28,24.47c-0.32-0.32-0.48-0.72-0.48-1.21c0-0.49,0.16-0.89,0.48-1.2c0.32-0.3,0.72-0.46,1.19-0.46
		s0.87,0.15,1.19,0.46s0.48,0.7,0.48,1.2c0,0.48-0.16,0.89-0.48,1.21c-0.32,0.32-0.72,0.48-1.19,0.48S44.6,24.79,44.28,24.47z"/>
	<path class="st0" d="M50.68,24.28c-0.78-0.49-1.39-1.21-1.84-2.15c-0.44-0.94-0.66-2.06-0.66-3.36c0-1.3,0.22-2.42,0.66-3.36
		c0.44-0.94,1.06-1.65,1.84-2.15c0.78-0.49,1.67-0.74,2.67-0.74s1.89,0.25,2.67,0.74c0.78,0.49,1.39,1.21,1.84,2.15
		c0.44,0.94,0.66,2.06,0.66,3.36c0,1.3-0.22,2.42-0.66,3.36c-0.44,0.94-1.06,1.65-1.84,2.15c-0.78,0.49-1.67,0.74-2.67,0.74
		S51.46,24.77,50.68,24.28z M55.09,21.71c0.42-0.63,0.63-1.61,0.63-2.93c0-1.32-0.21-2.3-0.63-2.93s-1-0.95-1.73-0.95
		c-0.72,0-1.3,0.32-1.72,0.95c-0.42,0.63-0.63,1.61-0.63,2.93c0,1.32,0.21,2.3,0.63,2.93c0.42,0.63,0.99,0.95,1.72,0.95
		C54.09,22.65,54.67,22.34,55.09,21.71z"/>
	<path class="st0" d="M62.39,24.28c-0.78-0.49-1.39-1.21-1.84-2.15c-0.44-0.94-0.66-2.06-0.66-3.36c0-1.3,0.22-2.42,0.66-3.36
		c0.44-0.94,1.06-1.65,1.84-2.15c0.78-0.49,1.67-0.74,2.67-0.74s1.89,0.25,2.67,0.74c0.78,0.49,1.39,1.21,1.84,2.15
		c0.44,0.94,0.66,2.06,0.66,3.36c0,1.3-0.22,2.42-0.66,3.36c-0.44,0.94-1.06,1.65-1.84,2.15c-0.78,0.49-1.67,0.74-2.67,0.74
		S63.18,24.77,62.39,24.28z M66.8,21.71c0.42-0.63,0.63-1.61,0.63-2.93c0-1.32-0.21-2.3-0.63-2.93s-1-0.95-1.73-0.95
		c-0.72,0-1.3,0.32-1.72,0.95c-0.42,0.63-0.63,1.61-0.63,2.93c0,1.32,0.21,2.3,0.63,2.93c0.42,0.63,0.99,0.95,1.72,0.95
		C65.8,22.65,66.38,22.34,66.8,21.71z"/>
	<path class="st0" d="M74.11,24.28c-0.78-0.49-1.39-1.21-1.84-2.15c-0.44-0.94-0.66-2.06-0.66-3.36c0-1.3,0.22-2.42,0.66-3.36
		c0.44-0.94,1.06-1.65,1.84-2.15c0.78-0.49,1.67-0.74,2.67-0.74s1.89,0.25,2.67,0.74c0.78,0.49,1.39,1.21,1.84,2.15
		c0.44,0.94,0.66,2.06,0.66,3.36c0,1.3-0.22,2.42-0.66,3.36c-0.44,0.94-1.06,1.65-1.84,2.15c-0.78,0.49-1.67,0.74-2.67,0.74
		S74.89,24.77,74.11,24.28z M78.51,21.71c0.42-0.63,0.63-1.61,0.63-2.93c0-1.32-0.21-2.3-0.63-2.93s-1-0.95-1.73-0.95
		c-0.72,0-1.3,0.32-1.72,0.95c-0.42,0.63-0.63,1.61-0.63,2.93c0,1.32,0.21,2.3,0.63,2.93c0.42,0.63,0.99,0.95,1.72,0.95
		C77.52,22.65,78.09,22.34,78.51,21.71z"/>
	<path class="st0" d="M83.49,24.47c-0.32-0.32-0.48-0.72-0.48-1.21c0-0.49,0.16-0.89,0.48-1.2c0.32-0.3,0.72-0.46,1.19-0.46
		s0.87,0.15,1.19,0.46s0.48,0.7,0.48,1.2c0,0.48-0.16,0.89-0.48,1.21c-0.32,0.32-0.72,0.48-1.19,0.48S83.81,24.79,83.49,24.47z"/>
	<path class="st0" d="M89.89,24.28c-0.78-0.49-1.39-1.21-1.84-2.15c-0.44-0.94-0.66-2.06-0.66-3.36c0-1.3,0.22-2.42,0.66-3.36
		c0.44-0.94,1.06-1.65,1.84-2.15c0.78-0.49,1.67-0.74,2.67-0.74s1.89,0.25,2.67,0.74c0.78,0.49,1.39,1.21,1.84,2.15
		c0.44,0.94,0.66,2.06,0.66,3.36c0,1.3-0.22,2.42-0.66,3.36c-0.44,0.94-1.06,1.65-1.84,2.15c-0.78,0.49-1.67,0.74-2.67,0.74
		S90.67,24.77,89.89,24.28z M94.3,21.71c0.42-0.63,0.63-1.61,0.63-2.93c0-1.32-0.21-2.3-0.63-2.93s-1-0.95-1.73-0.95
		c-0.72,0-1.3,0.32-1.72,0.95c-0.42,0.63-0.63,1.61-0.63,2.93c0,1.32,0.21,2.3,0.63,2.93c0.42,0.63,0.99,0.95,1.72,0.95
		C93.3,22.65,93.88,22.34,94.3,21.71z"/>
	<path class="st0" d="M101.61,24.28c-0.78-0.49-1.39-1.21-1.84-2.15c-0.44-0.94-0.66-2.06-0.66-3.36c0-1.3,0.22-2.42,0.66-3.36
		c0.44-0.94,1.06-1.65,1.84-2.15c0.78-0.49,1.67-0.74,2.67-0.74s1.89,0.25,2.67,0.74c0.78,0.49,1.39,1.21,1.84,2.15
		c0.44,0.94,0.66,2.06,0.66,3.36c0,1.3-0.22,2.42-0.66,3.36c-0.44,0.94-1.06,1.65-1.84,2.15c-0.78,0.49-1.67,0.74-2.67,0.74
		S102.39,24.77,101.61,24.28z M106.01,21.71c0.42-0.63,0.63-1.61,0.63-2.93c0-1.32-0.21-2.3-0.63-2.93s-1-0.95-1.73-0.95
		c-0.72,0-1.3,0.32-1.72,0.95c-0.42,0.63-0.63,1.61-0.63,2.93c0,1.32,0.21,2.3,0.63,2.93c0.42,0.63,0.99,0.95,1.72,0.95
		C105.02,22.65,105.59,22.34,106.01,21.71z"/>
	<path class="st0" d="M113.32,24.28c-0.78-0.49-1.39-1.21-1.84-2.15c-0.44-0.94-0.66-2.06-0.66-3.36c0-1.3,0.22-2.42,0.66-3.36
		c0.44-0.94,1.06-1.65,1.84-2.15c0.78-0.49,1.67-0.74,2.67-0.74s1.89,0.25,2.67,0.74c0.78,0.49,1.39,1.21,1.84,2.15
		c0.44,0.94,0.66,2.06,0.66,3.36c0,1.3-0.22,2.42-0.66,3.36c-0.44,0.94-1.06,1.65-1.84,2.15c-0.78,0.49-1.67,0.74-2.67,0.74
		S114.1,24.77,113.32,24.28z M117.73,21.71c0.42-0.63,0.63-1.61,0.63-2.93c0-1.32-0.21-2.3-0.63-2.93s-1-0.95-1.73-0.95
		c-0.72,0-1.3,0.32-1.72,0.95c-0.42,0.63-0.63,1.61-0.63,2.93c0,1.32,0.21,2.3,0.63,2.93c0.42,0.63,0.99,0.95,1.72,0.95
		C116.73,22.65,117.31,22.34,117.73,21.71z"/>
</g>
<g>
	<path class="st0" d="M181.52,355.48v2.28h-9.13v-1.81l4.66-4.4c0.49-0.47,0.83-0.88,1-1.21c0.17-0.34,0.26-0.68,0.26-1.01
		c0-0.48-0.16-0.85-0.49-1.11c-0.33-0.26-0.81-0.39-1.44-0.39c-0.53,0-1.01,0.1-1.43,0.3c-0.43,0.2-0.78,0.5-1.07,0.91l-2.04-1.31
		c0.47-0.7,1.12-1.25,1.95-1.65s1.78-0.6,2.85-0.6c0.9,0,1.68,0.15,2.35,0.44c0.67,0.29,1.2,0.71,1.57,1.24
		c0.37,0.53,0.56,1.16,0.56,1.89c0,0.65-0.14,1.27-0.41,1.85c-0.28,0.57-0.81,1.23-1.6,1.97l-2.78,2.62H181.52z"/>
	<path class="st0" d="M185.14,357.23c-0.78-0.49-1.39-1.21-1.84-2.15s-0.66-2.06-0.66-3.36c0-1.3,0.22-2.42,0.66-3.36
		s1.06-1.65,1.84-2.15c0.78-0.49,1.67-0.74,2.67-0.74s1.89,0.25,2.67,0.74c0.78,0.49,1.39,1.21,1.84,2.15s0.66,2.05,0.66,3.36
		c0,1.3-0.22,2.42-0.66,3.36s-1.06,1.65-1.84,2.15c-0.78,0.5-1.67,0.74-2.67,0.74S185.92,357.72,185.14,357.23z M189.55,354.66
		c0.42-0.63,0.63-1.61,0.63-2.93s-0.21-2.3-0.63-2.93s-1-0.95-1.73-0.95c-0.72,0-1.3,0.32-1.72,0.95c-0.42,0.63-0.63,1.61-0.63,2.93
		s0.21,2.3,0.63,2.93c0.42,0.63,0.99,0.95,1.72,0.95C188.55,355.6,189.13,355.29,189.55,354.66z"/>
	<path class="st0" d="M203.27,355.48v2.28h-9.13v-1.81l4.66-4.4c0.49-0.47,0.83-0.88,1-1.21c0.17-0.34,0.26-0.68,0.26-1.01
		c0-0.48-0.16-0.85-0.49-1.11c-0.33-0.26-0.81-0.39-1.44-0.39c-0.53,0-1.01,0.1-1.43,0.3c-0.43,0.2-0.78,0.5-1.07,0.91l-2.04-1.31
		c0.47-0.7,1.12-1.25,1.95-1.65s1.78-0.6,2.85-0.6c0.9,0,1.68,0.15,2.35,0.44c0.67,0.29,1.2,0.71,1.57,1.24
		c0.37,0.53,0.56,1.16,0.56,1.89c0,0.65-0.14,1.27-0.41,1.85c-0.28,0.57-0.81,1.23-1.6,1.97l-2.78,2.62H203.27z"/>
	<path class="st0" d="M213.45,355.48v2.28h-9.13v-1.81l4.66-4.4c0.49-0.47,0.83-0.88,1-1.21c0.17-0.34,0.26-0.68,0.26-1.01
		c0-0.48-0.16-0.85-0.49-1.11c-0.33-0.26-0.81-0.39-1.44-0.39c-0.53,0-1.01,0.1-1.43,0.3c-0.42,0.2-0.78,0.5-1.07,0.91l-2.04-1.31
		c0.47-0.7,1.12-1.25,1.95-1.65s1.78-0.6,2.85-0.6c0.9,0,1.68,0.15,2.35,0.44c0.67,0.29,1.2,0.71,1.57,1.24
		c0.37,0.53,0.56,1.16,0.56,1.89c0,0.65-0.14,1.27-0.41,1.85c-0.28,0.57-0.81,1.23-1.6,1.97l-2.78,2.62H213.45z"/>
</g>
<g>
	<path class="st0" d="M128.18,355.48v2.28h-9.13v-1.81l4.66-4.4c0.49-0.47,0.83-0.88,1-1.21c0.17-0.34,0.26-0.68,0.26-1.01
		c0-0.48-0.16-0.85-0.49-1.11c-0.33-0.26-0.81-0.39-1.44-0.39c-0.53,0-1.01,0.1-1.43,0.3c-0.43,0.2-0.78,0.5-1.07,0.91l-2.04-1.31
		c0.47-0.7,1.12-1.25,1.95-1.65s1.78-0.6,2.85-0.6c0.9,0,1.68,0.15,2.35,0.44c0.67,0.29,1.2,0.71,1.57,1.24
		c0.37,0.53,0.56,1.16,0.56,1.89c0,0.65-0.14,1.27-0.41,1.85c-0.28,0.57-0.81,1.23-1.6,1.97l-2.78,2.62H128.18z"/>
	<path class="st0" d="M131.8,357.23c-0.78-0.49-1.39-1.21-1.84-2.15s-0.66-2.06-0.66-3.36c0-1.3,0.22-2.42,0.66-3.36
		s1.06-1.65,1.84-2.15c0.78-0.49,1.67-0.74,2.67-0.74s1.89,0.25,2.67,0.74c0.78,0.49,1.39,1.21,1.84,2.15s0.66,2.05,0.66,3.36
		c0,1.3-0.22,2.42-0.66,3.36s-1.06,1.65-1.84,2.15c-0.78,0.5-1.67,0.74-2.67,0.74S132.59,357.72,131.8,357.23z M136.21,354.66
		c0.42-0.63,0.63-1.61,0.63-2.93s-0.21-2.3-0.63-2.93s-1-0.95-1.73-0.95c-0.72,0-1.3,0.32-1.72,0.95c-0.42,0.63-0.63,1.61-0.63,2.93
		s0.21,2.3,0.63,2.93c0.42,0.63,0.99,0.95,1.72,0.95C135.21,355.6,135.79,355.29,136.21,354.66z"/>
	<path class="st0" d="M149.93,355.48v2.28h-9.13v-1.81l4.66-4.4c0.49-0.47,0.83-0.88,1-1.21c0.17-0.34,0.26-0.68,0.26-1.01
		c0-0.48-0.16-0.85-0.49-1.11c-0.33-0.26-0.81-0.39-1.44-0.39c-0.53,0-1.01,0.1-1.43,0.3c-0.43,0.2-0.78,0.5-1.07,0.91l-2.04-1.31
		c0.47-0.7,1.12-1.25,1.95-1.65s1.78-0.6,2.85-0.6c0.9,0,1.68,0.15,2.35,0.44c0.67,0.29,1.2,0.71,1.57,1.24
		c0.37,0.53,0.56,1.16,0.56,1.89c0,0.65-0.14,1.27-0.41,1.85c-0.28,0.57-0.81,1.23-1.6,1.97l-2.78,2.62H149.93z"/>
	<path class="st0" d="M155.75,345.68v12.08h-2.79v-9.83h-2.42v-2.24H155.75z"/>
</g>
<g>
	<path class="st0" d="M71.76,353.92v1.33h-5.32v-1.06l2.72-2.57c0.29-0.28,0.48-0.51,0.58-0.71c0.1-0.2,0.15-0.39,0.15-0.59
		c0-0.28-0.1-0.5-0.29-0.65c-0.19-0.15-0.47-0.23-0.84-0.23c-0.31,0-0.59,0.06-0.84,0.18c-0.25,0.12-0.46,0.29-0.62,0.53l-1.19-0.77
		c0.27-0.41,0.65-0.73,1.14-0.96c0.48-0.23,1.04-0.35,1.66-0.35c0.52,0,0.98,0.09,1.37,0.26c0.39,0.17,0.7,0.41,0.92,0.72
		c0.22,0.31,0.33,0.68,0.33,1.1c0,0.38-0.08,0.74-0.24,1.08s-0.47,0.72-0.94,1.15l-1.62,1.53H71.76z"/>
	<path class="st0" d="M73.87,354.93c-0.46-0.29-0.81-0.71-1.07-1.25s-0.39-1.2-0.39-1.96c0-0.76,0.13-1.41,0.39-1.96
		s0.62-0.96,1.07-1.25c0.46-0.29,0.98-0.43,1.56-0.43c0.58,0,1.1,0.14,1.56,0.43c0.46,0.29,0.81,0.71,1.07,1.25s0.39,1.2,0.39,1.96
		c0,0.76-0.13,1.41-0.39,1.96s-0.62,0.96-1.07,1.25s-0.98,0.43-1.56,0.43C74.85,355.37,74.33,355.22,73.87,354.93z M76.44,353.43
		c0.24-0.37,0.37-0.94,0.37-1.71s-0.12-1.34-0.37-1.71c-0.25-0.37-0.58-0.55-1.01-0.55c-0.42,0-0.76,0.19-1,0.55
		c-0.25,0.37-0.37,0.94-0.37,1.71s0.12,1.34,0.37,1.71c0.24,0.37,0.58,0.55,1,0.55C75.86,353.99,76.2,353.8,76.44,353.43z"/>
	<path class="st0" d="M84.45,353.92v1.33h-5.32v-1.06l2.72-2.57c0.29-0.28,0.48-0.51,0.58-0.71c0.1-0.2,0.15-0.39,0.15-0.59
		c0-0.28-0.1-0.5-0.29-0.65c-0.19-0.15-0.47-0.23-0.84-0.23c-0.31,0-0.59,0.06-0.84,0.18c-0.25,0.12-0.46,0.29-0.62,0.53l-1.19-0.77
		c0.27-0.41,0.65-0.73,1.14-0.96c0.48-0.23,1.04-0.35,1.66-0.35c0.52,0,0.98,0.09,1.37,0.26c0.39,0.17,0.7,0.41,0.92,0.72
		c0.22,0.31,0.33,0.68,0.33,1.1c0,0.38-0.08,0.74-0.24,1.08s-0.47,0.72-0.94,1.15l-1.62,1.53H84.45z"/>
	<path class="st0" d="M86.56,354.93c-0.46-0.29-0.81-0.71-1.07-1.25s-0.39-1.2-0.39-1.96c0-0.76,0.13-1.41,0.39-1.96
		s0.62-0.96,1.07-1.25c0.46-0.29,0.98-0.43,1.56-0.43c0.58,0,1.1,0.14,1.56,0.43c0.46,0.29,0.81,0.71,1.07,1.25s0.39,1.2,0.39,1.96
		c0,0.76-0.13,1.41-0.39,1.96s-0.62,0.96-1.07,1.25s-0.98,0.43-1.56,0.43C87.54,355.37,87.02,355.22,86.56,354.93z M89.13,353.43
		c0.24-0.37,0.37-0.94,0.37-1.71s-0.12-1.34-0.37-1.71c-0.25-0.37-0.58-0.55-1.01-0.55c-0.42,0-0.76,0.19-1,0.55
		c-0.25,0.37-0.37,0.94-0.37,1.71s0.12,1.34,0.37,1.71c0.24,0.37,0.58,0.55,1,0.55C88.55,353.99,88.89,353.8,89.13,353.43z"/>
</g>
<g>
	<path class="st0" d="M25.99,217.63v12.08H23.2v-9.83h-2.42v-2.24H25.99z"/>
	<path class="st0" d="M28.5,229.36c-0.32-0.32-0.48-0.72-0.48-1.21c0-0.49,0.16-0.89,0.48-1.2c0.32-0.3,0.72-0.46,1.19-0.46
		s0.87,0.15,1.19,0.46s0.48,0.7,0.48,1.2c0,0.48-0.16,0.89-0.48,1.21c-0.32,0.32-0.72,0.48-1.19,0.48S28.82,229.68,28.5,229.36z"/>
	<path class="st0" d="M34.89,229.17c-0.78-0.49-1.39-1.21-1.84-2.15c-0.44-0.94-0.66-2.06-0.66-3.36c0-1.3,0.22-2.42,0.66-3.36
		c0.44-0.94,1.06-1.65,1.84-2.15c0.78-0.49,1.67-0.74,2.67-0.74s1.89,0.25,2.67,0.74c0.78,0.49,1.39,1.21,1.84,2.15
		c0.44,0.94,0.66,2.06,0.66,3.36c0,1.3-0.22,2.42-0.66,3.36c-0.44,0.94-1.06,1.65-1.84,2.15c-0.78,0.49-1.67,0.74-2.67,0.74
		S35.68,229.66,34.89,229.17z M39.3,226.6c0.42-0.63,0.63-1.61,0.63-2.93c0-1.32-0.21-2.3-0.63-2.93s-1-0.95-1.73-0.95
		c-0.72,0-1.3,0.32-1.72,0.95c-0.42,0.63-0.63,1.61-0.63,2.93c0,1.32,0.21,2.3,0.63,2.93c0.42,0.63,0.99,0.95,1.72,0.95
		C38.3,227.55,38.88,227.23,39.3,226.6z"/>
	<path class="st0" d="M46.61,229.17c-0.78-0.49-1.39-1.21-1.84-2.15c-0.44-0.94-0.66-2.06-0.66-3.36c0-1.3,0.22-2.42,0.66-3.36
		c0.44-0.94,1.06-1.65,1.84-2.15c0.78-0.49,1.67-0.74,2.67-0.74s1.89,0.25,2.67,0.74c0.78,0.49,1.39,1.21,1.84,2.15
		c0.44,0.94,0.66,2.06,0.66,3.36c0,1.3-0.22,2.42-0.66,3.36c-0.44,0.94-1.06,1.65-1.84,2.15c-0.78,0.49-1.67,0.74-2.67,0.74
		S47.39,229.66,46.61,229.17z M51.02,226.6c0.42-0.63,0.63-1.61,0.63-2.93c0-1.32-0.21-2.3-0.63-2.93s-1-0.95-1.73-0.95
		c-0.72,0-1.3,0.32-1.72,0.95c-0.42,0.63-0.63,1.61-0.63,2.93c0,1.32,0.21,2.3,0.63,2.93c0.42,0.63,0.99,0.95,1.72,0.95
		C50.02,227.55,50.6,227.23,51.02,226.6z"/>
	<path class="st0" d="M58.32,229.17c-0.78-0.49-1.39-1.21-1.84-2.15c-0.44-0.94-0.66-2.06-0.66-3.36c0-1.3,0.22-2.42,0.66-3.36
		c0.44-0.94,1.06-1.65,1.84-2.15c0.78-0.49,1.67-0.74,2.67-0.74s1.89,0.25,2.67,0.74c0.78,0.49,1.39,1.21,1.84,2.15
		c0.44,0.94,0.66,2.06,0.66,3.36c0,1.3-0.22,2.42-0.66,3.36c-0.44,0.94-1.06,1.65-1.84,2.15c-0.78,0.49-1.67,0.74-2.67,0.74
		S59.1,229.66,58.32,229.17z M62.73,226.6c0.42-0.63,0.63-1.61,0.63-2.93c0-1.32-0.21-2.3-0.63-2.93s-1-0.95-1.73-0.95
		c-0.72,0-1.3,0.32-1.72,0.95c-0.42,0.63-0.63,1.61-0.63,2.93c0,1.32,0.21,2.3,0.63,2.93c0.42,0.63,0.99,0.95,1.72,0.95
		C61.73,227.55,62.31,227.23,62.73,226.6z"/>
	<path class="st0" d="M67.71,229.36c-0.32-0.32-0.48-0.72-0.48-1.21c0-0.49,0.16-0.89,0.48-1.2c0.32-0.3,0.72-0.46,1.19-0.46
		s0.87,0.15,1.19,0.46s0.48,0.7,0.48,1.2c0,0.48-0.16,0.89-0.48,1.21c-0.32,0.32-0.72,0.48-1.19,0.48S68.03,229.68,67.71,229.36z"/>
	<path class="st0" d="M74.11,229.17c-0.78-0.49-1.39-1.21-1.84-2.15c-0.44-0.94-0.66-2.06-0.66-3.36c0-1.3,0.22-2.42,0.66-3.36
		c0.44-0.94,1.06-1.65,1.84-2.15c0.78-0.49,1.67-0.74,2.67-0.74s1.89,0.25,2.67,0.74c0.78,0.49,1.39,1.21,1.84,2.15
		c0.44,0.94,0.66,2.06,0.66,3.36c0,1.3-0.22,2.42-0.66,3.36c-0.44,0.94-1.06,1.65-1.84,2.15c-0.78,0.49-1.67,0.74-2.67,0.74
		S74.89,229.66,74.11,229.17z M78.52,226.6c0.42-0.63,0.63-1.61,0.63-2.93c0-1.32-0.21-2.3-0.63-2.93s-1-0.95-1.73-0.95
		c-0.72,0-1.3,0.32-1.72,0.95c-0.42,0.63-0.63,1.61-0.63,2.93c0,1.32,0.21,2.3,0.63,2.93c0.42,0.63,0.99,0.95,1.72,0.95
		C77.52,227.55,78.1,227.23,78.52,226.6z"/>
	<path class="st0" d="M85.82,229.17c-0.78-0.49-1.39-1.21-1.84-2.15c-0.44-0.94-0.66-2.06-0.66-3.36c0-1.3,0.22-2.42,0.66-3.36
		c0.44-0.94,1.06-1.65,1.84-2.15c0.78-0.49,1.67-0.74,2.67-0.74s1.89,0.25,2.67,0.74c0.78,0.49,1.39,1.21,1.84,2.15
		c0.44,0.94,0.66,2.06,0.66,3.36c0,1.3-0.22,2.42-0.66,3.36c-0.44,0.94-1.06,1.65-1.84,2.15c-0.78,0.49-1.67,0.74-2.67,0.74
		S86.6,229.66,85.82,229.17z M90.23,226.6c0.42-0.63,0.63-1.61,0.63-2.93c0-1.32-0.21-2.3-0.63-2.93s-1-0.95-1.73-0.95
		c-0.72,0-1.3,0.32-1.72,0.95c-0.42,0.63-0.63,1.61-0.63,2.93c0,1.32,0.21,2.3,0.63,2.93c0.42,0.63,0.99,0.95,1.72,0.95
		C89.23,227.55,89.81,227.23,90.23,226.6z"/>
	<path class="st0" d="M97.53,229.17c-0.78-0.49-1.39-1.21-1.84-2.15c-0.44-0.94-0.66-2.06-0.66-3.36c0-1.3,0.22-2.42,0.66-3.36
		c0.44-0.94,1.06-1.65,1.84-2.15c0.78-0.49,1.67-0.74,2.67-0.74s1.89,0.25,2.67,0.74c0.78,0.49,1.39,1.21,1.84,2.15
		c0.44,0.94,0.66,2.06,0.66,3.36c0,1.3-0.22,2.42-0.66,3.36c-0.44,0.94-1.06,1.65-1.84,2.15c-0.78,0.49-1.67,0.74-2.67,0.74
		S98.32,229.66,97.53,229.17z M101.94,226.6c0.42-0.63,0.63-1.61,0.63-2.93c0-1.32-0.21-2.3-0.63-2.93s-1-0.95-1.73-0.95
		c-0.72,0-1.3,0.32-1.72,0.95c-0.42,0.63-0.63,1.61-0.63,2.93c0,1.32,0.21,2.3,0.63,2.93c0.42,0.63,0.99,0.95,1.72,0.95
		C100.94,227.55,101.52,227.23,101.94,226.6z"/>
</g>
<g>
	<path class="st0" d="M32.39,289.42h-1.97v2.54H27.7v-2.54h-6.5v-1.88l5.69-7.66h2.93l-5.28,7.26h3.24v-2.26h2.64v2.26h1.97V289.42z
		"/>
	<path class="st0" d="M35.72,291.42c-0.78-0.49-1.39-1.21-1.84-2.15s-0.66-2.06-0.66-3.36c0-1.3,0.22-2.42,0.66-3.36
		s1.06-1.65,1.84-2.15c0.78-0.49,1.67-0.74,2.67-0.74s1.89,0.25,2.67,0.74c0.78,0.49,1.39,1.21,1.84,2.15s0.66,2.06,0.66,3.36
		c0,1.3-0.22,2.42-0.66,3.36s-1.06,1.65-1.84,2.15c-0.78,0.5-1.67,0.74-2.67,0.74S36.5,291.91,35.72,291.42z M40.13,288.85
		c0.42-0.63,0.63-1.61,0.63-2.93c0-1.32-0.21-2.3-0.63-2.93s-1-0.95-1.73-0.95c-0.72,0-1.3,0.32-1.72,0.95
		c-0.42,0.63-0.63,1.61-0.63,2.93c0,1.32,0.21,2.3,0.63,2.93c0.42,0.63,0.99,0.95,1.72,0.95C39.13,289.79,39.71,289.48,40.13,288.85
		z"/>
	<path class="st0" d="M47.44,291.42c-0.78-0.49-1.39-1.21-1.84-2.15s-0.66-2.06-0.66-3.36c0-1.3,0.22-2.42,0.66-3.36
		s1.06-1.65,1.84-2.15c0.78-0.49,1.67-0.74,2.67-0.74s1.89,0.25,2.67,0.74c0.78,0.49,1.39,1.21,1.84,2.15s0.66,2.06,0.66,3.36
		c0,1.3-0.22,2.42-0.66,3.36s-1.06,1.65-1.84,2.15c-0.78,0.5-1.67,0.74-2.67,0.74S48.22,291.91,47.44,291.42z M51.84,288.85
		c0.42-0.63,0.63-1.61,0.63-2.93c0-1.32-0.21-2.3-0.63-2.93s-1-0.95-1.73-0.95c-0.72,0-1.3,0.32-1.72,0.95
		c-0.42,0.63-0.63,1.61-0.63,2.93c0,1.32,0.21,2.3,0.63,2.93c0.42,0.63,0.99,0.95,1.72,0.95C50.85,289.79,51.42,289.48,51.84,288.85
		z"/>
	<path class="st0" d="M56.82,291.61c-0.32-0.32-0.48-0.72-0.48-1.21c0-0.49,0.16-0.89,0.48-1.2c0.32-0.3,0.72-0.46,1.19-0.46
		s0.87,0.15,1.19,0.46c0.32,0.31,0.48,0.71,0.48,1.2c0,0.48-0.16,0.89-0.48,1.21s-0.72,0.48-1.19,0.48S57.14,291.93,56.82,291.61z"
		/>
	<path class="st0" d="M63.22,291.42c-0.78-0.49-1.39-1.21-1.84-2.15s-0.66-2.06-0.66-3.36c0-1.3,0.22-2.42,0.66-3.36
		s1.06-1.65,1.84-2.15c0.78-0.49,1.67-0.74,2.67-0.74s1.89,0.25,2.67,0.74c0.78,0.49,1.39,1.21,1.84,2.15s0.66,2.06,0.66,3.36
		c0,1.3-0.22,2.42-0.66,3.36s-1.06,1.65-1.84,2.15c-0.78,0.5-1.67,0.74-2.67,0.74S64,291.91,63.22,291.42z M67.63,288.85
		c0.42-0.63,0.63-1.61,0.63-2.93c0-1.32-0.21-2.3-0.63-2.93s-1-0.95-1.73-0.95c-0.72,0-1.3,0.32-1.72,0.95
		c-0.42,0.63-0.63,1.61-0.63,2.93c0,1.32,0.21,2.3,0.63,2.93c0.42,0.63,0.99,0.95,1.72,0.95C66.63,289.79,67.21,289.48,67.63,288.85
		z"/>
	<path class="st0" d="M74.94,291.42c-0.78-0.49-1.39-1.21-1.84-2.15s-0.66-2.06-0.66-3.36c0-1.3,0.22-2.42,0.66-3.36
		s1.06-1.65,1.84-2.15c0.78-0.49,1.67-0.74,2.67-0.74s1.89,0.25,2.67,0.74c0.78,0.49,1.39,1.21,1.84,2.15s0.66,2.06,0.66,3.36
		c0,1.3-0.22,2.42-0.66,3.36s-1.06,1.65-1.84,2.15c-0.78,0.5-1.67,0.74-2.67,0.74S75.72,291.91,74.94,291.42z M79.34,288.85
		c0.42-0.63,0.63-1.61,0.63-2.93c0-1.32-0.21-2.3-0.63-2.93s-1-0.95-1.73-0.95c-0.72,0-1.3,0.32-1.72,0.95
		c-0.42,0.63-0.63,1.61-0.63,2.93c0,1.32,0.21,2.3,0.63,2.93c0.42,0.63,0.99,0.95,1.72,0.95C78.35,289.79,78.92,289.48,79.34,288.85
		z"/>
	<path class="st0" d="M86.65,291.42c-0.78-0.49-1.39-1.21-1.84-2.15s-0.66-2.06-0.66-3.36c0-1.3,0.22-2.42,0.66-3.36
		s1.06-1.65,1.84-2.15c0.78-0.49,1.67-0.74,2.67-0.74s1.89,0.25,2.67,0.74c0.78,0.49,1.39,1.21,1.84,2.15s0.66,2.06,0.66,3.36
		c0,1.3-0.22,2.42-0.66,3.36s-1.06,1.65-1.84,2.15c-0.78,0.5-1.67,0.74-2.67,0.74S87.43,291.91,86.65,291.42z M91.06,288.85
		c0.42-0.63,0.63-1.61,0.63-2.93c0-1.32-0.21-2.3-0.63-2.93s-1-0.95-1.73-0.95c-0.72,0-1.3,0.32-1.72,0.95
		c-0.42,0.63-0.63,1.61-0.63,2.93c0,1.32,0.21,2.3,0.63,2.93c0.42,0.63,0.99,0.95,1.72,0.95C90.06,289.79,90.64,289.48,91.06,288.85
		z"/>
</g>
<line class="st1" x1="22.31" y1="29.12" x2="466.23" y2="29.12"/>
<line class="st1" x1="22.31" y1="234.63" x2="466.23" y2="234.63"/>
<line class="st1" x1="22.31" y1="294.94" x2="194.59" y2="294.94"/>
<linearGradient id="SVGID_1_" gradientUnits="userSpaceOnUse" x1="165.7096" y1="243.8619" x2="165.1542" y2="331.8818">
	<stop  offset="0.3856" style="stop-color:#89BF53"/>
	<stop  offset="1" style="stop-color:#5AB03D"/>
</linearGradient>
<polygon class="st2" points="195.57,234.63 134.94,295.55 134.94,336.97 195.57,336.97 "/>
<polygon class="st0" points="22.31,336.97 134.94,295.55 134.94,336.97 "/>
<g>
	<g>
		<defs>
			<path id="SVGID_00000113340640095082042210000002398838307863007655_" d="M463.78,234.51H210.26c-7.49,0-13.57-6.08-13.57-13.57
				V42.58c0-7.49,6.08-13.57,13.57-13.57h253.52c7.49,0,13.57,6.08,13.57,13.57v178.37C477.35,228.44,471.28,234.51,463.78,234.51z"
				/>
		</defs>
		<clipPath id="SVGID_00000135689888339115250300000014372701008665781430_">
			<use xlink:href="#SVGID_00000113340640095082042210000002398838307863007655_"  style="overflow:visible;"/>
		</clipPath>
		<g style="clip-path:url(#SVGID_00000135689888339115250300000014372701008665781430_);">
			<g>
				<line class="st0" x1="280.13" y1="-26.09" x2="-3.74" y2="257.78"/>
				
					<rect x="-62.53" y="114.05" transform="matrix(0.7071 -0.7071 0.7071 0.7071 -41.4394 131.6513)" class="st0" width="401.45" height="3.59"/>
			</g>
			<g>
				<line class="st0" x1="301.7" y1="-26.09" x2="17.83" y2="257.78"/>
				
					<rect x="-40.96" y="114.05" transform="matrix(0.7071 -0.7071 0.7071 0.7071 -35.1234 146.8996)" class="st0" width="401.45" height="3.59"/>
			</g>
			<g>
				<line class="st0" x1="323.26" y1="-26.09" x2="39.39" y2="257.78"/>
				
					<rect x="-19.4" y="114.05" transform="matrix(0.7071 -0.7071 0.7071 0.7071 -28.8073 162.1479)" class="st0" width="401.45" height="3.59"/>
			</g>
			<g>
				<line class="st0" x1="344.83" y1="-26.09" x2="60.96" y2="257.78"/>
				
					<rect x="2.16" y="114.05" transform="matrix(0.7071 -0.7071 0.7071 0.7071 -22.4913 177.3963)" class="st0" width="401.45" height="3.59"/>
			</g>
			<g>
				<line class="st0" x1="366.39" y1="-26.09" x2="82.52" y2="257.78"/>
				
					<rect x="23.73" y="114.05" transform="matrix(0.7071 -0.7071 0.7071 0.7071 -16.1752 192.6446)" class="st0" width="401.45" height="3.59"/>
			</g>
			<g>
				<line class="st0" x1="387.95" y1="-26.09" x2="104.08" y2="257.78"/>
				
					<rect x="45.29" y="114.05" transform="matrix(0.7071 -0.7071 0.7071 0.7071 -9.8591 207.8929)" class="st0" width="401.45" height="3.59"/>
			</g>
			<g>
				<line class="st0" x1="409.52" y1="-26.09" x2="125.65" y2="257.78"/>
				
					<rect x="66.86" y="114.05" transform="matrix(0.7071 -0.7071 0.7071 0.7071 -3.5431 223.1413)" class="st0" width="401.45" height="3.59"/>
			</g>
			<g>
				<line class="st0" x1="431.08" y1="-26.09" x2="147.21" y2="257.78"/>
				
					<rect x="88.42" y="114.05" transform="matrix(0.7071 -0.7071 0.7071 0.7071 2.773 238.3896)" class="st0" width="401.45" height="3.59"/>
			</g>
			<g>
				<line class="st0" x1="452.65" y1="-26.09" x2="168.78" y2="257.78"/>
				
					<rect x="109.99" y="114.05" transform="matrix(0.7071 -0.7071 0.7071 0.7071 9.0891 253.6379)" class="st0" width="401.45" height="3.59"/>
			</g>
			<g>
				<line class="st0" x1="474.21" y1="-26.09" x2="190.34" y2="257.78"/>
				
					<rect x="131.55" y="114.05" transform="matrix(0.7071 -0.7071 0.7071 0.7071 15.4051 268.8863)" class="st0" width="401.45" height="3.59"/>
			</g>
			<g>
				<line class="st0" x1="495.78" y1="-26.09" x2="211.91" y2="257.78"/>
				
					<rect x="153.11" y="114.05" transform="matrix(0.7071 -0.7071 0.7071 0.7071 21.7212 284.1346)" class="st0" width="401.45" height="3.59"/>
			</g>
			<g>
				<line class="st0" x1="517.34" y1="-26.09" x2="233.47" y2="257.78"/>
				
					<rect x="174.68" y="114.05" transform="matrix(0.7071 -0.7071 0.7071 0.7071 28.0373 299.3829)" class="st0" width="401.45" height="3.59"/>
			</g>
			<g>
				<line class="st0" x1="538.91" y1="-26.09" x2="255.03" y2="257.78"/>
				
					<rect x="196.24" y="114.05" transform="matrix(0.7071 -0.7071 0.7071 0.7071 34.3533 314.6313)" class="st0" width="401.45" height="3.59"/>
			</g>
			<g>
				<line class="st0" x1="560.47" y1="-26.09" x2="276.6" y2="257.78"/>
				
					<rect x="217.81" y="114.05" transform="matrix(0.7071 -0.7071 0.7071 0.7071 40.6694 329.8796)" class="st0" width="401.45" height="3.59"/>
			</g>
			<g>
				<line class="st0" x1="582.03" y1="-26.09" x2="298.16" y2="257.78"/>
				
					<rect x="239.37" y="114.05" transform="matrix(0.7071 -0.7071 0.7071 0.7071 46.9855 345.1279)" class="st0" width="401.45" height="3.59"/>
			</g>
			<g>
				<line class="st0" x1="603.6" y1="-26.09" x2="319.73" y2="257.78"/>
				
					<rect x="260.94" y="114.05" transform="matrix(0.7071 -0.7071 0.7071 0.7071 53.3015 360.3763)" class="st0" width="401.45" height="3.59"/>
			</g>
			<g>
				<line class="st0" x1="625.16" y1="-26.09" x2="341.29" y2="257.78"/>
				
					<rect x="282.5" y="114.05" transform="matrix(0.7071 -0.7071 0.7071 0.7071 59.6176 375.6246)" class="st0" width="401.45" height="3.59"/>
			</g>
			<g>
				<line class="st0" x1="646.73" y1="-26.09" x2="362.86" y2="257.78"/>
				
					<rect x="304.07" y="114.05" transform="matrix(0.7071 -0.7071 0.7071 0.7071 65.9337 390.8729)" class="st0" width="401.45" height="3.59"/>
			</g>
			<g>
				<line class="st0" x1="668.29" y1="-26.09" x2="384.42" y2="257.78"/>
				
					<rect x="325.63" y="114.05" transform="matrix(0.7071 -0.7071 0.7071 0.7071 72.2497 406.1212)" class="st0" width="401.45" height="3.59"/>
			</g>
			<g>
				<line class="st0" x1="689.86" y1="-26.09" x2="405.99" y2="257.78"/>
				
					<rect x="347.19" y="114.05" transform="matrix(0.7071 -0.7071 0.7071 0.7071 78.5658 421.3696)" class="st0" width="401.45" height="3.59"/>
			</g>
			<g>
				<line class="st0" x1="711.42" y1="-26.09" x2="427.55" y2="257.78"/>
				
					<rect x="368.76" y="114.05" transform="matrix(0.7071 -0.7071 0.7071 0.7071 84.8819 436.6179)" class="st0" width="401.45" height="3.59"/>
			</g>
			<g>
				<line class="st0" x1="732.98" y1="-26.09" x2="449.11" y2="257.78"/>
				
					<rect x="390.32" y="114.05" transform="matrix(0.7071 -0.7071 0.7071 0.7071 91.1979 451.8662)" class="st0" width="401.45" height="3.59"/>
			</g>
			<g>
				<line class="st0" x1="754.55" y1="-26.09" x2="470.68" y2="257.78"/>
				
					<rect x="411.89" y="114.05" transform="matrix(0.7071 -0.7071 0.7071 0.7071 97.514 467.1146)" class="st0" width="401.45" height="3.59"/>
			</g>
			<g>
				<line class="st0" x1="776.11" y1="-26.09" x2="492.24" y2="257.78"/>
				
					<rect x="433.45" y="114.05" transform="matrix(0.7071 -0.7071 0.7071 0.7071 103.8301 482.3629)" class="st0" width="401.45" height="3.59"/>
			</g>
			<g>
				<line class="st0" x1="797.68" y1="-26.09" x2="513.81" y2="257.78"/>
				
					<rect x="455.02" y="114.05" transform="matrix(0.7071 -0.7071 0.7071 0.7071 110.1461 497.6112)" class="st0" width="401.45" height="3.59"/>
			</g>
		</g>
	</g>
	<g class="st4">
		<path class="st0" d="M463.78,234.51H210.26c-7.49,0-13.57-6.08-13.57-13.57V42.58c0-7.49,6.08-13.57,13.57-13.57h253.52
			c7.49,0,13.57,6.08,13.57,13.57v178.37C477.35,228.44,471.28,234.51,463.78,234.51z"/>
	</g>
</g>
<g>
	<path class="st0" d="M94.47,123.1c0.63,0.28,1.11,0.69,1.45,1.21c0.34,0.52,0.51,1.14,0.51,1.85c0,0.7-0.17,1.32-0.51,1.85
		c-0.34,0.53-0.82,0.93-1.45,1.21c-0.63,0.28-1.37,0.42-2.22,0.42h-1.94v2.65H88.1v-9.61h4.16
		C93.11,122.67,93.85,122.81,94.47,123.1z M93.66,127.39c0.35-0.29,0.52-0.7,0.52-1.23c0-0.54-0.17-0.95-0.52-1.24
		c-0.35-0.29-0.86-0.43-1.52-0.43h-1.81v3.34h1.81C92.8,127.82,93.31,127.67,93.66,127.39z"/>
	<path class="st0" d="M99.27,131.9c-0.62-0.32-1.1-0.78-1.45-1.35c-0.35-0.58-0.52-1.23-0.52-1.96c0-0.73,0.17-1.39,0.52-1.96
		c0.35-0.58,0.83-1.03,1.45-1.35c0.62-0.32,1.32-0.49,2.09-0.49c0.78,0,1.47,0.16,2.09,0.49c0.61,0.33,1.09,0.78,1.44,1.35
		c0.35,0.58,0.52,1.23,0.52,1.96c0,0.73-0.17,1.39-0.52,1.96c-0.35,0.58-0.83,1.03-1.44,1.35c-0.61,0.33-1.31,0.49-2.09,0.49
		C100.58,132.39,99.88,132.23,99.27,131.9z M102.71,130.08c0.35-0.37,0.53-0.87,0.53-1.49c0-0.62-0.18-1.12-0.53-1.49
		c-0.35-0.37-0.8-0.56-1.35-0.56c-0.55,0-1,0.19-1.36,0.56c-0.36,0.37-0.54,0.87-0.54,1.49c0,0.62,0.18,1.12,0.54,1.49
		c0.36,0.37,0.81,0.56,1.36,0.56C101.91,130.63,102.36,130.45,102.71,130.08z"/>
	<path class="st0" d="M111.6,131.92c-0.21,0.16-0.47,0.27-0.78,0.35c-0.31,0.08-0.63,0.12-0.97,0.12c-0.88,0-1.56-0.22-2.04-0.67
		c-0.48-0.45-0.72-1.11-0.72-1.98v-3.03h-1.14v-1.65h1.14v-1.8h2.14v1.8h1.84v1.65h-1.84v3.01c0,0.31,0.08,0.55,0.24,0.72
		s0.39,0.25,0.68,0.25c0.34,0,0.63-0.09,0.87-0.27L111.6,131.92z"/>
	<path class="st0" d="M119.77,129.19h-5.59c0.1,0.46,0.34,0.82,0.71,1.08c0.38,0.27,0.84,0.4,1.4,0.4c0.38,0,0.73-0.06,1.02-0.17
		c0.3-0.11,0.57-0.3,0.83-0.54l1.14,1.24c-0.7,0.8-1.71,1.19-3.05,1.19c-0.83,0-1.57-0.16-2.21-0.49c-0.64-0.32-1.14-0.78-1.48-1.35
		c-0.35-0.58-0.52-1.23-0.52-1.96c0-0.72,0.17-1.38,0.51-1.96c0.34-0.58,0.81-1.03,1.41-1.36c0.6-0.32,1.27-0.49,2.01-0.49
		c0.72,0,1.38,0.16,1.96,0.47c0.59,0.31,1.05,0.76,1.38,1.34c0.33,0.58,0.5,1.26,0.5,2.03C119.81,128.64,119.8,128.83,119.77,129.19
		z M114.76,126.82c-0.33,0.27-0.53,0.65-0.6,1.13h3.64c-0.07-0.47-0.27-0.84-0.6-1.12c-0.33-0.28-0.73-0.42-1.21-0.42
		C115.5,126.4,115.09,126.54,114.76,126.82z"/>
	<path class="st0" d="M127.95,125.61c0.56,0.55,0.84,1.36,0.84,2.44v4.23h-2.14v-3.9c0-0.59-0.13-1.02-0.38-1.31
		c-0.26-0.29-0.63-0.43-1.11-0.43c-0.54,0-0.97,0.17-1.29,0.5c-0.32,0.33-0.48,0.83-0.48,1.49v3.65h-2.14v-7.39h2.05v0.87
		c0.28-0.31,0.64-0.55,1.06-0.72c0.42-0.17,0.88-0.25,1.39-0.25C126.65,124.78,127.39,125.06,127.95,125.61z"/>
	<path class="st0" d="M132.26,131.9c-0.63-0.32-1.12-0.78-1.47-1.35c-0.35-0.58-0.53-1.23-0.53-1.96c0-0.73,0.18-1.39,0.53-1.96
		c0.35-0.58,0.84-1.03,1.47-1.35c0.63-0.32,1.33-0.49,2.12-0.49c0.78,0,1.46,0.16,2.04,0.49c0.58,0.33,1,0.79,1.27,1.39l-1.66,0.89
		c-0.38-0.68-0.94-1.02-1.66-1.02c-0.56,0-1.02,0.18-1.39,0.55c-0.37,0.37-0.55,0.87-0.55,1.5c0,0.63,0.18,1.13,0.55,1.5
		c0.37,0.37,0.83,0.55,1.39,0.55c0.73,0,1.29-0.34,1.66-1.02l1.66,0.91c-0.27,0.59-0.69,1.04-1.27,1.37
		c-0.58,0.33-1.26,0.49-2.04,0.49C133.59,132.39,132.89,132.23,132.26,131.9z"/>
	<path class="st0" d="M139.03,123.52c-0.25-0.23-0.37-0.51-0.37-0.85c0-0.34,0.12-0.62,0.37-0.85c0.25-0.23,0.57-0.34,0.96-0.34
		c0.39,0,0.71,0.11,0.96,0.33c0.25,0.22,0.37,0.49,0.37,0.82c0,0.36-0.12,0.65-0.37,0.89c-0.25,0.23-0.57,0.35-0.96,0.35
		C139.6,123.86,139.28,123.75,139.03,123.52z M138.93,124.89h2.14v7.39h-2.14V124.89z"/>
	<path class="st0" d="M148.67,125.6c0.61,0.54,0.92,1.37,0.92,2.46v4.22h-2v-0.92c-0.4,0.69-1.15,1.03-2.25,1.03
		c-0.57,0-1.06-0.1-1.48-0.29c-0.42-0.19-0.73-0.46-0.95-0.8c-0.22-0.34-0.33-0.72-0.33-1.15c0-0.69,0.26-1.23,0.78-1.62
		c0.52-0.39,1.32-0.59,2.4-0.59h1.7c0-0.47-0.14-0.83-0.43-1.08c-0.28-0.25-0.71-0.38-1.28-0.38c-0.39,0-0.78,0.06-1.16,0.19
		s-0.7,0.29-0.97,0.5l-0.77-1.5c0.4-0.28,0.89-0.5,1.45-0.66c0.56-0.16,1.14-0.23,1.74-0.23
		C147.18,124.78,148.06,125.06,148.67,125.6z M146.85,130.69c0.28-0.17,0.48-0.42,0.6-0.75v-0.76h-1.47c-0.88,0-1.32,0.29-1.32,0.86
		c0,0.27,0.11,0.49,0.32,0.65c0.21,0.16,0.51,0.24,0.89,0.24C146.24,130.95,146.56,130.86,146.85,130.69z"/>
	<path class="st0" d="M151.53,122.09h2.14v10.19h-2.14V122.09z"/>
	<path class="st0" d="M73.56,138.57v10.19h-2.05v-0.85c-0.53,0.64-1.3,0.96-2.31,0.96c-0.7,0-1.32-0.16-1.89-0.47
		c-0.56-0.31-1-0.76-1.32-1.33c-0.32-0.58-0.48-1.24-0.48-2s0.16-1.43,0.48-2c0.32-0.58,0.76-1.02,1.32-1.33
		c0.56-0.31,1.19-0.47,1.89-0.47c0.94,0,1.68,0.3,2.21,0.89v-3.58H73.56z M70.93,146.55c0.36-0.37,0.54-0.87,0.54-1.49
		s-0.18-1.12-0.54-1.49c-0.36-0.37-0.81-0.56-1.35-0.56c-0.55,0-1,0.19-1.36,0.56c-0.36,0.37-0.54,0.87-0.54,1.49
		s0.18,1.12,0.54,1.49c0.36,0.37,0.81,0.56,1.36,0.56C70.12,147.11,70.57,146.92,70.93,146.55z"/>
	<path class="st0" d="M82.73,145.67h-5.59c0.1,0.46,0.34,0.82,0.71,1.08c0.38,0.27,0.84,0.4,1.4,0.4c0.38,0,0.73-0.06,1.02-0.17
		c0.3-0.11,0.57-0.3,0.83-0.54l1.14,1.24c-0.7,0.8-1.71,1.19-3.05,1.19c-0.83,0-1.57-0.16-2.21-0.49c-0.64-0.32-1.14-0.78-1.48-1.35
		c-0.35-0.58-0.52-1.23-0.52-1.96c0-0.72,0.17-1.38,0.51-1.96c0.34-0.58,0.81-1.03,1.41-1.36c0.6-0.32,1.27-0.49,2.01-0.49
		c0.72,0,1.38,0.16,1.96,0.47c0.59,0.31,1.05,0.76,1.38,1.34c0.33,0.58,0.5,1.26,0.5,2.03C82.78,145.12,82.76,145.31,82.73,145.67z
		 M77.72,143.29c-0.33,0.27-0.53,0.65-0.6,1.13h3.64c-0.07-0.47-0.27-0.84-0.6-1.12c-0.33-0.28-0.73-0.42-1.21-0.42
		C78.46,142.88,78.05,143.02,77.72,143.29z"/>
	<path class="st0" d="M89.54,148.38c-0.63-0.32-1.12-0.78-1.47-1.35c-0.35-0.58-0.53-1.23-0.53-1.96c0-0.73,0.18-1.39,0.53-1.96
		c0.35-0.58,0.84-1.03,1.47-1.35c0.63-0.32,1.33-0.49,2.12-0.49c0.78,0,1.46,0.16,2.04,0.49c0.58,0.33,1,0.79,1.27,1.39l-1.66,0.89
		c-0.38-0.68-0.94-1.02-1.66-1.02c-0.56,0-1.02,0.18-1.39,0.55c-0.37,0.37-0.55,0.87-0.55,1.5c0,0.63,0.18,1.13,0.55,1.5
		c0.37,0.37,0.83,0.55,1.39,0.55c0.73,0,1.29-0.34,1.66-1.02l1.66,0.91c-0.27,0.59-0.69,1.04-1.27,1.37
		c-0.58,0.33-1.26,0.49-2.04,0.49C90.87,148.87,90.16,148.7,89.54,148.38z"/>
	<path class="st0" d="M99.29,141.54c0.43-0.18,0.94-0.27,1.5-0.27v1.98c-0.24-0.02-0.4-0.03-0.48-0.03c-0.61,0-1.09,0.17-1.44,0.51
		c-0.35,0.34-0.52,0.86-0.52,1.54v3.49H96.2v-7.39h2.05v0.97C98.5,141.99,98.85,141.72,99.29,141.54z"/>
	<path class="st0" d="M109.19,145.67h-5.59c0.1,0.46,0.34,0.82,0.71,1.08c0.38,0.27,0.84,0.4,1.4,0.4c0.38,0,0.73-0.06,1.02-0.17
		c0.3-0.11,0.57-0.3,0.83-0.54l1.14,1.24c-0.7,0.8-1.71,1.19-3.05,1.19c-0.83,0-1.57-0.16-2.21-0.49c-0.64-0.32-1.14-0.78-1.48-1.35
		c-0.35-0.58-0.52-1.23-0.52-1.96c0-0.72,0.17-1.38,0.51-1.96c0.34-0.58,0.81-1.03,1.41-1.36c0.6-0.32,1.27-0.49,2.01-0.49
		c0.72,0,1.38,0.16,1.96,0.47c0.59,0.31,1.05,0.76,1.38,1.34c0.33,0.58,0.5,1.26,0.5,2.03
		C109.23,145.12,109.22,145.31,109.19,145.67z M104.18,143.29c-0.33,0.27-0.53,0.65-0.6,1.13h3.64c-0.07-0.47-0.27-0.84-0.6-1.12
		c-0.33-0.28-0.73-0.42-1.21-0.42C104.92,142.88,104.51,143.02,104.18,143.29z"/>
	<path class="st0" d="M111.35,148.64c-0.59-0.15-1.05-0.34-1.4-0.57l0.71-1.54c0.33,0.21,0.73,0.38,1.19,0.51
		c0.47,0.13,0.92,0.2,1.37,0.2c0.91,0,1.36-0.22,1.36-0.67c0-0.21-0.12-0.36-0.37-0.45c-0.25-0.09-0.63-0.17-1.14-0.23
		c-0.6-0.09-1.1-0.2-1.5-0.32c-0.39-0.12-0.73-0.33-1.02-0.63s-0.43-0.73-0.43-1.29c0-0.47,0.13-0.88,0.4-1.24
		c0.27-0.36,0.66-0.64,1.18-0.84c0.52-0.2,1.13-0.3,1.83-0.3c0.52,0,1.04,0.06,1.56,0.17c0.52,0.11,0.95,0.27,1.28,0.47l-0.71,1.52
		c-0.65-0.37-1.36-0.55-2.13-0.55c-0.46,0-0.8,0.06-1.03,0.19c-0.23,0.13-0.34,0.29-0.34,0.49c0,0.23,0.12,0.39,0.37,0.48
		c0.25,0.09,0.64,0.18,1.18,0.26c0.6,0.1,1.1,0.21,1.48,0.32c0.38,0.11,0.72,0.32,1,0.62c0.28,0.3,0.43,0.72,0.43,1.26
		c0,0.46-0.14,0.87-0.41,1.22c-0.27,0.36-0.68,0.63-1.2,0.83c-0.53,0.2-1.15,0.3-1.87,0.3
		C112.53,148.87,111.93,148.79,111.35,148.64z"/>
	<path class="st0" d="M119.4,148.38c-0.63-0.32-1.12-0.78-1.47-1.35c-0.35-0.58-0.53-1.23-0.53-1.96c0-0.73,0.18-1.39,0.53-1.96
		c0.35-0.58,0.84-1.03,1.47-1.35c0.63-0.32,1.33-0.49,2.12-0.49c0.78,0,1.46,0.16,2.04,0.49c0.58,0.33,1,0.79,1.27,1.39l-1.66,0.89
		c-0.38-0.68-0.94-1.02-1.66-1.02c-0.56,0-1.02,0.18-1.39,0.55c-0.37,0.37-0.55,0.87-0.55,1.5c0,0.63,0.18,1.13,0.55,1.5
		c0.37,0.37,0.83,0.55,1.39,0.55c0.73,0,1.29-0.34,1.66-1.02l1.66,0.91c-0.27,0.59-0.69,1.04-1.27,1.37
		c-0.58,0.33-1.26,0.49-2.04,0.49C120.73,148.87,120.03,148.7,119.4,148.38z"/>
	<path class="st0" d="M126.18,140c-0.25-0.23-0.37-0.51-0.37-0.85c0-0.34,0.12-0.62,0.37-0.85c0.25-0.23,0.57-0.34,0.96-0.34
		c0.39,0,0.71,0.11,0.96,0.33c0.25,0.22,0.37,0.49,0.37,0.82c0,0.36-0.12,0.65-0.37,0.89c-0.25,0.23-0.57,0.35-0.96,0.35
		C126.74,140.34,126.42,140.23,126.18,140z M126.07,141.37h2.14v7.39h-2.14V141.37z"/>
	<path class="st0" d="M141.86,142.08c0.54,0.54,0.82,1.36,0.82,2.45v4.23h-2.14v-3.9c0-0.59-0.12-1.02-0.36-1.31
		c-0.24-0.29-0.59-0.43-1.04-0.43c-0.5,0-0.9,0.16-1.19,0.49c-0.29,0.33-0.44,0.81-0.44,1.45v3.71h-2.14v-3.9
		c0-1.16-0.47-1.74-1.4-1.74c-0.49,0-0.89,0.16-1.18,0.49c-0.29,0.33-0.44,0.81-0.44,1.45v3.71h-2.14v-7.39h2.05v0.85
		c0.27-0.31,0.61-0.55,1.01-0.71c0.4-0.16,0.84-0.25,1.31-0.25c0.52,0,0.99,0.1,1.41,0.31c0.42,0.21,0.76,0.51,1.02,0.9
		c0.3-0.38,0.68-0.68,1.15-0.89c0.46-0.21,0.97-0.32,1.52-0.32C140.58,141.26,141.32,141.53,141.86,142.08z"/>
	<path class="st0" d="M151.88,145.67h-5.59c0.1,0.46,0.34,0.82,0.71,1.08c0.38,0.27,0.84,0.4,1.4,0.4c0.38,0,0.73-0.06,1.02-0.17
		c0.3-0.11,0.57-0.3,0.83-0.54l1.14,1.24c-0.7,0.8-1.71,1.19-3.05,1.19c-0.83,0-1.57-0.16-2.21-0.49c-0.64-0.32-1.14-0.78-1.48-1.35
		c-0.35-0.58-0.52-1.23-0.52-1.96c0-0.72,0.17-1.38,0.51-1.96c0.34-0.58,0.81-1.03,1.41-1.36c0.6-0.32,1.27-0.49,2.01-0.49
		c0.72,0,1.38,0.16,1.96,0.47c0.59,0.31,1.05,0.76,1.38,1.34c0.33,0.58,0.5,1.26,0.5,2.03
		C151.92,145.12,151.91,145.31,151.88,145.67z M146.87,143.29c-0.33,0.27-0.53,0.65-0.6,1.13h3.64c-0.07-0.47-0.27-0.84-0.6-1.12
		c-0.33-0.28-0.73-0.42-1.21-0.42C147.6,142.88,147.2,143.02,146.87,143.29z"/>
	<path class="st0" d="M160.06,142.08c0.56,0.55,0.84,1.36,0.84,2.44v4.23h-2.14v-3.9c0-0.59-0.13-1.02-0.38-1.31
		c-0.26-0.29-0.63-0.43-1.11-0.43c-0.54,0-0.97,0.17-1.29,0.5c-0.32,0.33-0.48,0.83-0.48,1.49v3.65h-2.14v-7.39h2.05v0.87
		c0.28-0.31,0.64-0.55,1.06-0.72c0.42-0.17,0.88-0.25,1.39-0.25C158.75,141.26,159.49,141.54,160.06,142.08z"/>
	<path class="st0" d="M167.6,148.4c-0.21,0.16-0.47,0.27-0.78,0.35c-0.31,0.08-0.63,0.12-0.97,0.12c-0.88,0-1.56-0.22-2.04-0.67
		c-0.48-0.45-0.72-1.11-0.72-1.98v-3.03h-1.14v-1.65h1.14v-1.8h2.14v1.8h1.84v1.65h-1.84v3.01c0,0.31,0.08,0.55,0.24,0.72
		c0.16,0.17,0.39,0.25,0.68,0.25c0.34,0,0.63-0.09,0.87-0.27L167.6,148.4z"/>
	<path class="st0" d="M170,148.38c-0.62-0.32-1.1-0.78-1.45-1.35c-0.35-0.58-0.52-1.23-0.52-1.96c0-0.73,0.17-1.39,0.52-1.96
		c0.35-0.58,0.83-1.03,1.45-1.35c0.62-0.32,1.32-0.49,2.09-0.49c0.78,0,1.47,0.16,2.09,0.49c0.61,0.33,1.09,0.78,1.44,1.35
		c0.35,0.58,0.52,1.23,0.52,1.96c0,0.73-0.17,1.39-0.52,1.96c-0.35,0.58-0.83,1.03-1.44,1.35c-0.61,0.33-1.31,0.49-2.09,0.49
		C171.31,148.87,170.61,148.7,170,148.38z M173.44,146.55c0.35-0.37,0.53-0.87,0.53-1.49s-0.18-1.12-0.53-1.49
		c-0.35-0.37-0.8-0.56-1.35-0.56c-0.55,0-1,0.19-1.36,0.56c-0.36,0.37-0.54,0.87-0.54,1.49s0.18,1.12,0.54,1.49
		c0.36,0.37,0.81,0.56,1.36,0.56C172.64,147.11,173.09,146.92,173.44,146.55z"/>
</g>
<g>
	<path class="st0" d="M26.78,353.98v1.37H21.3v-1.09l2.8-2.64c0.3-0.28,0.5-0.53,0.6-0.73c0.1-0.2,0.16-0.41,0.16-0.61
		c0-0.29-0.1-0.51-0.3-0.67c-0.2-0.16-0.49-0.23-0.87-0.23c-0.32,0-0.6,0.06-0.86,0.18c-0.26,0.12-0.47,0.3-0.64,0.54l-1.22-0.79
		c0.28-0.42,0.67-0.75,1.17-0.99c0.5-0.24,1.07-0.36,1.71-0.36c0.54,0,1.01,0.09,1.41,0.26c0.4,0.18,0.72,0.42,0.94,0.75
		c0.22,0.32,0.34,0.7,0.34,1.13c0,0.39-0.08,0.76-0.25,1.11c-0.17,0.35-0.49,0.74-0.96,1.18l-1.67,1.58H26.78z"/>
	<path class="st0" d="M28.96,355.03c-0.47-0.3-0.84-0.73-1.1-1.29c-0.27-0.56-0.4-1.23-0.4-2.02c0-0.78,0.13-1.45,0.4-2.02
		c0.27-0.56,0.63-0.99,1.1-1.29c0.47-0.3,1.01-0.45,1.61-0.45c0.6,0,1.14,0.15,1.61,0.45c0.47,0.3,0.84,0.73,1.1,1.29
		c0.27,0.56,0.4,1.24,0.4,2.02c0,0.78-0.13,1.45-0.4,2.02c-0.27,0.56-0.63,0.99-1.1,1.29c-0.47,0.3-1.01,0.45-1.61,0.45
		C29.96,355.47,29.43,355.33,28.96,355.03z M31.6,353.48c0.25-0.38,0.38-0.97,0.38-1.76s-0.13-1.38-0.38-1.76
		c-0.25-0.38-0.6-0.57-1.04-0.57c-0.44,0-0.78,0.19-1.03,0.57c-0.25,0.38-0.38,0.97-0.38,1.76s0.13,1.38,0.38,1.76
		c0.25,0.38,0.6,0.57,1.03,0.57C31.01,354.05,31.35,353.86,31.6,353.48z"/>
	<path class="st0" d="M37.23,348.1v7.25h-1.68v-5.91H34.1v-1.35H37.23z"/>
	<path class="st0" d="M43.42,348.9c0.57,0.62,0.86,1.51,0.86,2.67c0,0.82-0.15,1.53-0.46,2.11c-0.31,0.59-0.74,1.03-1.3,1.34
		c-0.56,0.3-1.21,0.46-1.94,0.46c-0.39,0-0.76-0.04-1.11-0.13c-0.35-0.09-0.65-0.21-0.9-0.37l0.62-1.23
		c0.35,0.24,0.8,0.36,1.36,0.36c0.61,0,1.1-0.18,1.46-0.54s0.55-0.89,0.58-1.57c-0.44,0.44-1.04,0.65-1.8,0.65
		c-0.46,0-0.88-0.09-1.26-0.28c-0.38-0.19-0.68-0.45-0.9-0.79c-0.22-0.34-0.33-0.74-0.33-1.19c0-0.48,0.12-0.91,0.36-1.27
		c0.24-0.37,0.57-0.65,0.99-0.84c0.42-0.2,0.88-0.3,1.39-0.3C42.05,347.97,42.85,348.28,43.42,348.9z M42.06,351.09
		c0.23-0.2,0.35-0.46,0.35-0.78c0-0.32-0.11-0.58-0.34-0.78c-0.22-0.2-0.53-0.3-0.93-0.3c-0.36,0-0.65,0.1-0.88,0.29
		c-0.22,0.19-0.34,0.46-0.34,0.79c0,0.33,0.11,0.6,0.34,0.79c0.22,0.2,0.52,0.3,0.9,0.3C41.53,351.39,41.83,351.29,42.06,351.09z"/>
</g>
</svg>
