<?xml version="1.0" encoding="utf-8"?>
<!-- Generator: Adobe Illustrator 26.1.0, SVG Export Plug-In . SVG Version: 6.00 Build 0)  -->
<svg version="1.1" id="Layer_1" xmlns="http://www.w3.org/2000/svg" xmlns:xlink="http://www.w3.org/1999/xlink" x="0px" y="0px"
	 viewBox="0 0 272.22 209.2" style="enable-background:new 0 0 272.22 209.2;" xml:space="preserve">
<style type="text/css">
	.st0{fill:#FFFFFF;}
</style>
<path class="st0" d="M81.44,188.11c3.75,0,7.24,0,10.99,0c0-0.92,0-1.74,0-2.56c0-20.9,0-41.8,0-62.69c0-3.59,0.9-4.52,4.44-4.52
	c9.15-0.01,18.3-0.01,27.45,0c3.73,0,4.6,0.86,4.6,4.58c0.01,20.76,0,41.51,0,62.27c0,0.9,0,1.8,0,2.86c3.69,0,7.17,0,10.99,0
	c0-0.9,0-1.78,0-2.66c0-19,0-38,0-56.99c0-4.5,0.77-5.26,5.31-5.26c8.94,0,17.88-0.01,26.81,0c3.64,0,4.61,0.98,4.61,4.66
	c0.01,19.14,0,38.28,0,57.42c0,0.9,0,1.8,0,2.85c3.7,0,7.18,0,10.99,0c0-1,0-1.96,0-2.91c0-29.55,0-59.11,0-88.66
	c0-5.46,0.49-5.96,5.85-5.96c8.73,0,17.45,0,26.18,0c3.49,0,4.52,1.03,4.52,4.52c0,30.12,0,60.23,0,90.35c0,0.83,0,1.67,0,2.81
	c3.22,0,6.28-0.01,9.34,0c1.97,0.01,3.95-0.05,5.91,0.08c1.77,0.12,2.85,1.11,2.9,2.98c0.05,1.87-1.11,3.25-2.96,3.49
	c-0.62,0.08-1.26,0.04-1.9,0.04c-68.83,0-137.66,0-206.5,0c-0.42,0-0.85,0.01-1.27,0c-2.23-0.09-3.6-1.35-3.59-3.3
	c0-1.85,1.28-3.2,3.42-3.25c4.15-0.1,8.3-0.04,12.46-0.05c0.82,0,1.65,0,2.69,0c0-1,0-1.76,0-2.51c0-14.57,0-29.13,0-43.7
	c0-3.61,0.99-4.58,4.66-4.58c9.15,0,18.3-0.01,27.45,0c3.59,0,4.63,1.05,4.63,4.65c0,14.49,0,28.99,0,43.48
	C81.44,186.32,81.44,187.09,81.44,188.11z M194.33,97.27c0,30.4,0,60.55,0,90.74c7.8,0,15.48,0,23.17,0c0-30.33,0-60.48,0-90.74
	C209.73,97.27,202.09,97.27,194.33,97.27z M122.29,188.12c0-21.15,0-42.13,0-63.15c-7.8,0-15.48,0-23.16,0c0,21.14,0,42.1,0,63.15
	C106.9,188.12,114.48,188.12,122.29,188.12z M146.61,129.84c0,19.52,0,38.84,0,58.18c7.8,0,15.49,0,23.12,0c0-19.5,0-38.8,0-58.18
	C161.96,129.84,154.38,129.84,146.61,129.84z M51.37,144.16c0,14.68,0,29.26,0,43.94c7.8,0,15.44,0,23.19,0c0-14.69,0-29.28,0-43.94
	C66.77,144.16,59.13,144.16,51.37,144.16z"/>
<path class="st0" d="M176.26,43.96c-0.85-15.72,11.81-29.75,27.69-30.67c16.48-0.96,30.83,11.54,31.63,27.55
	c0.86,17.1-11.55,31.02-28.79,31.75C190.53,73.27,176.83,60.69,176.26,43.96z M229.06,42.99C229,30.13,218.64,19.83,205.8,19.87
	c-12.82,0.03-23.17,10.28-23.18,22.97c-0.01,12.92,10.39,23.25,23.38,23.21C218.8,66,229.12,55.69,229.06,42.99z"/>
<path class="st0" d="M192.42,78.84c-0.53,0.79-0.94,1.9-1.74,2.53c-11.2,8.96-22.46,17.85-33.69,26.77
	c-1.51,1.2-3.04,1.13-4.73,0.43c-13.22-5.5-26.46-10.94-39.65-16.49c-1.63-0.69-2.75-0.55-4.16,0.47
	c-13.69,9.85-27.44,19.63-41.17,29.43c-0.51,0.37-1.03,0.74-1.58,1.04c-1.55,0.82-2.91,0.44-3.92-0.89
	c-1.02-1.33-0.93-2.78,0.1-4.08c0.43-0.53,1.05-0.92,1.62-1.33c14.53-10.38,29.07-20.73,43.57-31.14c1.79-1.29,3.35-1.51,5.44-0.63
	c13.05,5.52,26.17,10.88,39.22,16.4c1.59,0.67,2.6,0.5,3.93-0.57c10.07-8.12,20.22-16.14,30.34-24.2c2.14-1.7,4.36-1.74,5.54-0.02
	C191.91,77.1,192.03,77.82,192.42,78.84z"/>
<path class="st0" d="M203.12,23.81c1.75,0,3.22,0,4.91,0c0,1.19,0,2.35,0,3.57c1.66,0.43,3.13,0.81,4.81,1.24
	c-0.21,1.7-0.41,3.33-0.61,4.98c-1.97-0.33-3.74-0.73-5.54-0.91c-1.71-0.17-3.1,0.52-3.54,2.31c-0.44,1.81-0.01,3.34,1.89,4.18
	c1.6,0.7,3.18,1.47,4.77,2.2c3.49,1.61,5.66,4.19,5.53,8.17c-0.12,3.87-2.06,6.61-5.69,8.1c-0.32,0.13-0.61,0.34-1.02,0.57
	c0,1.22,0,2.48,0,3.87c-1.62,0-3.13,0-4.62,0c-0.51-3.62-0.51-3.62-4.18-4.57c-1.14-0.29-2.26-0.63-3.62-1.01
	c0.18-1.69,0.37-3.41,0.54-4.97c2.75,0.49,5.38,1.09,8.04,1.4c1.89,0.22,3.6-0.62,4.14-2.53c0.58-2.07-0.62-3.47-2.5-4.3
	c-1.54-0.68-3.1-1.32-4.6-2.08c-3.14-1.6-5.04-4.2-4.97-7.71c0.07-3.55,1.56-6.48,4.98-8.21c0.61-0.31,1-1.26,1.24-2
	C203.29,25.48,203.12,24.74,203.12,23.81z"/>
</svg>
