<?xml version="1.0" encoding="utf-8"?>
<!-- Generator: Adobe Illustrator 26.1.0, SVG Export Plug-In . SVG Version: 6.00 Build 0)  -->
<svg version="1.1" id="Layer_1" xmlns="http://www.w3.org/2000/svg" xmlns:xlink="http://www.w3.org/1999/xlink" x="0px" y="0px"
	 viewBox="0 0 272.22 209.2" style="enable-background:new 0 0 272.22 209.2;" xml:space="preserve">
<style type="text/css">
	.st0{fill:#FFFFFF;}
</style>
<g>
	<path class="st0" d="M98.61,82.67c-1.36,0-2.68,0.04-3.99-0.01c-4.99-0.19-9.07-4-9.3-8.97c-0.19-4.07-0.18-8.15-0.05-12.23
		c0.15-4.34,2.45-7.31,6.49-8.8c1.11-0.41,1.26-0.98,1.27-1.96c0.03-6.42-0.14-12.84,0.2-19.24c0.56-10.41,9.73-19.18,20.15-19.28
		c13.85-0.14,27.71-0.16,41.56,0.01c11.19,0.13,20.62,10.3,20.3,21.5c-0.06,1.98-1.03,3.2-2.62,3.28c-1.64,0.08-2.7-1.07-2.8-3.21
		c-0.29-6.58-3.02-11.72-9.1-14.54c-2.21-1.02-4.83-1.58-7.27-1.61c-12.89-0.15-25.79-0.12-38.68-0.06
		c-9.47,0.05-16.1,6.7-16.28,16.4c-0.13,7.01-0.01,14.03-0.05,21.05c-0.01,1,0.27,1.53,1.31,1.75c1.15,0.25,2.25,0.69,3.54,1.11
		c0-5.66-0.05-11.17,0.02-16.67c0.06-5.14,3.21-9.64,8.23-10.36c4.37-0.63,8.93-0.21,13.38,0.14c1.45,0.11,2.89,1.36,4.19,2.29
		c3.48,2.49,6.68,2.6,10.03-0.07c2.52-2,5.31-2.93,8.48-2.86c2.52,0.05,5.04-0.02,7.55,0.15c5.17,0.34,9.51,4.7,9.67,9.85
		c0.16,5.15,0.08,10.31,0.1,15.47c0,0.63,0,1.27,0,2.08c1.75-0.58,3.26-1.08,4.87-1.62c0-2.89-0.02-5.77,0.01-8.64
		c0.02-2.14,0.97-3.38,2.57-3.44c1.7-0.07,2.79,1.22,2.84,3.42c0.03,1.49,0.01,2.99,0.01,4.58c2.57,0.79,4.85,2,6.16,4.36
		c0.68,1.23,1.39,2.63,1.45,3.98c0.2,4.42,0.24,8.87,0.08,13.29c-0.14,3.57-2.09,6.2-5.28,7.78c-0.98,0.49-1.27,1.07-1.23,2.08
		c0.07,1.56,0.04,3.12,0.01,4.68c-0.05,3.39-1.71,5.13-5.12,5.48c-1.73,0.18-3.46,0.35-5.16,0.69c-0.66,0.13-1.45,0.55-1.83,1.09
		c-2.47,3.53-5.49,6.5-9.06,8.89c-0.91,0.61-1.25,1.27-1.22,2.34c0.08,2.58,0.03,5.16,0.03,7.74c0,1.48,0.5,2.17,2.23,2.15
		c11.51-0.09,23.03-0.02,34.54-0.06c3.92-0.01,7.14,1.24,8.73,5.02c0.6,1.43,0.63,3.13,0.73,4.72c0.08,1.31-0.22,2.64-0.15,3.94
		c0.03,0.61,0.37,1.4,0.84,1.76c5.93,4.55,9.1,10.61,10.3,17.9c1.91,11.63,3.9,23.25,5.94,34.86c1.13,6.41-2.95,11.5-9.47,11.51
		c-49.06,0.01-98.11,0.01-147.17,0c-6.58,0-10.66-4.91-9.55-11.4c2.06-12.03,4.11-24.07,6.16-36.1c1.17-6.85,4.46-12.42,9.96-16.72
		c0.53-0.41,0.86-1.37,0.89-2.09c0.08-1.97-0.19-3.96-0.06-5.93c0.25-3.83,3.35-6.93,7.17-7.34c0.95-0.1,1.91-0.15,2.87-0.15
		c11.27-0.01,22.55-0.05,33.82,0.03c1.77,0.01,2.41-0.59,2.28-2.25c-0.02-0.3,0-0.6,0-0.9c0-2.52,0.69-5.33-0.21-7.47
		c-0.84-2-3.38-3.28-5.14-4.91c-5.03-4.65-8.23-10.36-9.79-17.02C98.9,83.71,98.76,83.25,98.61,82.67z M76.72,180.27
		c2.17,0,4.16-0.18,6.1,0.07c0.99,0.13,2.16,0.82,2.72,1.63c0.39,0.57,0.19,2.02-0.3,2.6c-0.56,0.65-1.73,1.04-2.65,1.07
		c-4.13,0.11-8.27,0.01-12.41,0.07c-1.96,0.03-3.2,1.23-3.11,2.76c0.09,1.53,1.25,2.46,3.16,2.52c0.3,0.01,0.6,0,0.9,0
		c42.04,0,84.07,0,126.11,0c0.66,0,1.51,0.17,1.93-0.17c0.81-0.66,1.73-1.54,1.94-2.47c0.26-1.16-0.58-2.18-1.88-2.44
		c-0.81-0.16-1.66-0.22-2.49-0.22c-33.04-0.01-66.08-0.01-99.13-0.01c-0.78,0-1.57,0.03-2.33-0.09c-1.28-0.2-2-1.03-2.12-2.32
		c-0.12-1.27,0.4-2.29,1.63-2.68c0.83-0.27,1.76-0.32,2.65-0.32c30.58-0.02,61.17-0.01,91.75-0.01c0.76,0,1.52,0,2.38,0
		c0.47-7.47,0.93-14.7,1.38-21.94c0.65-10.59,1.27-21.18,1.95-31.77c0.21-3.26-0.74-4.44-3.99-4.44c-37.84-0.01-75.68-0.01-113.52,0
		c-3.25,0-4.16,0.99-3.97,4.26c0.63,10.77,1.26,21.54,1.92,32.31C75.75,165.8,76.24,172.91,76.72,180.27z M164.55,65.17
		c-3.98-0.42-5.03-1.59-5.03-5.45c0-6.06,0.02-12.11-0.01-18.17c-0.02-3.59-2.08-5.65-5.68-5.77c-1.26-0.04-2.53,0.08-3.78-0.03
		c-3.37-0.3-6.19,0.67-9.03,2.63c-4.43,3.07-9.37,3.09-13.8-0.01c-2.83-1.97-5.67-2.93-9.04-2.62c-1.19,0.11-2.4-0.01-3.6,0.02
		c-3.8,0.1-5.87,2.18-5.88,5.96c-0.02,5.94,0,11.87-0.01,17.81c0,4.08-0.85,5.08-4.96,5.66c0,4.04,0.05,8.11-0.01,12.17
		c-0.08,5.65,1.67,10.74,4.85,15.31c9.96,14.32,30.55,17.36,44.58,6.64c1.37-1.05,2.63-2.25,3.94-3.38
		c-1.79-0.19-3.36-0.16-4.87,0.19c-0.73,0.17-1.55,0.77-1.93,1.42c-1.09,1.86-2.52,3.3-4.61,3.72c-2.28,0.46-4.62,0.75-6.95,0.82
		c-3.58,0.11-6.69-2.75-7-6.17c-0.35-3.89,2.08-7.2,5.82-7.84c1.71-0.29,3.44-0.5,5.16-0.7c2.05-0.23,4.26-0.03,5.49,1.57
		c1.72,2.24,3.71,1.79,5.87,1.49c1.48-0.21,2.97-0.56,4.45-0.53c2.4,0.05,3.5-1.05,4.35-3.25
		C165.58,79.61,164.01,72.33,164.55,65.17z M68.65,138.28c-3.12,2.78-5.16,6.36-6,11.09c-2.13,12.01-4.13,24.05-6.19,36.07
		c-0.71,4.14,1.38,6.19,5.51,5.31c-0.82-2.86-0.2-5.44,1.69-7.71c1.96-2.35,4.76-2.71,7.58-2.91
		C70.38,166.14,69.52,152.35,68.65,138.28z M206.3,190.85c4.47,0.49,6.2-1.36,5.48-5.54c-2-11.55-3.94-23.11-5.9-34.67
		c-0.79-4.64-2.49-8.82-6.27-12.48c-0.88,14.22-1.73,28.04-2.59,41.85C205,181.65,207.46,184.53,206.3,190.85z M148.63,116.59
		c0-2.83,0-5.45,0-8.32c-9.69,3.96-19.31,3.93-28.99,0.03c0,2.92,0,5.58,0,8.29C129.32,116.59,138.9,116.59,148.63,116.59z
		 M175.88,58.03c-0.21,0-0.41,0-0.62,0.01c0.07,3.9-2.95,3.4-5.24,3.89c0,5.15,0,10.2,0,15.34c1.26,0,2.39,0.06,3.52-0.01
		c2.03-0.13,3.89-1.69,3.95-3.73c0.14-4.12,0.13-8.26-0.07-12.38C177.38,60.08,176.42,59.07,175.88,58.03z M98.19,77.27
		c0-5.28,0-10.33,0-15.41c-2.46-0.32-5.2-0.07-5.53-3.81c-0.88,1.09-1.83,2.17-1.89,3.29c-0.2,4-0.16,8.01-0.06,12.01
		c0.05,2.07,1.89,3.77,3.98,3.91C95.81,77.33,96.94,77.27,98.19,77.27z M138.63,96.83c2.19-0.3,3.83-0.37,5.36-0.81
		c0.62-0.18,0.99-1.19,1.47-1.83c-0.65-0.47-1.29-1.33-1.95-1.34c-1.59-0.02-3.24,0.2-4.77,0.63c-0.64,0.18-1.52,1.18-1.47,1.73
		C137.34,95.87,138.28,96.45,138.63,96.83z M167.99,88.75c1.15-0.16,2.01-0.28,2.93-0.41c0-1.9,0-3.73,0-6.17
		c-0.75,0.65-1.37,0.92-1.51,1.35C168.88,85.16,168.5,86.84,167.99,88.75z"/>
	<path class="st0" d="M134.12,126.38c14.08-0.01,25.66,11.55,25.67,25.63c0,14.05-11.59,25.65-25.65,25.66
		c-14.07,0.01-25.63-11.54-25.66-25.64C108.45,137.94,120,126.39,134.12,126.38z M126.82,170.7c8.54,3.71,19.25,0.21,24.34-7.86
		c5.31-8.41,3.75-19.49-3.66-25.96c-7.56-6.61-18.78-6.71-26.37-0.33c-7.66,6.44-8.79,17.33-5.21,23.65
		c2.22-1.8,3.77-3.94,4.04-6.91c0.25-2.68,0.68-5.34,1.02-8.01c0.35-2.8,1.93-4.79,4.58-5.33c3.45-0.71,6.94-1.3,10.43-1.82
		c2.16-0.32,3.86,0.73,4.8,2.69c0.75,1.56,0.39,3.11-1.16,4.7c-1.68,1.71-3.45,3.34-5.04,5.13c-0.43,0.48-0.74,1.66-0.46,2.07
		c0.66,0.98,1.46,0.24,2.07-0.36c1.79-1.77,3.55-3.57,5.35-5.33c1.25-1.21,2.69-1.78,4.42-1c1.83,0.83,3.01,2.5,2.74,4.41
		c-0.54,3.79-1.15,7.57-1.97,11.31c-0.53,2.39-2.37,3.67-4.76,4.04c-2.66,0.41-5.33,0.81-8.01,1.05
		C131.05,167.09,128.74,168.35,126.82,170.7z M142.64,154.13c-0.2-0.12-0.41-0.23-0.61-0.35c-0.86,0.99-1.62,2.09-2.59,2.95
		c-2.91,2.59-6.77,2.44-9.34-0.25c-2.46-2.58-2.41-6.48,0.17-9.23c0.89-0.94,1.87-1.8,2.81-2.69c-0.08-0.13-0.16-0.27-0.24-0.4
		c-1.91,0.34-3.83,0.63-5.72,1.05c-0.31,0.07-0.67,0.63-0.73,1.01c-0.31,1.95-0.59,3.91-0.75,5.87c-0.38,4.66-2.01,8.7-5.6,11.84
		c-0.43,0.38-0.79,0.84-1.26,1.35c1.06,0.96,2.02,1.83,3.12,2.83c0.61-0.7,1.07-1.25,1.56-1.78c2.72-2.93,6.06-4.55,10.07-4.91
		c2.38-0.21,4.75-0.61,7.1-1c0.42-0.07,1.02-0.49,1.1-0.85C142.1,157.78,142.35,155.95,142.64,154.13z"/>
</g>
</svg>
