<?xml version="1.0" encoding="utf-8"?>
<!-- Generator: Adobe Illustrator 26.1.0, SVG Export Plug-In . SVG Version: 6.00 Build 0)  -->
<svg version="1.1" id="Layer_1" xmlns="http://www.w3.org/2000/svg" xmlns:xlink="http://www.w3.org/1999/xlink" x="0px" y="0px"
	 viewBox="0 0 272.22 209.2" style="enable-background:new 0 0 272.22 209.2;" xml:space="preserve">
<style type="text/css">
	.st0{fill:#FFFFFF;}
</style>
<path class="st0" d="M46.73,111.84c28.28,0,56.37,0,84.6,0c0,28.21,0,56.38,0,84.68c-28.15,0-56.32,0-84.6,0
	C46.73,168.33,46.73,140.16,46.73,111.84z M57.37,185.81c21.22,0,42.27,0,63.29,0c0-21.15,0-42.15,0-63.16c-21.16,0-42.21,0-63.29,0
	C57.37,143.76,57.37,164.72,57.37,185.81z"/>
<path class="st0" d="M159.79,91.72c1.37,0,2.88,0,4.51,0c0,3.6,0,7.01,0,10.58c-7.76,0-15.49,0-23.36,0c0-7.75,0-15.48,0-23.33
	c3.5,0,6.92,0,10.51,0c0,1.56,0,3.07,0,4.28c9.26-9.26,18.58-18.58,27.69-27.69c-0.88,0-2.42,0-4.07,0c0-3.68,0-7.15,0-10.71
	c7.75,0,15.45,0,23.29,0c0,7.71,0,15.45,0,23.33c-3.41,0-6.88,0-10.55,0c0-1.56,0-3.11,0-4.48
	C178.48,73.05,169.15,82.37,159.79,91.72z"/>
<path class="st0" d="M46.72,14.21c6.52,0,12.96,0,19.48,0c0,3.51,0,6.93,0,10.54c-2.89,0-5.77,0-8.83,0c0,3.05,0,5.92,0,8.91
	c-3.64,0-7.1,0-10.65,0C46.72,27.16,46.72,20.72,46.72,14.21z"/>
<path class="st0" d="M229.03,33.7c-3.52,0-6.94,0-10.54,0c0-2.95,0-5.82,0-8.88c-3.05,0-5.93,0-8.89,0c0-3.6,0-7.02,0-10.57
	c6.44,0,12.87,0,19.44,0C229.03,20.65,229.03,27.08,229.03,33.7z"/>
<path class="st0" d="M229.08,196.56c-6.49,0-12.88,0-19.42,0c0-3.45,0-6.91,0-10.56c2.84,0,5.72,0,8.77,0c0-3.05,0-5.93,0-8.91
	c3.64,0,7.1,0,10.65,0C229.08,183.57,229.08,189.96,229.08,196.56z"/>
<path class="st0" d="M79.23,24.69c0-3.5,0-6.92,0-10.45c6.5,0,12.94,0,19.53,0c0,3.42,0,6.88,0,10.45
	C92.33,24.69,85.89,24.69,79.23,24.69z"/>
<path class="st0" d="M176.97,14.21c6.58,0,13.02,0,19.57,0c0,3.5,0,6.92,0,10.47c-6.5,0-12.98,0-19.57,0
	C176.97,21.23,176.97,17.81,176.97,14.21z"/>
<path class="st0" d="M57.22,66.32c-3.56,0-6.97,0-10.49,0c0-6.53,0-12.98,0-19.55c3.46,0,6.92,0,10.49,0
	C57.22,53.26,57.22,59.7,57.22,66.32z"/>
<path class="st0" d="M229.06,66.32c-3.55,0-6.96,0-10.49,0c0-6.53,0-12.98,0-19.55c3.46,0,6.92,0,10.49,0
	C229.06,53.25,229.06,59.7,229.06,66.32z"/>
<path class="st0" d="M218.62,144.46c3.55,0,6.96,0,10.46,0c0,6.55,0,13,0,19.56c-3.48,0-6.89,0-10.46,0
	C218.62,157.55,218.62,151.07,218.62,144.46z"/>
<path class="st0" d="M196.51,196.54c-6.51,0-12.95,0-19.52,0c0-3.47,0-6.94,0-10.5c6.51,0,12.95,0,19.52,0
	C196.51,189.52,196.51,192.98,196.51,196.54z"/>
<path class="st0" d="M111.91,14.21c6.5,0,12.93,0,19.46,0c0,3.51,0,6.97,0,10.51c-6.5,0-12.92,0-19.46,0
	C111.91,21.21,111.91,17.76,111.91,14.21z"/>
<path class="st0" d="M163.91,14.24c0,3.49,0,6.91,0,10.45c-6.46,0-12.89,0-19.46,0c0-3.4,0-6.86,0-10.45
	C150.84,14.24,157.27,14.24,163.91,14.24z"/>
<path class="st0" d="M46.72,98.85c0-6.49,0-12.92,0-19.46c3.51,0,6.97,0,10.51,0c0,6.5,0,12.93,0,19.46
	C53.72,98.85,50.27,98.85,46.72,98.85z"/>
<path class="st0" d="M229.11,79.42c0,6.52,0,12.9,0,19.41c-3.5,0-6.96,0-10.53,0c0-6.42,0-12.85,0-19.41
	C222.03,79.42,225.48,79.42,229.11,79.42z"/>
<path class="st0" d="M218.57,111.88c3.56,0,6.98,0,10.49,0c0,6.5,0,12.93,0,19.48c-3.48,0-6.94,0-10.49,0
	C218.57,124.89,218.57,118.46,218.57,111.88z"/>
<path class="st0" d="M163.91,186.07c0,3.49,0,6.91,0,10.45c-6.46,0-12.89,0-19.46,0c0-3.41,0-6.86,0-10.45
	C150.84,186.07,157.27,186.07,163.91,186.07z"/>
</svg>
