<?xml version="1.0" encoding="utf-8"?>
<!-- Generator: Adobe Illustrator 24.0.1, SVG Export Plug-In . SVG Version: 6.00 Build 0)  -->
<svg version="1.1" id="Layer_1" xmlns="http://www.w3.org/2000/svg" xmlns:xlink="http://www.w3.org/1999/xlink" x="0px" y="0px"
	 viewBox="0 0 60.8 61.3" style="enable-background:new 0 0 60.8 61.3;" xml:space="preserve">
<style type="text/css">
	.st0{fill:#FFFFFF;stroke:#00DD87;stroke-width:2.0175;stroke-miterlimit:10;}
	.st1{fill:#00DE87;}
</style>
<g>
	<circle class="st0" cx="30.4" cy="31" r="29"/>
</g>
<path class="st1" d="M21.8,46c-0.2-0.1-0.4-0.2-0.6-0.3c-1.3-0.6-2-2-1.7-3.3c0.3-1.4,1.4-2.4,2.9-2.4c1,0,2,0,3,0c0,0,0,0,0.1-0.1
	c0,0,0-0.1,0-0.2c0-1.2,0-2.4,0-3.7c-0.2,0-0.5,0-0.7,0c-3.7,0-7.4,0-11.1,0c-1.7,0-2.9-0.9-3.2-2.5c-0.1-0.5,0-1.1,0.1-1.6
	c1.2-4.5,2.5-9.1,3.8-13.6c0.4-1.6,1.5-2.4,3.2-2.4c8.6,0,17.2,0,25.7,0c1.7,0,2.8,0.8,3.2,2.4c1.3,4.5,2.5,9,3.8,13.6
	c0.6,2.3-0.7,4.1-3.1,4.1c-3.7,0-7.3,0-11,0c-0.2,0-0.5,0-0.7,0c0,1.4,0,2.6,0,4c1,0,2,0,3,0c1.9,0,3.2,1.6,2.9,3.5
	c-0.2,1.1-0.8,1.9-1.8,2.3C39.3,45.9,39.2,46,39,46C33.3,46,27.5,46,21.8,46z M41.1,34c-0.3-1.2-0.7-2.4-1-3.5
	C40,30.1,39.9,30,39.5,30c-2.5,0-5,0-7.6,0c-0.2,0-0.3,0-0.5,0.1c0,1.4,0,2.6,0,3.9C34.6,34,37.8,34,41.1,34z M19.7,34
	c3.3,0,6.4,0,9.6,0c0-1.3,0-2.6,0-3.9c-0.1,0-0.1-0.1-0.1-0.1c-2.7,0-5.4,0-8.1,0c-0.1,0-0.3,0.1-0.3,0.2
	C20.4,31.5,20.1,32.7,19.7,34z M30.4,42c-1.4,0-2.9,0-4.3,0c-1.2,0-2.4,0-3.6,0c-0.7,0-1.1,0.4-1.1,1s0.4,1,1.1,1c0.1,0,0.2,0,0.3,0
	c5.1,0,10.2,0,15.3,0c0.2,0,0.4,0,0.5,0c0.6-0.1,1-0.7,0.8-1.3c-0.2-0.5-0.6-0.7-1.1-0.7C35.6,42,33,42,30.4,42z M31.4,27.9
	c2.7,0,5.3,0,8,0c-0.3-1.2-0.7-2.3-1-3.5c-0.1-0.4-0.3-0.5-0.6-0.5c-2,0-3.9,0-5.9,0c-0.2,0-0.3,0-0.5,0
	C31.4,25.3,31.4,26.6,31.4,27.9z M29.4,24c-2.2,0-4.4,0-6.6,0c-0.1,0-0.3,0.1-0.3,0.2c-0.4,1.2-0.7,2.5-1.1,3.7c2.7,0,5.3,0,8,0
	C29.4,26.6,29.4,25.4,29.4,24z M27.4,36.1c0,1.3,0,2.6,0,3.9c2,0,4,0,5.9,0c0-1.3,0-2.6,0-3.9C31.4,36.1,29.4,36.1,27.4,36.1z
	 M31.4,21.9c2.1,0,4.2,0,6.3,0c-0.4-1.3-0.7-2.7-1.1-3.9c-1.8,0-3.5,0-5.2,0C31.4,19.3,31.4,20.6,31.4,21.9z M29.4,18
	c-1.8,0-3.5,0-5.2,0c-0.4,1.3-0.7,2.6-1.1,3.9c2.1,0,4.2,0,6.3,0C29.4,20.6,29.4,19.3,29.4,18z M18.7,30c-1.8,0-3.5,0-5.2,0
	c-0.2,0-0.4,0.2-0.4,0.4c-0.2,0.7-0.4,1.5-0.6,2.2c-0.2,0.8,0.2,1.4,1.1,1.4c1.2,0,2.5,0,3.8,0c0.2,0,0.4-0.1,0.4-0.3
	C18,32.5,18.4,31.3,18.7,30z M42.1,30c0.4,1.3,0.7,2.5,1.1,3.7c0,0.1,0.3,0.3,0.4,0.3c1.2,0,2.5,0,3.7,0c0.9,0,1.3-0.6,1.1-1.4
	c-0.2-0.7-0.4-1.4-0.6-2.1c-0.1-0.3-0.2-0.5-0.6-0.5c-1.1,0-2.3,0-3.4,0C43.2,30,42.7,30,42.1,30z M13.7,28c1.8,0,3.6,0,5.3,0
	c0.1,0,0.3-0.2,0.4-0.4c0.2-0.8,0.5-1.6,0.7-2.4c0.1-0.4,0.2-0.8,0.3-1.2c-1.9,0-3.7,0-5.5,0C14.5,25.3,14.1,26.6,13.7,28z M47.1,28
	c-0.3-1.2-0.7-2.4-1-3.6C46,24,45.8,24,45.5,24c-1.3,0-2.7,0-4,0c-0.3,0-0.6,0-1,0c0.4,1.3,0.7,2.5,1,3.7c0,0.1,0.3,0.3,0.5,0.3
	c1.1,0,2.2,0,3.3,0C45.8,28,46.4,28,47.1,28z M22.1,18c-1.6,0-3.2,0-4.8,0c-0.3,0-0.8,0.3-0.9,0.5c-0.4,1.1-0.7,2.2-1,3.4
	c1.8,0,3.5,0,5.2,0c0.1,0,0.3-0.1,0.4-0.2C21.4,20.5,21.7,19.3,22.1,18z M39.8,21.9c1.9,0,3.7,0,5.5,0c-0.3-1.1-0.6-2.2-0.9-3.2
	c-0.2-0.5-0.5-0.7-1.1-0.7c-0.7,0-1.4,0-2.2,0s-1.6,0-2.5,0C39.1,19.3,39.5,20.6,39.8,21.9z"/>
</svg>
