<?xml version="1.0" encoding="utf-8"?>
<!-- Generator: Adobe Illustrator 24.0.1, SVG Export Plug-In . SVG Version: 6.00 Build 0)  -->
<svg version="1.1" id="Layer_1" xmlns="http://www.w3.org/2000/svg" xmlns:xlink="http://www.w3.org/1999/xlink" x="0px" y="0px"
	 viewBox="0 0 60.8 61.3" style="enable-background:new 0 0 60.8 61.3;" xml:space="preserve">
<style type="text/css">
	.st0{fill:#FFFFFF;stroke:#00DD87;stroke-width:2.0175;stroke-miterlimit:10;}
	.st1{fill:#00DE87;}
</style>
<g>
	<circle class="st0" cx="30.4" cy="31" r="29"/>
</g>
<g>
	<path class="st1" d="M11.4,37.1c0.1-0.4,0.2-0.8,0.2-1.2c1.3-4.6,6.6-6.9,10.8-4.6c0.2,0.1,0.2,0.2,0.4,0.2
		c4-4.1,10.6-4.1,14.7-0.2c1-0.7,2.2-1.1,3.4-1.3c3.9-0.6,7.9,2.5,8.3,6.5c0.1,1,0.1,2.1,0.1,3.1c0,0.7-0.6,1.4-1.4,1.4
		c-0.2,0-0.3,0-0.6,0c-2.1,0-4.2,0-6.3,0c-0.2,0-0.3,0-0.5,0c0,0.2,0,0.2,0,0.3c0,1.3-0.9,2.2-2.2,2.2c-1.7,0-3.3,0-4.9,0
		c-3.7,0-7.4,0-11.2,0c-1.4,0-2.2-0.6-2.4-2c-0.2,0-0.2,0-0.4,0c-2.1,0-4.1,0-6.2,0c-1,0-1.7-0.3-2-1.3
		C11.4,39.2,11.4,38.2,11.4,37.1z M30.4,42.3c2.7,0,5.5,0,8.2,0c0.6,0,0.9-0.2,0.9-0.9c0-0.4,0-0.8,0-1.1c0-1.3,0.1-2.6-0.3-3.9
		c-1.4-5-6.6-7.8-11.6-6.2c-3.6,1.1-6.1,4.3-6.3,8c-0.1,1,0,2.1,0,3.1c0,0.7,0.2,1,1,1C25,42.3,27.7,42.3,30.4,42.3z M40.8,39.8
		c0.6,0,1.2,0,1.8,0c1.8,0,3.4,0,5.2,0c0.2,0,0.6-0.1,0.6-0.4c0-1,0.1-1.9-0.1-2.9c-0.6-3.6-3.9-5.9-7.5-5.2
		c-0.8,0.2-1.5,0.5-2.2,0.9c0.9,1.1,1.5,2.2,1.9,3.5C40.8,37.1,40.8,38.4,40.8,39.8z M20.1,40.2c-0.2-2.8,0.3-5.4,2-7.6
		c-0.1-0.1-0.2-0.1-0.2-0.2c-3.5-2-8.2,0-9.1,4c-0.2,1-0.2,2.2-0.2,3.3c0.1,0.6,0.2,0.6,0.7,0.6c2.2,0,4.3,0,6.5,0
		C19.9,40.2,20,40.2,20.1,40.2z"/>
	<path class="st1" d="M30.2,27.7c-3.1,0-5.7-2.5-5.7-5.6s2.5-5.7,5.7-5.7c3.1,0,5.7,2.5,5.7,5.6C35.9,25.3,33.3,27.7,30.2,27.7z
		 M30.2,17.8c-2.5,0-4.5,2-4.5,4.4s2,4.4,4.5,4.4s4.5-2,4.5-4.4C34.7,19.8,32.7,17.8,30.2,17.8z"/>
	<path class="st1" d="M46.3,24.8c0,2.4-2,4.3-4.4,4.3s-4.4-2-4.4-4.4s2-4.4,4.5-4.4C44.3,20.4,46.3,22.4,46.3,24.8z M41.9,21.6
		c-1.8,0-3.2,1.4-3.2,3.1c0,1.8,1.4,3.1,3.2,3.1s3.2-1.4,3.2-3.1C45.1,23,43.7,21.6,41.9,21.6z"/>
	<path class="st1" d="M18.9,20.6c2.4,0,4.4,2,4.4,4.4s-2,4.4-4.5,4.4c-2.4,0-4.4-2-4.4-4.4C14.6,22.6,16.5,20.6,18.9,20.6z
		 M18.9,28.2c1.8,0,3.2-1.4,3.2-3.1c0-1.8-1.4-3.1-3.2-3.1c-1.8,0-3.2,1.4-3.2,3.1C15.7,26.8,17.2,28.2,18.9,28.2z"/>
</g>
</svg>
